<svg width="254" height="101" viewBox="0 0 254 101" fill="none" xmlns="http://www.w3.org/2000/svg">
<g filter="url(#filter0_d_6761_7248)">
<g clip-path="url(#clip0_6761_7248)">
<rect x="16" y="9" width="222" height="72" rx="8" fill="white"/>
<rect x="16" y="9" width="72" height="72" fill="white"/>
<g filter="url(#filter1_d_6761_7248)">
<path d="M72 80.7385C72 82.5398 70.5315 84 68.7201 84H34.2799C32.4685 84 31 82.5398 31 80.7385L31 34.2614C31 32.4602 32.4685 31 34.2799 31H59.7L72 42.2115V80.7385Z" fill="white"/>
<path d="M71.9992 42.2115H59.6992V31L71.9992 42.2115Z" fill="#949AA2" fill-opacity="0.2"/>
<path d="M59.6992 42.2119L71.9992 54.4427V42.2119H59.6992Z" fill="#FAFAFA"/>
</g>
<path d="M100.41 42.126C99.8967 42.126 99.4113 42.0793 98.954 41.986C98.506 41.8927 98.0907 41.762 97.708 41.594C97.3347 41.4167 96.994 41.202 96.686 40.95L97.092 40.026C97.4093 40.2593 97.7313 40.46 98.058 40.628C98.394 40.7867 98.7533 40.908 99.136 40.992C99.528 41.0667 99.9527 41.104 100.41 41.104C101.25 41.104 101.871 40.95 102.272 40.642C102.683 40.3247 102.888 39.9093 102.888 39.396C102.888 39.1253 102.823 38.892 102.692 38.696C102.571 38.5 102.365 38.332 102.076 38.192C101.796 38.052 101.427 37.9353 100.97 37.842L99.514 37.548C98.6367 37.3613 97.9787 37.058 97.54 36.638C97.1107 36.2087 96.896 35.6393 96.896 34.93C96.896 34.342 97.0453 33.8287 97.344 33.39C97.652 32.9513 98.0767 32.6107 98.618 32.368C99.1687 32.1253 99.794 32.004 100.494 32.004C100.942 32.004 101.367 32.0507 101.768 32.144C102.169 32.2373 102.538 32.3773 102.874 32.564C103.219 32.7413 103.523 32.9607 103.784 33.222L103.378 34.118C102.958 33.7353 102.515 33.46 102.048 33.292C101.581 33.1147 101.059 33.026 100.48 33.026C99.9853 33.026 99.556 33.1007 99.192 33.25C98.8373 33.3993 98.5573 33.6187 98.352 33.908C98.156 34.188 98.058 34.5147 98.058 34.888C98.058 35.336 98.1933 35.6907 98.464 35.952C98.744 36.2133 99.1967 36.4047 99.822 36.526L101.278 36.834C102.221 37.03 102.916 37.3287 103.364 37.73C103.821 38.122 104.05 38.6587 104.05 39.34C104.05 39.8813 103.901 40.3667 103.602 40.796C103.313 41.216 102.893 41.5427 102.342 41.776C101.801 42.0093 101.157 42.126 100.41 42.126ZM108.38 42.126C107.577 42.126 106.975 41.9113 106.574 41.482C106.173 41.0527 105.972 40.4413 105.972 39.648V36.078H104.642V35.196H105.972V33.11H107.106V35.196H109.262V36.078H107.106V39.536C107.106 40.068 107.218 40.474 107.442 40.754C107.666 41.0247 108.03 41.16 108.534 41.16C108.683 41.16 108.833 41.1413 108.982 41.104C109.131 41.0667 109.267 41.0293 109.388 40.992L109.584 41.86C109.463 41.9253 109.285 41.986 109.052 42.042C108.819 42.098 108.595 42.126 108.38 42.126ZM112.686 42.126C112.22 42.126 111.8 42.0373 111.426 41.86C111.062 41.6733 110.773 41.4213 110.558 41.104C110.344 40.7867 110.236 40.432 110.236 40.04C110.236 39.536 110.362 39.1393 110.614 38.85C110.876 38.5607 111.3 38.3553 111.888 38.234C112.486 38.1127 113.298 38.052 114.324 38.052H114.954V38.794H114.338C113.769 38.794 113.293 38.8127 112.91 38.85C112.528 38.8873 112.224 38.9527 112 39.046C111.776 39.1393 111.618 39.2607 111.524 39.41C111.431 39.5593 111.384 39.746 111.384 39.97C111.384 40.3527 111.515 40.6653 111.776 40.908C112.047 41.1507 112.411 41.272 112.868 41.272C113.242 41.272 113.568 41.1833 113.848 41.006C114.138 40.8287 114.362 40.586 114.52 40.278C114.688 39.97 114.772 39.6153 114.772 39.214V37.618C114.772 37.0393 114.656 36.624 114.422 36.372C114.189 36.1107 113.806 35.98 113.274 35.98C112.864 35.98 112.467 36.0407 112.084 36.162C111.702 36.274 111.31 36.4607 110.908 36.722L110.516 35.896C110.759 35.728 111.034 35.5833 111.342 35.462C111.65 35.3313 111.972 35.2333 112.308 35.168C112.644 35.1027 112.966 35.07 113.274 35.07C113.862 35.07 114.348 35.168 114.73 35.364C115.113 35.5507 115.398 35.84 115.584 36.232C115.771 36.6147 115.864 37.1093 115.864 37.716V42H114.8V40.418H114.926C114.852 40.7727 114.707 41.076 114.492 41.328C114.287 41.58 114.03 41.776 113.722 41.916C113.414 42.056 113.069 42.126 112.686 42.126ZM117.968 42V35.196H119.074V36.806H118.934C119.093 36.2553 119.368 35.84 119.76 35.56C120.152 35.2707 120.67 35.1027 121.314 35.056L121.72 35.014L121.804 35.994L121.09 36.078C120.456 36.134 119.966 36.3393 119.62 36.694C119.284 37.0393 119.116 37.5153 119.116 38.122V42H117.968ZM126.085 42.126C125.282 42.126 124.68 41.9113 124.279 41.482C123.878 41.0527 123.677 40.4413 123.677 39.648V36.078H122.347V35.196H123.677V33.11H124.811V35.196H126.967V36.078H124.811V39.536C124.811 40.068 124.923 40.474 125.147 40.754C125.371 41.0247 125.735 41.16 126.239 41.16C126.388 41.16 126.538 41.1413 126.687 41.104C126.836 41.0667 126.972 41.0293 127.093 40.992L127.289 41.86C127.168 41.9253 126.99 41.986 126.757 42.042C126.524 42.098 126.3 42.126 126.085 42.126ZM132.209 42V36.078H130.865V35.196H132.517L132.209 35.49V34.958C132.209 34.0527 132.433 33.3667 132.881 32.9C133.339 32.4333 134.039 32.172 134.981 32.116L135.527 32.088L135.625 32.956L134.981 32.998C134.599 33.026 134.286 33.11 134.043 33.25C133.801 33.39 133.623 33.5907 133.511 33.852C133.399 34.1133 133.343 34.4353 133.343 34.818V35.406L133.175 35.196H135.303V36.078H133.343V42H132.209ZM136.507 42V35.196H137.613V36.806H137.473C137.632 36.2553 137.907 35.84 138.299 35.56C138.691 35.2707 139.209 35.1027 139.853 35.056L140.259 35.014L140.343 35.994L139.629 36.078C138.995 36.134 138.505 36.3393 138.159 36.694C137.823 37.0393 137.655 37.5153 137.655 38.122V42H136.507ZM144.271 42.126C143.608 42.126 143.034 41.9813 142.549 41.692C142.064 41.4027 141.686 40.9967 141.415 40.474C141.154 39.942 141.023 39.3167 141.023 38.598C141.023 37.8793 141.154 37.2587 141.415 36.736C141.686 36.204 142.064 35.7933 142.549 35.504C143.034 35.2147 143.608 35.07 144.271 35.07C144.934 35.07 145.508 35.2147 145.993 35.504C146.478 35.7933 146.852 36.204 147.113 36.736C147.384 37.2587 147.519 37.8793 147.519 38.598C147.519 39.3167 147.384 39.942 147.113 40.474C146.852 40.9967 146.478 41.4027 145.993 41.692C145.508 41.9813 144.934 42.126 144.271 42.126ZM144.271 41.216C144.915 41.216 145.424 40.992 145.797 40.544C146.18 40.0867 146.371 39.4333 146.371 38.584C146.371 37.744 146.18 37.1 145.797 36.652C145.424 36.204 144.915 35.98 144.271 35.98C143.636 35.98 143.128 36.204 142.745 36.652C142.362 37.1 142.171 37.744 142.171 38.584C142.171 39.4333 142.362 40.0867 142.745 40.544C143.128 40.992 143.636 41.216 144.271 41.216ZM149.25 42V35.196H150.356V36.708H150.202C150.314 36.3627 150.478 36.0687 150.692 35.826C150.916 35.574 151.178 35.3873 151.476 35.266C151.784 35.1353 152.12 35.07 152.484 35.07C153.063 35.07 153.53 35.21 153.884 35.49C154.248 35.7607 154.491 36.1853 154.612 36.764H154.402C154.57 36.2413 154.869 35.8307 155.298 35.532C155.737 35.224 156.246 35.07 156.824 35.07C157.338 35.07 157.758 35.168 158.084 35.364C158.42 35.56 158.672 35.8587 158.84 36.26C159.008 36.652 159.092 37.1513 159.092 37.758V42H157.958V37.814C157.958 37.1887 157.851 36.7313 157.636 36.442C157.422 36.1433 157.058 35.994 156.544 35.994C156.18 35.994 155.858 36.0827 155.578 36.26C155.308 36.4373 155.098 36.6893 154.948 37.016C154.808 37.3333 154.738 37.7113 154.738 38.15V42H153.604V37.814C153.604 37.1887 153.492 36.7313 153.268 36.442C153.054 36.1433 152.694 35.994 152.19 35.994C151.817 35.994 151.495 36.0827 151.224 36.26C150.954 36.4373 150.744 36.6893 150.594 37.016C150.454 37.3333 150.384 37.7113 150.384 38.15V42H149.25ZM167.104 42.126C166.749 42.126 166.404 42.0887 166.068 42.014C165.741 41.9487 165.433 41.8553 165.144 41.734C164.864 41.6033 164.621 41.4493 164.416 41.272L164.78 40.474C165.004 40.6513 165.247 40.8007 165.508 40.922C165.769 41.034 166.035 41.118 166.306 41.174C166.577 41.23 166.852 41.258 167.132 41.258C167.664 41.258 168.065 41.16 168.336 40.964C168.607 40.768 168.742 40.502 168.742 40.166C168.742 39.9047 168.653 39.6993 168.476 39.55C168.299 39.3913 168.019 39.27 167.636 39.186L166.362 38.906C165.774 38.7847 165.335 38.5747 165.046 38.276C164.766 37.9773 164.626 37.59 164.626 37.114C164.626 36.694 164.733 36.3347 164.948 36.036C165.172 35.728 165.485 35.49 165.886 35.322C166.287 35.154 166.754 35.07 167.286 35.07C167.603 35.07 167.907 35.1027 168.196 35.168C168.485 35.2333 168.756 35.3313 169.008 35.462C169.269 35.5833 169.493 35.7373 169.68 35.924L169.302 36.722C169.125 36.554 168.924 36.414 168.7 36.302C168.476 36.1807 168.243 36.092 168 36.036C167.767 35.9707 167.529 35.938 167.286 35.938C166.763 35.938 166.367 36.0407 166.096 36.246C165.825 36.4513 165.69 36.722 165.69 37.058C165.69 37.3193 165.774 37.534 165.942 37.702C166.11 37.87 166.371 37.9913 166.726 38.066L168 38.332C168.607 38.4627 169.059 38.6727 169.358 38.962C169.666 39.242 169.82 39.6247 169.82 40.11C169.82 40.5207 169.708 40.88 169.484 41.188C169.26 41.4867 168.943 41.72 168.532 41.888C168.131 42.0467 167.655 42.126 167.104 42.126ZM174.432 42.126C173.751 42.126 173.163 41.9767 172.668 41.678C172.174 41.3793 171.791 40.964 171.52 40.432C171.259 39.8907 171.128 39.2653 171.128 38.556C171.128 37.8373 171.259 37.2167 171.52 36.694C171.791 36.1713 172.174 35.77 172.668 35.49C173.163 35.21 173.751 35.07 174.432 35.07C174.852 35.07 175.268 35.1447 175.678 35.294C176.089 35.4433 176.43 35.6533 176.7 35.924L176.308 36.75C176.038 36.4887 175.739 36.2973 175.412 36.176C175.095 36.0547 174.792 35.994 174.502 35.994C173.793 35.994 173.247 36.218 172.864 36.666C172.482 37.1047 172.29 37.7393 172.29 38.57C172.29 39.382 172.482 40.026 172.864 40.502C173.247 40.9687 173.793 41.202 174.502 41.202C174.792 41.202 175.095 41.1413 175.412 41.02C175.739 40.8987 176.038 40.7027 176.308 40.432L176.7 41.258C176.43 41.5287 176.084 41.7433 175.664 41.902C175.254 42.0513 174.843 42.126 174.432 42.126ZM178.029 42V35.196H179.135V36.806H178.995C179.154 36.2553 179.429 35.84 179.821 35.56C180.213 35.2707 180.731 35.1027 181.375 35.056L181.781 35.014L181.865 35.994L181.151 36.078C180.516 36.134 180.026 36.3393 179.681 36.694C179.345 37.0393 179.177 37.5153 179.177 38.122V42H178.029ZM185.12 42.126C184.653 42.126 184.233 42.0373 183.86 41.86C183.496 41.6733 183.207 41.4213 182.992 41.104C182.777 40.7867 182.67 40.432 182.67 40.04C182.67 39.536 182.796 39.1393 183.048 38.85C183.309 38.5607 183.734 38.3553 184.322 38.234C184.919 38.1127 185.731 38.052 186.758 38.052H187.388V38.794H186.772C186.203 38.794 185.727 38.8127 185.344 38.85C184.961 38.8873 184.658 38.9527 184.434 39.046C184.21 39.1393 184.051 39.2607 183.958 39.41C183.865 39.5593 183.818 39.746 183.818 39.97C183.818 40.3527 183.949 40.6653 184.21 40.908C184.481 41.1507 184.845 41.272 185.302 41.272C185.675 41.272 186.002 41.1833 186.282 41.006C186.571 40.8287 186.795 40.586 186.954 40.278C187.122 39.97 187.206 39.6153 187.206 39.214V37.618C187.206 37.0393 187.089 36.624 186.856 36.372C186.623 36.1107 186.24 35.98 185.708 35.98C185.297 35.98 184.901 36.0407 184.518 36.162C184.135 36.274 183.743 36.4607 183.342 36.722L182.95 35.896C183.193 35.728 183.468 35.5833 183.776 35.462C184.084 35.3313 184.406 35.2333 184.742 35.168C185.078 35.1027 185.4 35.07 185.708 35.07C186.296 35.07 186.781 35.168 187.164 35.364C187.547 35.5507 187.831 35.84 188.018 36.232C188.205 36.6147 188.298 37.1093 188.298 37.716V42H187.234V40.418H187.36C187.285 40.7727 187.141 41.076 186.926 41.328C186.721 41.58 186.464 41.776 186.156 41.916C185.848 42.056 185.503 42.126 185.12 42.126ZM193.132 42.126C192.329 42.126 191.727 41.9113 191.326 41.482C190.925 41.0527 190.724 40.4413 190.724 39.648V36.078H189.394V35.196H190.724V33.11H191.858V35.196H194.014V36.078H191.858V39.536C191.858 40.068 191.97 40.474 192.194 40.754C192.418 41.0247 192.782 41.16 193.286 41.16C193.435 41.16 193.585 41.1413 193.734 41.104C193.883 41.0667 194.019 41.0293 194.14 40.992L194.336 41.86C194.215 41.9253 194.037 41.986 193.804 42.042C193.571 42.098 193.347 42.126 193.132 42.126ZM198.112 42.126C197.431 42.126 196.843 41.9767 196.348 41.678C195.853 41.3793 195.471 40.964 195.2 40.432C194.939 39.8907 194.808 39.2653 194.808 38.556C194.808 37.8373 194.939 37.2167 195.2 36.694C195.471 36.1713 195.853 35.77 196.348 35.49C196.843 35.21 197.431 35.07 198.112 35.07C198.532 35.07 198.947 35.1447 199.358 35.294C199.769 35.4433 200.109 35.6533 200.38 35.924L199.988 36.75C199.717 36.4887 199.419 36.2973 199.092 36.176C198.775 36.0547 198.471 35.994 198.182 35.994C197.473 35.994 196.927 36.218 196.544 36.666C196.161 37.1047 195.97 37.7393 195.97 38.57C195.97 39.382 196.161 40.026 196.544 40.502C196.927 40.9687 197.473 41.202 198.182 41.202C198.471 41.202 198.775 41.1413 199.092 41.02C199.419 40.8987 199.717 40.7027 199.988 40.432L200.38 41.258C200.109 41.5287 199.764 41.7433 199.344 41.902C198.933 42.0513 198.523 42.126 198.112 42.126ZM201.709 42V32.13H202.843V36.708H202.661C202.857 36.1667 203.174 35.7607 203.613 35.49C204.061 35.21 204.574 35.07 205.153 35.07C205.694 35.07 206.142 35.168 206.497 35.364C206.861 35.56 207.131 35.8587 207.309 36.26C207.486 36.652 207.575 37.1513 207.575 37.758V42H206.441V37.828C206.441 37.408 206.385 37.0627 206.273 36.792C206.17 36.5213 206.002 36.3207 205.769 36.19C205.545 36.0593 205.251 35.994 204.887 35.994C204.476 35.994 204.117 36.0827 203.809 36.26C203.501 36.4373 203.263 36.6847 203.095 37.002C202.927 37.3193 202.843 37.6927 202.843 38.122V42H201.709Z" fill="#15191F"/>
<path d="M97.044 59V50.54H100.428C101.292 50.54 101.964 50.732 102.444 51.116C102.924 51.5 103.164 52.044 103.164 52.748C103.164 53.276 103.008 53.716 102.696 54.068C102.392 54.42 101.976 54.652 101.448 54.764V54.596C101.848 54.644 102.192 54.76 102.48 54.944C102.768 55.12 102.988 55.356 103.14 55.652C103.292 55.94 103.368 56.28 103.368 56.672C103.368 57.176 103.256 57.604 103.032 57.956C102.816 58.3 102.5 58.56 102.084 58.736C101.668 58.912 101.164 59 100.572 59H97.044ZM98.004 58.208H100.476C100.732 58.208 100.96 58.188 101.16 58.148C101.368 58.108 101.548 58.048 101.7 57.968C101.852 57.88 101.98 57.776 102.084 57.656C102.188 57.536 102.264 57.392 102.312 57.224C102.368 57.056 102.396 56.868 102.396 56.66C102.396 56.444 102.368 56.256 102.312 56.096C102.264 55.928 102.188 55.784 102.084 55.664C101.98 55.536 101.852 55.432 101.7 55.352C101.548 55.272 101.368 55.212 101.16 55.172C100.96 55.132 100.732 55.112 100.476 55.112H98.004V58.208ZM98.004 54.32H100.284C100.908 54.32 101.38 54.192 101.7 53.936C102.028 53.68 102.192 53.312 102.192 52.832C102.192 52.336 102.028 51.964 101.7 51.716C101.38 51.46 100.908 51.332 100.284 51.332H98.004V54.32ZM107.649 59.108C107.033 59.108 106.501 58.988 106.053 58.748C105.613 58.5 105.269 58.152 105.021 57.704C104.781 57.256 104.661 56.72 104.661 56.096C104.661 55.488 104.781 54.96 105.021 54.512C105.261 54.056 105.589 53.7 106.005 53.444C106.429 53.188 106.917 53.06 107.469 53.06C107.997 53.06 108.449 53.176 108.825 53.408C109.201 53.64 109.489 53.968 109.689 54.392C109.897 54.816 110.001 55.324 110.001 55.916V56.288H105.405V55.652H109.353L109.161 55.808C109.161 55.168 109.017 54.672 108.729 54.32C108.449 53.96 108.037 53.78 107.493 53.78C107.085 53.78 106.737 53.876 106.449 54.068C106.169 54.252 105.957 54.512 105.813 54.848C105.669 55.176 105.597 55.56 105.597 56V56.072C105.597 56.56 105.673 56.972 105.825 57.308C105.985 57.644 106.221 57.9 106.533 58.076C106.845 58.244 107.217 58.328 107.649 58.328C107.993 58.328 108.325 58.276 108.645 58.172C108.973 58.06 109.281 57.88 109.569 57.632L109.905 58.316C109.641 58.556 109.305 58.748 108.897 58.892C108.489 59.036 108.073 59.108 107.649 59.108ZM113.988 61.268C113.484 61.268 113.008 61.2 112.56 61.064C112.12 60.936 111.728 60.74 111.384 60.476L111.708 59.768C111.948 59.936 112.184 60.072 112.416 60.176C112.656 60.288 112.9 60.368 113.148 60.416C113.404 60.464 113.668 60.488 113.94 60.488C114.508 60.488 114.936 60.336 115.224 60.032C115.52 59.728 115.668 59.288 115.668 58.712V57.356H115.788C115.668 57.82 115.412 58.188 115.02 58.46C114.636 58.732 114.184 58.868 113.664 58.868C113.128 58.868 112.664 58.748 112.272 58.508C111.88 58.26 111.576 57.916 111.36 57.476C111.152 57.036 111.048 56.528 111.048 55.952C111.048 55.376 111.152 54.872 111.36 54.44C111.576 54 111.88 53.66 112.272 53.42C112.664 53.18 113.128 53.06 113.664 53.06C114.192 53.06 114.648 53.196 115.032 53.468C115.416 53.732 115.664 54.092 115.776 54.548H115.668V53.168H116.616V58.58C116.616 59.172 116.516 59.668 116.316 60.068C116.124 60.468 115.832 60.768 115.44 60.968C115.048 61.168 114.564 61.268 113.988 61.268ZM113.844 58.076C114.404 58.076 114.848 57.884 115.176 57.5C115.504 57.116 115.668 56.6 115.668 55.952C115.668 55.304 115.504 54.792 115.176 54.416C114.848 54.032 114.404 53.84 113.844 53.84C113.292 53.84 112.852 54.032 112.524 54.416C112.196 54.792 112.032 55.304 112.032 55.952C112.032 56.6 112.196 57.116 112.524 57.5C112.852 57.884 113.292 58.076 113.844 58.076ZM118.319 51.716V50.624H119.519V51.716H118.319ZM118.439 59V53.168H119.411V59H118.439ZM121.228 59V53.168H122.176V54.464H122.044C122.212 54 122.484 53.652 122.86 53.42C123.244 53.18 123.684 53.06 124.18 53.06C124.644 53.06 125.028 53.144 125.332 53.312C125.644 53.472 125.876 53.724 126.028 54.068C126.18 54.412 126.256 54.844 126.256 55.364V59H125.284V55.424C125.284 55.064 125.236 54.768 125.14 54.536C125.052 54.304 124.908 54.132 124.708 54.02C124.516 53.908 124.264 53.852 123.952 53.852C123.6 53.852 123.292 53.928 123.028 54.08C122.764 54.232 122.56 54.444 122.416 54.716C122.272 54.988 122.2 55.308 122.2 55.676V59H121.228ZM132.679 59L130.507 53.168H131.527L133.315 58.28H133.027L134.875 53.168H135.703L137.515 58.28H137.239L139.051 53.168H140.023L137.839 59H136.915L135.007 53.756H135.523L133.615 59H132.679ZM141.101 51.716V50.624H142.301V51.716H141.101ZM141.221 59V53.168H142.193V59H141.221ZM146.35 59.108C145.662 59.108 145.146 58.924 144.802 58.556C144.458 58.188 144.286 57.664 144.286 56.984V53.924H143.146V53.168H144.286V51.38H145.258V53.168H147.106V53.924H145.258V56.888C145.258 57.344 145.354 57.692 145.546 57.932C145.738 58.164 146.05 58.28 146.482 58.28C146.61 58.28 146.738 58.264 146.866 58.232C146.994 58.2 147.11 58.168 147.214 58.136L147.382 58.88C147.278 58.936 147.126 58.988 146.926 59.036C146.726 59.084 146.534 59.108 146.35 59.108ZM148.205 59V50.54H149.177V54.464H149.021C149.189 54 149.461 53.652 149.837 53.42C150.221 53.18 150.661 53.06 151.157 53.06C151.621 53.06 152.005 53.144 152.309 53.312C152.621 53.48 152.853 53.736 153.005 54.08C153.157 54.416 153.233 54.844 153.233 55.364V59H152.261V55.424C152.261 55.064 152.213 54.768 152.117 54.536C152.029 54.304 151.885 54.132 151.685 54.02C151.493 53.908 151.241 53.852 150.929 53.852C150.577 53.852 150.269 53.928 150.005 54.08C149.741 54.232 149.537 54.444 149.393 54.716C149.249 54.988 149.177 55.308 149.177 55.676V59H148.205ZM159.943 59.108C159.543 59.108 159.183 59.032 158.863 58.88C158.551 58.72 158.303 58.504 158.119 58.232C157.935 57.96 157.843 57.656 157.843 57.32C157.843 56.888 157.951 56.548 158.167 56.3C158.391 56.052 158.755 55.876 159.259 55.772C159.771 55.668 160.467 55.616 161.347 55.616H161.887V56.252H161.359C160.871 56.252 160.463 56.268 160.135 56.3C159.807 56.332 159.547 56.388 159.355 56.468C159.163 56.548 159.027 56.652 158.947 56.78C158.867 56.908 158.827 57.068 158.827 57.26C158.827 57.588 158.939 57.856 159.163 58.064C159.395 58.272 159.707 58.376 160.099 58.376C160.419 58.376 160.699 58.3 160.939 58.148C161.187 57.996 161.379 57.788 161.515 57.524C161.659 57.26 161.731 56.956 161.731 56.612V55.244C161.731 54.748 161.631 54.392 161.431 54.176C161.231 53.952 160.903 53.84 160.447 53.84C160.095 53.84 159.755 53.892 159.427 53.996C159.099 54.092 158.763 54.252 158.419 54.476L158.083 53.768C158.291 53.624 158.527 53.5 158.791 53.396C159.055 53.284 159.331 53.2 159.619 53.144C159.907 53.088 160.183 53.06 160.447 53.06C160.951 53.06 161.367 53.144 161.695 53.312C162.023 53.472 162.267 53.72 162.427 54.056C162.587 54.384 162.667 54.808 162.667 55.328V59H161.755V57.644H161.863C161.799 57.948 161.675 58.208 161.491 58.424C161.315 58.64 161.095 58.808 160.831 58.928C160.567 59.048 160.271 59.108 159.943 59.108ZM170.505 59.108C169.977 59.108 169.521 58.972 169.137 58.7C168.761 58.428 168.509 58.064 168.381 57.608H168.501V59H167.553V50.54H168.525V54.524H168.381C168.517 54.076 168.773 53.72 169.149 53.456C169.525 53.192 169.977 53.06 170.505 53.06C171.033 53.06 171.489 53.184 171.873 53.432C172.257 53.672 172.553 54.02 172.761 54.476C172.977 54.924 173.085 55.46 173.085 56.084C173.085 56.7 172.977 57.236 172.761 57.692C172.553 58.14 172.253 58.488 171.861 58.736C171.477 58.984 171.025 59.108 170.505 59.108ZM170.301 58.328C170.853 58.328 171.289 58.136 171.609 57.752C171.937 57.36 172.101 56.804 172.101 56.084C172.101 55.356 171.937 54.8 171.609 54.416C171.289 54.032 170.853 53.84 170.301 53.84C169.757 53.84 169.321 54.032 168.993 54.416C168.665 54.8 168.501 55.356 168.501 56.084C168.501 56.804 168.665 57.36 168.993 57.752C169.321 58.136 169.757 58.328 170.301 58.328ZM176.337 59.108C175.745 59.108 175.297 58.932 174.993 58.58C174.697 58.228 174.549 57.724 174.549 57.068V50.54H175.521V56.996C175.521 57.276 175.557 57.512 175.629 57.704C175.709 57.896 175.825 58.04 175.977 58.136C176.129 58.232 176.317 58.28 176.541 58.28C176.637 58.28 176.729 58.276 176.817 58.268C176.913 58.252 177.001 58.232 177.081 58.208L177.057 59.024C176.929 59.048 176.805 59.068 176.685 59.084C176.573 59.1 176.457 59.108 176.337 59.108ZM179.936 59.108C179.536 59.108 179.176 59.032 178.856 58.88C178.544 58.72 178.296 58.504 178.112 58.232C177.928 57.96 177.836 57.656 177.836 57.32C177.836 56.888 177.944 56.548 178.16 56.3C178.384 56.052 178.748 55.876 179.252 55.772C179.764 55.668 180.46 55.616 181.34 55.616H181.88V56.252H181.352C180.864 56.252 180.456 56.268 180.128 56.3C179.8 56.332 179.54 56.388 179.348 56.468C179.156 56.548 179.02 56.652 178.94 56.78C178.86 56.908 178.82 57.068 178.82 57.26C178.82 57.588 178.932 57.856 179.156 58.064C179.388 58.272 179.7 58.376 180.092 58.376C180.412 58.376 180.692 58.3 180.932 58.148C181.18 57.996 181.372 57.788 181.508 57.524C181.652 57.26 181.724 56.956 181.724 56.612V55.244C181.724 54.748 181.624 54.392 181.424 54.176C181.224 53.952 180.896 53.84 180.44 53.84C180.088 53.84 179.748 53.892 179.42 53.996C179.092 54.092 178.756 54.252 178.412 54.476L178.076 53.768C178.284 53.624 178.52 53.5 178.784 53.396C179.048 53.284 179.324 53.2 179.612 53.144C179.9 53.088 180.176 53.06 180.44 53.06C180.944 53.06 181.36 53.144 181.688 53.312C182.016 53.472 182.26 53.72 182.42 54.056C182.58 54.384 182.66 54.808 182.66 55.328V59H181.748V57.644H181.856C181.792 57.948 181.668 58.208 181.484 58.424C181.308 58.64 181.088 58.808 180.824 58.928C180.56 59.048 180.264 59.108 179.936 59.108ZM184.463 59V53.168H185.411V54.464H185.279C185.447 54 185.719 53.652 186.095 53.42C186.479 53.18 186.919 53.06 187.415 53.06C187.879 53.06 188.263 53.144 188.567 53.312C188.879 53.472 189.111 53.724 189.263 54.068C189.415 54.412 189.491 54.844 189.491 55.364V59H188.519V55.424C188.519 55.064 188.471 54.768 188.375 54.536C188.287 54.304 188.143 54.132 187.943 54.02C187.751 53.908 187.499 53.852 187.187 53.852C186.835 53.852 186.527 53.928 186.263 54.08C185.999 54.232 185.795 54.444 185.651 54.716C185.507 54.988 185.435 55.308 185.435 55.676V59H184.463ZM191.283 59V50.54H192.255V55.76H192.279L194.979 53.168H196.215L193.011 56.24V55.712L196.467 59H195.231L192.279 56.264H192.255V59H191.283Z" fill="#667C98"/>
</g>
<rect x="17" y="10" width="220" height="70" rx="7" stroke="white" stroke-width="2"/>
</g>
<defs>
<filter id="filter0_d_6761_7248" x="0" y="0" width="254" height="104" filterUnits="userSpaceOnUse" color-interpolation-filters="sRGB">
<feFlood flood-opacity="0" result="BackgroundImageFix"/>
<feColorMatrix in="SourceAlpha" type="matrix" values="0 0 0 0 0 0 0 0 0 0 0 0 0 0 0 0 0 0 127 0" result="hardAlpha"/>
<feOffset dy="7"/>
<feGaussianBlur stdDeviation="8"/>
<feComposite in2="hardAlpha" operator="out"/>
<feColorMatrix type="matrix" values="0 0 0 0 0.243137 0 0 0 0 0.223529 0 0 0 0 0.803922 0 0 0 0.15 0"/>
<feBlend mode="normal" in2="BackgroundImageFix" result="effect1_dropShadow_6761_7248"/>
<feBlend mode="normal" in="SourceGraphic" in2="effect1_dropShadow_6761_7248" result="shape"/>
</filter>
<filter id="filter1_d_6761_7248" x="13.6" y="15.6" width="79.8" height="91.8" filterUnits="userSpaceOnUse" color-interpolation-filters="sRGB">
<feFlood flood-opacity="0" result="BackgroundImageFix"/>
<feColorMatrix in="SourceAlpha" type="matrix" values="0 0 0 0 0 0 0 0 0 0 0 0 0 0 0 0 0 0 127 0" result="hardAlpha"/>
<feOffset dx="2" dy="4"/>
<feGaussianBlur stdDeviation="9.7"/>
<feComposite in2="hardAlpha" operator="out"/>
<feColorMatrix type="matrix" values="0 0 0 0 0.47381 0 0 0 0 0.450311 0 0 0 0 0.591309 0 0 0 0.75 0"/>
<feBlend mode="normal" in2="BackgroundImageFix" result="effect1_dropShadow_6761_7248"/>
<feBlend mode="normal" in="SourceGraphic" in2="effect1_dropShadow_6761_7248" result="shape"/>
</filter>
<clipPath id="clip0_6761_7248">
<rect x="16" y="9" width="222" height="72" rx="8" fill="white"/>
</clipPath>
</defs>
</svg>
