<svg width="222" height="72" viewBox="0 0 222 72" fill="none" xmlns="http://www.w3.org/2000/svg">
<g clip-path="url(#clip0_6761_7249)">
<path d="M0 8C0 3.58172 3.58172 0 8 0H214C218.418 0 222 3.58172 222 8V64C222 68.4183 218.418 72 214 72H8C3.58172 72 0 68.4183 0 64V8Z" fill="white"/>
<g filter="url(#filter0_d_6761_7249)">
<path d="M52 54.3539C52 55.8153 50.8181 57 49.3601 57H21.6399C20.182 57 19 55.8153 19 54.3539L19 16.6461C19 15.1847 20.1819 14 21.6399 14H42.1L52 23.0961V54.3539Z" fill="white"/>
<path d="M51.9996 23.0961H42.0996V14L51.9996 23.0961Z" fill="#949AA2" fill-opacity="0.2"/>
<path d="M42.0996 23.0957L51.9996 33.0188V23.0957H42.0996Z" fill="#FAFAFA"/>
</g>
<path d="M84.41 33.126C83.8967 33.126 83.4113 33.0793 82.954 32.986C82.506 32.8927 82.0907 32.762 81.708 32.594C81.3347 32.4167 80.994 32.202 80.686 31.95L81.092 31.026C81.4093 31.2593 81.7313 31.46 82.058 31.628C82.394 31.7867 82.7533 31.908 83.136 31.992C83.528 32.0667 83.9527 32.104 84.41 32.104C85.25 32.104 85.8707 31.95 86.272 31.642C86.6827 31.3247 86.888 30.9093 86.888 30.396C86.888 30.1253 86.8227 29.892 86.692 29.696C86.5707 29.5 86.3653 29.332 86.076 29.192C85.796 29.052 85.4273 28.9353 84.97 28.842L83.514 28.548C82.6367 28.3613 81.9787 28.058 81.54 27.638C81.1107 27.2087 80.896 26.6393 80.896 25.93C80.896 25.342 81.0453 24.8287 81.344 24.39C81.652 23.9513 82.0767 23.6107 82.618 23.368C83.1687 23.1253 83.794 23.004 84.494 23.004C84.942 23.004 85.3667 23.0507 85.768 23.144C86.1693 23.2373 86.538 23.3773 86.874 23.564C87.2193 23.7413 87.5227 23.9607 87.784 24.222L87.378 25.118C86.958 24.7353 86.5147 24.46 86.048 24.292C85.5813 24.1147 85.0587 24.026 84.48 24.026C83.9853 24.026 83.556 24.1007 83.192 24.25C82.8373 24.3993 82.5573 24.6187 82.352 24.908C82.156 25.188 82.058 25.5147 82.058 25.888C82.058 26.336 82.1933 26.6907 82.464 26.952C82.744 27.2133 83.1967 27.4047 83.822 27.526L85.278 27.834C86.2207 28.03 86.916 28.3287 87.364 28.73C87.8213 29.122 88.05 29.6587 88.05 30.34C88.05 30.8813 87.9007 31.3667 87.602 31.796C87.3127 32.216 86.8927 32.5427 86.342 32.776C85.8007 33.0093 85.1567 33.126 84.41 33.126ZM92.3799 33.126C91.5773 33.126 90.9753 32.9113 90.5739 32.482C90.1726 32.0527 89.9719 31.4413 89.9719 30.648V27.078H88.6419V26.196H89.9719V24.11H91.1059V26.196H93.2619V27.078H91.1059V30.536C91.1059 31.068 91.2179 31.474 91.4419 31.754C91.6659 32.0247 92.0299 32.16 92.5339 32.16C92.6833 32.16 92.8326 32.1413 92.9819 32.104C93.1313 32.0667 93.2666 32.0293 93.3879 31.992L93.5839 32.86C93.4626 32.9253 93.2853 32.986 93.0519 33.042C92.8186 33.098 92.5946 33.126 92.3799 33.126ZM96.6865 33.126C96.2198 33.126 95.7998 33.0373 95.4265 32.86C95.0625 32.6733 94.7731 32.4213 94.5585 32.104C94.3438 31.7867 94.2365 31.432 94.2365 31.04C94.2365 30.536 94.3625 30.1393 94.6145 29.85C94.8758 29.5607 95.3005 29.3553 95.8885 29.234C96.4858 29.1127 97.2978 29.052 98.3245 29.052H98.9545V29.794H98.3385C97.7691 29.794 97.2931 29.8127 96.9105 29.85C96.5278 29.8873 96.2245 29.9527 96.0005 30.046C95.7765 30.1393 95.6178 30.2607 95.5245 30.41C95.4311 30.5593 95.3845 30.746 95.3845 30.97C95.3845 31.3527 95.5151 31.6653 95.7765 31.908C96.0471 32.1507 96.4111 32.272 96.8685 32.272C97.2418 32.272 97.5685 32.1833 97.8485 32.006C98.1378 31.8287 98.3618 31.586 98.5205 31.278C98.6885 30.97 98.7725 30.6153 98.7725 30.214V28.618C98.7725 28.0393 98.6558 27.624 98.4225 27.372C98.1891 27.1107 97.8065 26.98 97.2745 26.98C96.8638 26.98 96.4671 27.0407 96.0845 27.162C95.7018 27.274 95.3098 27.4607 94.9085 27.722L94.5165 26.896C94.7591 26.728 95.0345 26.5833 95.3425 26.462C95.6505 26.3313 95.9725 26.2333 96.3085 26.168C96.6445 26.1027 96.9665 26.07 97.2745 26.07C97.8625 26.07 98.3478 26.168 98.7305 26.364C99.1131 26.5507 99.3978 26.84 99.5845 27.232C99.7711 27.6147 99.8645 28.1093 99.8645 28.716V33H98.8005V31.418H98.9265C98.8518 31.7727 98.7071 32.076 98.4925 32.328C98.2871 32.58 98.0305 32.776 97.7225 32.916C97.4145 33.056 97.0691 33.126 96.6865 33.126ZM101.968 33V26.196H103.074V27.806H102.934C103.093 27.2553 103.368 26.84 103.76 26.56C104.152 26.2707 104.67 26.1027 105.314 26.056L105.72 26.014L105.804 26.994L105.09 27.078C104.456 27.134 103.966 27.3393 103.62 27.694C103.284 28.0393 103.116 28.5153 103.116 29.122V33H101.968ZM110.085 33.126C109.282 33.126 108.68 32.9113 108.279 32.482C107.878 32.0527 107.677 31.4413 107.677 30.648V27.078H106.347V26.196H107.677V24.11H108.811V26.196H110.967V27.078H108.811V30.536C108.811 31.068 108.923 31.474 109.147 31.754C109.371 32.0247 109.735 32.16 110.239 32.16C110.388 32.16 110.538 32.1413 110.687 32.104C110.836 32.0667 110.972 32.0293 111.093 31.992L111.289 32.86C111.168 32.9253 110.99 32.986 110.757 33.042C110.524 33.098 110.3 33.126 110.085 33.126ZM116.209 33V27.078H114.865V26.196H116.517L116.209 26.49V25.958C116.209 25.0527 116.433 24.3667 116.881 23.9C117.339 23.4333 118.039 23.172 118.981 23.116L119.527 23.088L119.625 23.956L118.981 23.998C118.599 24.026 118.286 24.11 118.043 24.25C117.801 24.39 117.623 24.5907 117.511 24.852C117.399 25.1133 117.343 25.4353 117.343 25.818V26.406L117.175 26.196H119.303V27.078H117.343V33H116.209ZM120.507 33V26.196H121.613V27.806H121.473C121.632 27.2553 121.907 26.84 122.299 26.56C122.691 26.2707 123.209 26.1027 123.853 26.056L124.259 26.014L124.343 26.994L123.629 27.078C122.995 27.134 122.505 27.3393 122.159 27.694C121.823 28.0393 121.655 28.5153 121.655 29.122V33H120.507ZM128.271 33.126C127.608 33.126 127.034 32.9813 126.549 32.692C126.064 32.4027 125.686 31.9967 125.415 31.474C125.154 30.942 125.023 30.3167 125.023 29.598C125.023 28.8793 125.154 28.2587 125.415 27.736C125.686 27.204 126.064 26.7933 126.549 26.504C127.034 26.2147 127.608 26.07 128.271 26.07C128.934 26.07 129.508 26.2147 129.993 26.504C130.478 26.7933 130.852 27.204 131.113 27.736C131.384 28.2587 131.519 28.8793 131.519 29.598C131.519 30.3167 131.384 30.942 131.113 31.474C130.852 31.9967 130.478 32.4027 129.993 32.692C129.508 32.9813 128.934 33.126 128.271 33.126ZM128.271 32.216C128.915 32.216 129.424 31.992 129.797 31.544C130.18 31.0867 130.371 30.4333 130.371 29.584C130.371 28.744 130.18 28.1 129.797 27.652C129.424 27.204 128.915 26.98 128.271 26.98C127.636 26.98 127.128 27.204 126.745 27.652C126.362 28.1 126.171 28.744 126.171 29.584C126.171 30.4333 126.362 31.0867 126.745 31.544C127.128 31.992 127.636 32.216 128.271 32.216ZM133.25 33V26.196H134.356V27.708H134.202C134.314 27.3627 134.478 27.0687 134.692 26.826C134.916 26.574 135.178 26.3873 135.476 26.266C135.784 26.1353 136.12 26.07 136.484 26.07C137.063 26.07 137.53 26.21 137.884 26.49C138.248 26.7607 138.491 27.1853 138.612 27.764H138.402C138.57 27.2413 138.869 26.8307 139.298 26.532C139.737 26.224 140.246 26.07 140.824 26.07C141.338 26.07 141.758 26.168 142.084 26.364C142.42 26.56 142.672 26.8587 142.84 27.26C143.008 27.652 143.092 28.1513 143.092 28.758V33H141.958V28.814C141.958 28.1887 141.851 27.7313 141.636 27.442C141.422 27.1433 141.058 26.994 140.544 26.994C140.18 26.994 139.858 27.0827 139.578 27.26C139.308 27.4373 139.098 27.6893 138.948 28.016C138.808 28.3333 138.738 28.7113 138.738 29.15V33H137.604V28.814C137.604 28.1887 137.492 27.7313 137.268 27.442C137.054 27.1433 136.694 26.994 136.19 26.994C135.817 26.994 135.495 27.0827 135.224 27.26C134.954 27.4373 134.744 27.6893 134.594 28.016C134.454 28.3333 134.384 28.7113 134.384 29.15V33H133.25ZM151.104 33.126C150.749 33.126 150.404 33.0887 150.068 33.014C149.741 32.9487 149.433 32.8553 149.144 32.734C148.864 32.6033 148.621 32.4493 148.416 32.272L148.78 31.474C149.004 31.6513 149.247 31.8007 149.508 31.922C149.769 32.034 150.035 32.118 150.306 32.174C150.577 32.23 150.852 32.258 151.132 32.258C151.664 32.258 152.065 32.16 152.336 31.964C152.607 31.768 152.742 31.502 152.742 31.166C152.742 30.9047 152.653 30.6993 152.476 30.55C152.299 30.3913 152.019 30.27 151.636 30.186L150.362 29.906C149.774 29.7847 149.335 29.5747 149.046 29.276C148.766 28.9773 148.626 28.59 148.626 28.114C148.626 27.694 148.733 27.3347 148.948 27.036C149.172 26.728 149.485 26.49 149.886 26.322C150.287 26.154 150.754 26.07 151.286 26.07C151.603 26.07 151.907 26.1027 152.196 26.168C152.485 26.2333 152.756 26.3313 153.008 26.462C153.269 26.5833 153.493 26.7373 153.68 26.924L153.302 27.722C153.125 27.554 152.924 27.414 152.7 27.302C152.476 27.1807 152.243 27.092 152 27.036C151.767 26.9707 151.529 26.938 151.286 26.938C150.763 26.938 150.367 27.0407 150.096 27.246C149.825 27.4513 149.69 27.722 149.69 28.058C149.69 28.3193 149.774 28.534 149.942 28.702C150.11 28.87 150.371 28.9913 150.726 29.066L152 29.332C152.607 29.4627 153.059 29.6727 153.358 29.962C153.666 30.242 153.82 30.6247 153.82 31.11C153.82 31.5207 153.708 31.88 153.484 32.188C153.26 32.4867 152.943 32.72 152.532 32.888C152.131 33.0467 151.655 33.126 151.104 33.126ZM158.432 33.126C157.751 33.126 157.163 32.9767 156.668 32.678C156.174 32.3793 155.791 31.964 155.52 31.432C155.259 30.8907 155.128 30.2653 155.128 29.556C155.128 28.8373 155.259 28.2167 155.52 27.694C155.791 27.1713 156.174 26.77 156.668 26.49C157.163 26.21 157.751 26.07 158.432 26.07C158.852 26.07 159.268 26.1447 159.678 26.294C160.089 26.4433 160.43 26.6533 160.7 26.924L160.308 27.75C160.038 27.4887 159.739 27.2973 159.412 27.176C159.095 27.0547 158.792 26.994 158.502 26.994C157.793 26.994 157.247 27.218 156.864 27.666C156.482 28.1047 156.29 28.7393 156.29 29.57C156.29 30.382 156.482 31.026 156.864 31.502C157.247 31.9687 157.793 32.202 158.502 32.202C158.792 32.202 159.095 32.1413 159.412 32.02C159.739 31.8987 160.038 31.7027 160.308 31.432L160.7 32.258C160.43 32.5287 160.084 32.7433 159.664 32.902C159.254 33.0513 158.843 33.126 158.432 33.126ZM162.029 33V26.196H163.135V27.806H162.995C163.154 27.2553 163.429 26.84 163.821 26.56C164.213 26.2707 164.731 26.1027 165.375 26.056L165.781 26.014L165.865 26.994L165.151 27.078C164.516 27.134 164.026 27.3393 163.681 27.694C163.345 28.0393 163.177 28.5153 163.177 29.122V33H162.029ZM169.12 33.126C168.653 33.126 168.233 33.0373 167.86 32.86C167.496 32.6733 167.207 32.4213 166.992 32.104C166.777 31.7867 166.67 31.432 166.67 31.04C166.67 30.536 166.796 30.1393 167.048 29.85C167.309 29.5607 167.734 29.3553 168.322 29.234C168.919 29.1127 169.731 29.052 170.758 29.052H171.388V29.794H170.772C170.203 29.794 169.727 29.8127 169.344 29.85C168.961 29.8873 168.658 29.9527 168.434 30.046C168.21 30.1393 168.051 30.2607 167.958 30.41C167.865 30.5593 167.818 30.746 167.818 30.97C167.818 31.3527 167.949 31.6653 168.21 31.908C168.481 32.1507 168.845 32.272 169.302 32.272C169.675 32.272 170.002 32.1833 170.282 32.006C170.571 31.8287 170.795 31.586 170.954 31.278C171.122 30.97 171.206 30.6153 171.206 30.214V28.618C171.206 28.0393 171.089 27.624 170.856 27.372C170.623 27.1107 170.24 26.98 169.708 26.98C169.297 26.98 168.901 27.0407 168.518 27.162C168.135 27.274 167.743 27.4607 167.342 27.722L166.95 26.896C167.193 26.728 167.468 26.5833 167.776 26.462C168.084 26.3313 168.406 26.2333 168.742 26.168C169.078 26.1027 169.4 26.07 169.708 26.07C170.296 26.07 170.781 26.168 171.164 26.364C171.547 26.5507 171.831 26.84 172.018 27.232C172.205 27.6147 172.298 28.1093 172.298 28.716V33H171.234V31.418H171.36C171.285 31.7727 171.141 32.076 170.926 32.328C170.721 32.58 170.464 32.776 170.156 32.916C169.848 33.056 169.503 33.126 169.12 33.126ZM177.132 33.126C176.329 33.126 175.727 32.9113 175.326 32.482C174.925 32.0527 174.724 31.4413 174.724 30.648V27.078H173.394V26.196H174.724V24.11H175.858V26.196H178.014V27.078H175.858V30.536C175.858 31.068 175.97 31.474 176.194 31.754C176.418 32.0247 176.782 32.16 177.286 32.16C177.435 32.16 177.585 32.1413 177.734 32.104C177.883 32.0667 178.019 32.0293 178.14 31.992L178.336 32.86C178.215 32.9253 178.037 32.986 177.804 33.042C177.571 33.098 177.347 33.126 177.132 33.126ZM182.112 33.126C181.431 33.126 180.843 32.9767 180.348 32.678C179.853 32.3793 179.471 31.964 179.2 31.432C178.939 30.8907 178.808 30.2653 178.808 29.556C178.808 28.8373 178.939 28.2167 179.2 27.694C179.471 27.1713 179.853 26.77 180.348 26.49C180.843 26.21 181.431 26.07 182.112 26.07C182.532 26.07 182.947 26.1447 183.358 26.294C183.769 26.4433 184.109 26.6533 184.38 26.924L183.988 27.75C183.717 27.4887 183.419 27.2973 183.092 27.176C182.775 27.0547 182.471 26.994 182.182 26.994C181.473 26.994 180.927 27.218 180.544 27.666C180.161 28.1047 179.97 28.7393 179.97 29.57C179.97 30.382 180.161 31.026 180.544 31.502C180.927 31.9687 181.473 32.202 182.182 32.202C182.471 32.202 182.775 32.1413 183.092 32.02C183.419 31.8987 183.717 31.7027 183.988 31.432L184.38 32.258C184.109 32.5287 183.764 32.7433 183.344 32.902C182.933 33.0513 182.523 33.126 182.112 33.126ZM185.709 33V23.13H186.843V27.708H186.661C186.857 27.1667 187.174 26.7607 187.613 26.49C188.061 26.21 188.574 26.07 189.153 26.07C189.694 26.07 190.142 26.168 190.497 26.364C190.861 26.56 191.131 26.8587 191.309 27.26C191.486 27.652 191.575 28.1513 191.575 28.758V33H190.441V28.828C190.441 28.408 190.385 28.0627 190.273 27.792C190.17 27.5213 190.002 27.3207 189.769 27.19C189.545 27.0593 189.251 26.994 188.887 26.994C188.476 26.994 188.117 27.0827 187.809 27.26C187.501 27.4373 187.263 27.6847 187.095 28.002C186.927 28.3193 186.843 28.6927 186.843 29.122V33H185.709Z" fill="#15191F"/>
<path d="M81.044 50V41.54H84.428C85.292 41.54 85.964 41.732 86.444 42.116C86.924 42.5 87.164 43.044 87.164 43.748C87.164 44.276 87.008 44.716 86.696 45.068C86.392 45.42 85.976 45.652 85.448 45.764V45.596C85.848 45.644 86.192 45.76 86.48 45.944C86.768 46.12 86.988 46.356 87.14 46.652C87.292 46.94 87.368 47.28 87.368 47.672C87.368 48.176 87.256 48.604 87.032 48.956C86.816 49.3 86.5 49.56 86.084 49.736C85.668 49.912 85.164 50 84.572 50H81.044ZM82.004 49.208H84.476C84.732 49.208 84.96 49.188 85.16 49.148C85.368 49.108 85.548 49.048 85.7 48.968C85.852 48.88 85.98 48.776 86.084 48.656C86.188 48.536 86.264 48.392 86.312 48.224C86.368 48.056 86.396 47.868 86.396 47.66C86.396 47.444 86.368 47.256 86.312 47.096C86.264 46.928 86.188 46.784 86.084 46.664C85.98 46.536 85.852 46.432 85.7 46.352C85.548 46.272 85.368 46.212 85.16 46.172C84.96 46.132 84.732 46.112 84.476 46.112H82.004V49.208ZM82.004 45.32H84.284C84.908 45.32 85.38 45.192 85.7 44.936C86.028 44.68 86.192 44.312 86.192 43.832C86.192 43.336 86.028 42.964 85.7 42.716C85.38 42.46 84.908 42.332 84.284 42.332H82.004V45.32ZM91.6494 50.108C91.0334 50.108 90.5014 49.988 90.0534 49.748C89.6134 49.5 89.2694 49.152 89.0214 48.704C88.7814 48.256 88.6614 47.72 88.6614 47.096C88.6614 46.488 88.7814 45.96 89.0214 45.512C89.2614 45.056 89.5894 44.7 90.0054 44.444C90.4294 44.188 90.9174 44.06 91.4694 44.06C91.9974 44.06 92.4494 44.176 92.8254 44.408C93.2014 44.64 93.4894 44.968 93.6894 45.392C93.8974 45.816 94.0014 46.324 94.0014 46.916V47.288H89.4054V46.652H93.3534L93.1614 46.808C93.1614 46.168 93.0174 45.672 92.7294 45.32C92.4494 44.96 92.0374 44.78 91.4934 44.78C91.0854 44.78 90.7374 44.876 90.4494 45.068C90.1694 45.252 89.9574 45.512 89.8134 45.848C89.6694 46.176 89.5974 46.56 89.5974 47V47.072C89.5974 47.56 89.6734 47.972 89.8254 48.308C89.9854 48.644 90.2214 48.9 90.5334 49.076C90.8454 49.244 91.2174 49.328 91.6494 49.328C91.9934 49.328 92.3254 49.276 92.6454 49.172C92.9734 49.06 93.2814 48.88 93.5694 48.632L93.9054 49.316C93.6414 49.556 93.3054 49.748 92.8974 49.892C92.4894 50.036 92.0734 50.108 91.6494 50.108ZM97.9881 52.268C97.4841 52.268 97.0081 52.2 96.5601 52.064C96.1201 51.936 95.7281 51.74 95.3841 51.476L95.7081 50.768C95.9481 50.936 96.1841 51.072 96.4161 51.176C96.6561 51.288 96.9001 51.368 97.1481 51.416C97.4041 51.464 97.6681 51.488 97.9401 51.488C98.5081 51.488 98.9361 51.336 99.2241 51.032C99.5201 50.728 99.6681 50.288 99.6681 49.712V48.356H99.7881C99.6681 48.82 99.4121 49.188 99.0201 49.46C98.6361 49.732 98.1841 49.868 97.6641 49.868C97.1281 49.868 96.6641 49.748 96.2721 49.508C95.8801 49.26 95.5761 48.916 95.3601 48.476C95.1521 48.036 95.0481 47.528 95.0481 46.952C95.0481 46.376 95.1521 45.872 95.3601 45.44C95.5761 45 95.8801 44.66 96.2721 44.42C96.6641 44.18 97.1281 44.06 97.6641 44.06C98.1921 44.06 98.6481 44.196 99.0321 44.468C99.4161 44.732 99.6641 45.092 99.7761 45.548H99.6681V44.168H100.616V49.58C100.616 50.172 100.516 50.668 100.316 51.068C100.124 51.468 99.8321 51.768 99.4401 51.968C99.0481 52.168 98.5641 52.268 97.9881 52.268ZM97.8441 49.076C98.4041 49.076 98.8481 48.884 99.1761 48.5C99.5041 48.116 99.6681 47.6 99.6681 46.952C99.6681 46.304 99.5041 45.792 99.1761 45.416C98.8481 45.032 98.4041 44.84 97.8441 44.84C97.2921 44.84 96.8521 45.032 96.5241 45.416C96.1961 45.792 96.0321 46.304 96.0321 46.952C96.0321 47.6 96.1961 48.116 96.5241 48.5C96.8521 48.884 97.2921 49.076 97.8441 49.076ZM102.319 42.716V41.624H103.519V42.716H102.319ZM102.439 50V44.168H103.411V50H102.439ZM105.228 50V44.168H106.176V45.464H106.044C106.212 45 106.484 44.652 106.86 44.42C107.244 44.18 107.684 44.06 108.18 44.06C108.644 44.06 109.028 44.144 109.332 44.312C109.644 44.472 109.876 44.724 110.028 45.068C110.18 45.412 110.256 45.844 110.256 46.364V50H109.284V46.424C109.284 46.064 109.236 45.768 109.14 45.536C109.052 45.304 108.908 45.132 108.708 45.02C108.516 44.908 108.264 44.852 107.952 44.852C107.6 44.852 107.292 44.928 107.028 45.08C106.764 45.232 106.56 45.444 106.416 45.716C106.272 45.988 106.2 46.308 106.2 46.676V50H105.228ZM116.679 50L114.507 44.168H115.527L117.315 49.28H117.027L118.875 44.168H119.703L121.515 49.28H121.239L123.051 44.168H124.023L121.839 50H120.915L119.007 44.756H119.523L117.615 50H116.679ZM125.101 42.716V41.624H126.301V42.716H125.101ZM125.221 50V44.168H126.193V50H125.221ZM130.35 50.108C129.662 50.108 129.146 49.924 128.802 49.556C128.458 49.188 128.286 48.664 128.286 47.984V44.924H127.146V44.168H128.286V42.38H129.258V44.168H131.106V44.924H129.258V47.888C129.258 48.344 129.354 48.692 129.546 48.932C129.738 49.164 130.05 49.28 130.482 49.28C130.61 49.28 130.738 49.264 130.866 49.232C130.994 49.2 131.11 49.168 131.214 49.136L131.382 49.88C131.278 49.936 131.126 49.988 130.926 50.036C130.726 50.084 130.534 50.108 130.35 50.108ZM132.205 50V41.54H133.177V45.464H133.021C133.189 45 133.461 44.652 133.837 44.42C134.221 44.18 134.661 44.06 135.157 44.06C135.621 44.06 136.005 44.144 136.309 44.312C136.621 44.48 136.853 44.736 137.005 45.08C137.157 45.416 137.233 45.844 137.233 46.364V50H136.261V46.424C136.261 46.064 136.213 45.768 136.117 45.536C136.029 45.304 135.885 45.132 135.685 45.02C135.493 44.908 135.241 44.852 134.929 44.852C134.577 44.852 134.269 44.928 134.005 45.08C133.741 45.232 133.537 45.444 133.393 45.716C133.249 45.988 133.177 46.308 133.177 46.676V50H132.205ZM143.943 50.108C143.543 50.108 143.183 50.032 142.863 49.88C142.551 49.72 142.303 49.504 142.119 49.232C141.935 48.96 141.843 48.656 141.843 48.32C141.843 47.888 141.951 47.548 142.167 47.3C142.391 47.052 142.755 46.876 143.259 46.772C143.771 46.668 144.467 46.616 145.347 46.616H145.887V47.252H145.359C144.871 47.252 144.463 47.268 144.135 47.3C143.807 47.332 143.547 47.388 143.355 47.468C143.163 47.548 143.027 47.652 142.947 47.78C142.867 47.908 142.827 48.068 142.827 48.26C142.827 48.588 142.939 48.856 143.163 49.064C143.395 49.272 143.707 49.376 144.099 49.376C144.419 49.376 144.699 49.3 144.939 49.148C145.187 48.996 145.379 48.788 145.515 48.524C145.659 48.26 145.731 47.956 145.731 47.612V46.244C145.731 45.748 145.631 45.392 145.431 45.176C145.231 44.952 144.903 44.84 144.447 44.84C144.095 44.84 143.755 44.892 143.427 44.996C143.099 45.092 142.763 45.252 142.419 45.476L142.083 44.768C142.291 44.624 142.527 44.5 142.791 44.396C143.055 44.284 143.331 44.2 143.619 44.144C143.907 44.088 144.183 44.06 144.447 44.06C144.951 44.06 145.367 44.144 145.695 44.312C146.023 44.472 146.267 44.72 146.427 45.056C146.587 45.384 146.667 45.808 146.667 46.328V50H145.755V48.644H145.863C145.799 48.948 145.675 49.208 145.491 49.424C145.315 49.64 145.095 49.808 144.831 49.928C144.567 50.048 144.271 50.108 143.943 50.108ZM154.505 50.108C153.977 50.108 153.521 49.972 153.137 49.7C152.761 49.428 152.509 49.064 152.381 48.608H152.501V50H151.553V41.54H152.525V45.524H152.381C152.517 45.076 152.773 44.72 153.149 44.456C153.525 44.192 153.977 44.06 154.505 44.06C155.033 44.06 155.489 44.184 155.873 44.432C156.257 44.672 156.553 45.02 156.761 45.476C156.977 45.924 157.085 46.46 157.085 47.084C157.085 47.7 156.977 48.236 156.761 48.692C156.553 49.14 156.253 49.488 155.861 49.736C155.477 49.984 155.025 50.108 154.505 50.108ZM154.301 49.328C154.853 49.328 155.289 49.136 155.609 48.752C155.937 48.36 156.101 47.804 156.101 47.084C156.101 46.356 155.937 45.8 155.609 45.416C155.289 45.032 154.853 44.84 154.301 44.84C153.757 44.84 153.321 45.032 152.993 45.416C152.665 45.8 152.501 46.356 152.501 47.084C152.501 47.804 152.665 48.36 152.993 48.752C153.321 49.136 153.757 49.328 154.301 49.328ZM160.337 50.108C159.745 50.108 159.297 49.932 158.993 49.58C158.697 49.228 158.549 48.724 158.549 48.068V41.54H159.521V47.996C159.521 48.276 159.557 48.512 159.629 48.704C159.709 48.896 159.825 49.04 159.977 49.136C160.129 49.232 160.317 49.28 160.541 49.28C160.637 49.28 160.729 49.276 160.817 49.268C160.913 49.252 161.001 49.232 161.081 49.208L161.057 50.024C160.929 50.048 160.805 50.068 160.685 50.084C160.573 50.1 160.457 50.108 160.337 50.108ZM163.936 50.108C163.536 50.108 163.176 50.032 162.856 49.88C162.544 49.72 162.296 49.504 162.112 49.232C161.928 48.96 161.836 48.656 161.836 48.32C161.836 47.888 161.944 47.548 162.16 47.3C162.384 47.052 162.748 46.876 163.252 46.772C163.764 46.668 164.46 46.616 165.34 46.616H165.88V47.252H165.352C164.864 47.252 164.456 47.268 164.128 47.3C163.8 47.332 163.54 47.388 163.348 47.468C163.156 47.548 163.02 47.652 162.94 47.78C162.86 47.908 162.82 48.068 162.82 48.26C162.82 48.588 162.932 48.856 163.156 49.064C163.388 49.272 163.7 49.376 164.092 49.376C164.412 49.376 164.692 49.3 164.932 49.148C165.18 48.996 165.372 48.788 165.508 48.524C165.652 48.26 165.724 47.956 165.724 47.612V46.244C165.724 45.748 165.624 45.392 165.424 45.176C165.224 44.952 164.896 44.84 164.44 44.84C164.088 44.84 163.748 44.892 163.42 44.996C163.092 45.092 162.756 45.252 162.412 45.476L162.076 44.768C162.284 44.624 162.52 44.5 162.784 44.396C163.048 44.284 163.324 44.2 163.612 44.144C163.9 44.088 164.176 44.06 164.44 44.06C164.944 44.06 165.36 44.144 165.688 44.312C166.016 44.472 166.26 44.72 166.42 45.056C166.58 45.384 166.66 45.808 166.66 46.328V50H165.748V48.644H165.856C165.792 48.948 165.668 49.208 165.484 49.424C165.308 49.64 165.088 49.808 164.824 49.928C164.56 50.048 164.264 50.108 163.936 50.108ZM168.463 50V44.168H169.411V45.464H169.279C169.447 45 169.719 44.652 170.095 44.42C170.479 44.18 170.919 44.06 171.415 44.06C171.879 44.06 172.263 44.144 172.567 44.312C172.879 44.472 173.111 44.724 173.263 45.068C173.415 45.412 173.491 45.844 173.491 46.364V50H172.519V46.424C172.519 46.064 172.471 45.768 172.375 45.536C172.287 45.304 172.143 45.132 171.943 45.02C171.751 44.908 171.499 44.852 171.187 44.852C170.835 44.852 170.527 44.928 170.263 45.08C169.999 45.232 169.795 45.444 169.651 45.716C169.507 45.988 169.435 46.308 169.435 46.676V50H168.463ZM175.283 50V41.54H176.255V46.76H176.279L178.979 44.168H180.215L177.011 47.24V46.712L180.467 50H179.231L176.279 47.264H176.255V50H175.283Z" fill="#667C98"/>
</g>
<path d="M8 0.5H214C218.142 0.5 221.5 3.85786 221.5 8V64C221.5 68.1421 218.142 71.5 214 71.5H8C3.85786 71.5 0.5 68.1421 0.5 64V8C0.5 3.85786 3.85786 0.5 8 0.5Z" stroke="#E0E5EB"/>
<defs>
<filter id="filter0_d_6761_7249" x="1.6" y="-1.4" width="71.8" height="81.8" filterUnits="userSpaceOnUse" color-interpolation-filters="sRGB">
<feFlood flood-opacity="0" result="BackgroundImageFix"/>
<feColorMatrix in="SourceAlpha" type="matrix" values="0 0 0 0 0 0 0 0 0 0 0 0 0 0 0 0 0 0 127 0" result="hardAlpha"/>
<feOffset dx="2" dy="4"/>
<feGaussianBlur stdDeviation="9.7"/>
<feComposite in2="hardAlpha" operator="out"/>
<feColorMatrix type="matrix" values="0 0 0 0 0.47381 0 0 0 0 0.450311 0 0 0 0 0.591309 0 0 0 0.45 0"/>
<feBlend mode="normal" in2="BackgroundImageFix" result="effect1_dropShadow_6761_7249"/>
<feBlend mode="normal" in="SourceGraphic" in2="effect1_dropShadow_6761_7249" result="shape"/>
</filter>
<clipPath id="clip0_6761_7249">
<path d="M0 8C0 3.58172 3.58172 0 8 0H214C218.418 0 222 3.58172 222 8V64C222 68.4183 218.418 72 214 72H8C3.58172 72 0 68.4183 0 64V8Z" fill="white"/>
</clipPath>
</defs>
</svg>
