<svg width="20" height="20" viewBox="0 0 20 20" fill="none" xmlns="http://www.w3.org/2000/svg">
<g filter="url(#filter0_ii_6765_18106)">
<path fill-rule="evenodd" clip-rule="evenodd" d="M5.58333 1.66602C4.29467 1.66602 3.25 2.71068 3.25 3.99935V15.9993C3.25 17.288 4.29467 18.3327 5.58333 18.3327H14.4167C15.7053 18.3327 16.75 17.288 16.75 15.9993V3.99935C16.75 3.99238 16.75 3.98542 16.7499 3.97846V5.83269L12.5832 1.66603H14.4236C14.4213 1.66602 14.419 1.66602 14.4167 1.66602H5.58333Z" fill="#185ABD"/>
</g>
<g filter="url(#filter1_dd_6765_18106)">
<path d="M8.73794 14.1673L9.99294 9.56659H10.0161L11.2634 14.1673H11.964L13.5423 8.64648H12.834L11.6252 13.2782H11.5944L10.3471 8.64648H9.6619L8.4069 13.2782H8.37607L7.16732 8.64648H6.45898L8.03732 14.1673H8.73794Z" fill="white"/>
</g>
<path d="M16.3597 5.44336L12.9746 5.44336L16.7507 9.2194L16.7507 5.83398L16.3597 5.44336Z" fill="url(#paint0_linear_6765_18106)"/>
<path d="M14.9167 5.83398L16.75 5.83398L12.5833 1.66732L12.5833 3.50065C12.5833 4.78931 13.628 5.83398 14.9167 5.83398Z" fill="#7E9BC7"/>
<defs>
<filter id="filter0_ii_6765_18106" x="3.25" y="1.52018" width="13.5" height="16.9577" filterUnits="userSpaceOnUse" color-interpolation-filters="sRGB">
<feFlood flood-opacity="0" result="BackgroundImageFix"/>
<feBlend mode="normal" in="SourceGraphic" in2="BackgroundImageFix" result="shape"/>
<feColorMatrix in="SourceAlpha" type="matrix" values="0 0 0 0 0 0 0 0 0 0 0 0 0 0 0 0 0 0 127 0" result="hardAlpha"/>
<feOffset dy="-0.291667"/>
<feGaussianBlur stdDeviation="0.0729167"/>
<feComposite in2="hardAlpha" operator="arithmetic" k2="-1" k3="1"/>
<feColorMatrix type="matrix" values="0 0 0 0 0 0 0 0 0 0 0 0 0 0 0 0 0 0 0.3 0"/>
<feBlend mode="normal" in2="shape" result="effect1_innerShadow_6765_18106"/>
<feColorMatrix in="SourceAlpha" type="matrix" values="0 0 0 0 0 0 0 0 0 0 0 0 0 0 0 0 0 0 127 0" result="hardAlpha"/>
<feOffset dy="0.291667"/>
<feGaussianBlur stdDeviation="0.0729167"/>
<feComposite in2="hardAlpha" operator="arithmetic" k2="-1" k3="1"/>
<feColorMatrix type="matrix" values="0 0 0 0 1 0 0 0 0 1 0 0 0 0 1 0 0 0 0.3 0"/>
<feBlend mode="normal" in2="effect1_innerShadow_6765_18106" result="effect2_innerShadow_6765_18106"/>
</filter>
<filter id="filter1_dd_6765_18106" x="6.31315" y="8.50065" width="8.39648" height="7.12565" filterUnits="userSpaceOnUse" color-interpolation-filters="sRGB">
<feFlood flood-opacity="0" result="BackgroundImageFix"/>
<feColorMatrix in="SourceAlpha" type="matrix" values="0 0 0 0 0 0 0 0 0 0 0 0 0 0 0 0 0 0 127 0" result="hardAlpha"/>
<feOffset dx="0.583333" dy="0.875"/>
<feGaussianBlur stdDeviation="0.291667"/>
<feColorMatrix type="matrix" values="0 0 0 0 0 0 0 0 0 0 0 0 0 0 0 0 0 0 0.1 0"/>
<feBlend mode="normal" in2="BackgroundImageFix" result="effect1_dropShadow_6765_18106"/>
<feColorMatrix in="SourceAlpha" type="matrix" values="0 0 0 0 0 0 0 0 0 0 0 0 0 0 0 0 0 0 127 0" result="hardAlpha"/>
<feOffset/>
<feGaussianBlur stdDeviation="0.0729167"/>
<feColorMatrix type="matrix" values="0 0 0 0 0 0 0 0 0 0 0 0 0 0 0 0 0 0 0.4 0"/>
<feBlend mode="normal" in2="effect1_dropShadow_6765_18106" result="effect2_dropShadow_6765_18106"/>
<feBlend mode="normal" in="SourceGraphic" in2="effect2_dropShadow_6765_18106" result="shape"/>
</filter>
<linearGradient id="paint0_linear_6765_18106" x1="13.821" y1="4.59701" x2="17.597" y2="8.37305" gradientUnits="userSpaceOnUse">
<stop stop-opacity="0.26"/>
<stop offset="1" stop-opacity="0"/>
</linearGradient>
</defs>
</svg>
