<svg preserveAspectRatio="none" width="100%" height="100%" overflow="visible" style="display: block;" viewBox="0 0 17.5 20" fill="none" xmlns="http://www.w3.org/2000/svg">
<g id="xmark-large-light 1" clip-path="url(#clip0_0_261)">
<path id="Vector" d="M16.4336 1.43359C16.6758 1.19141 17.0742 1.19141 17.3164 1.43359C17.5586 1.67578 17.5586 2.07422 17.3164 2.31641L9.63281 10L17.3164 17.6836C17.5586 17.9258 17.5586 18.3242 17.3164 18.5664C17.0742 18.8086 16.6758 18.8086 16.4336 18.5664L8.75 10.8828L1.06641 18.5664C0.824219 18.8086 0.425781 18.8086 0.183594 18.5664C-0.0585938 18.3242 -0.0585938 17.9258 0.183594 17.6836L7.86719 10L0.183594 2.31641C-0.0585938 2.07422 -0.0585938 1.67578 0.183594 1.43359C0.425781 1.19141 0.824219 1.19141 1.06641 1.43359L8.75 9.11719L16.4336 1.43359Z" fill="var(--fill-0, #52637A)"/>
</g>
<defs>
<clipPath id="clip0_0_261">
<rect width="17.5" height="20" fill="white"/>
</clipPath>
</defs>
</svg>
