<svg preserveAspectRatio="none" width="100%" height="100%" overflow="visible" style="display: block;" viewBox="0 0 33 43.0001" fill="none" xmlns="http://www.w3.org/2000/svg">
<g id="Group 1351">
<path id="Vector" d="M33 40.354C33 41.8154 31.8181 43.0001 30.3601 43.0001H2.63995C1.18196 43.0001 3.1139e-05 41.8154 2.99772e-05 40.354L0 2.6462C-1.16178e-06 1.18482 1.18193 0.000128434 2.63992 0.000128434L23.1 0.000128434L33 9.09627V40.354Z" fill="var(--fill-0, white)"/>
<path id="Vector_2" d="M33 9.09614H23.1V0L33 9.09614Z" fill="var(--fill-0, #949AA2)" fill-opacity="0.1"/>
<g id="Group 1352" opacity="0.1">
<path id="Vector_3" d="M5.06277 32.3322C5.06277 31.8755 5.43299 31.5052 5.88969 31.5052L27.3359 31.5052C27.7926 31.5052 28.1628 31.8755 28.1628 32.3322C28.1628 32.7889 27.7926 33.1591 27.3359 33.1591L5.88969 33.1591C5.43299 33.1591 5.06277 32.7889 5.06277 32.3322Z" fill="var(--fill-0, #52637A)"/>
<path id="Vector_4" d="M5.06277 28.5417C5.06277 28.085 5.43299 27.7148 5.88969 27.7148L27.3359 27.7148C27.7926 27.7148 28.1628 28.085 28.1628 28.5417C28.1628 28.9984 27.7926 29.3686 27.3359 29.3686L5.88969 29.3686C5.43299 29.3686 5.06277 28.9984 5.06277 28.5417Z" fill="var(--fill-0, #52637A)"/>
<path id="Vector_5" d="M5.06277 24.7512C5.06277 24.2945 5.43299 23.9243 5.88969 23.9243L27.3359 23.9243C27.7926 23.9243 28.1628 24.2945 28.1628 24.7512C28.1628 25.2079 27.7926 25.5781 27.3359 25.5781L5.88969 25.5781C5.43299 25.5781 5.06277 25.2079 5.06277 24.7512Z" fill="var(--fill-0, #52637A)"/>
<path id="Vector_6" d="M5.06277 20.9607C5.06277 20.504 5.43299 20.1338 5.88969 20.1338L27.3359 20.1338C27.7926 20.1338 28.1628 20.504 28.1628 20.9607C28.1628 21.4174 27.7926 21.7876 27.3359 21.7876L5.88969 21.7876C5.43299 21.7876 5.06277 21.4174 5.06277 20.9607Z" fill="var(--fill-0, #52637A)"/>
<path id="Vector_7" d="M5.06277 17.1702C5.06277 16.7135 5.43299 16.3433 5.88969 16.3433L27.3359 16.3433C27.7926 16.3433 28.1628 16.7135 28.1628 17.1702C28.1628 17.6269 27.7926 17.9971 27.3359 17.9971L5.88969 17.9971C5.43299 17.9971 5.06277 17.6269 5.06277 17.1702Z" fill="var(--fill-0, #52637A)"/>
<path id="Vector_8" d="M5.06277 13.3797C5.06277 12.923 5.43299 12.5528 5.88969 12.5528L27.3359 12.5528C27.7926 12.5528 28.1628 12.923 28.1628 13.3797C28.1628 13.8364 27.7926 14.2066 27.3359 14.2066L5.88969 14.2066C5.43299 14.2066 5.06277 13.8364 5.06277 13.3797Z" fill="var(--fill-0, #52637A)"/>
<path id="Vector_9" d="M5.00074 35.827C5.00074 35.3703 5.37097 35.0001 5.82766 35.0001H18.1988C18.6555 35.0001 19.0258 35.3703 19.0258 35.827C19.0258 36.2837 18.6555 36.6539 18.1988 36.6539H5.82767C5.37097 36.6539 5.00074 36.2837 5.00074 35.827Z" fill="var(--fill-0, #52637A)"/>
</g>
<path id="Vector_10" d="M23.0998 9.09607L32.9999 19.0191V9.09607H23.0998Z" fill="var(--fill-0, #FAFAFA)"/>
</g>
</svg>
