<svg preserveAspectRatio="none" width="100%" height="100%" overflow="visible" style="display: block;" viewBox="0 0 14 9.89968" fill="none" xmlns="http://www.w3.org/2000/svg">
<path id="Vector" d="M13.1505 4.94984C14.2832 3.81715 14.2832 1.9822 13.1505 0.849515C12.0178 -0.283172 10.1828 -0.283172 9.05016 0.849515L8.53819 1.36149C8.39773 1.50194 8.39773 1.73301 8.53819 1.87346C8.67864 2.01392 8.90971 2.01392 9.05016 1.87346L9.56214 1.36149C10.4117 0.511974 11.789 0.511974 12.6385 1.36149C13.488 2.211 13.488 3.58835 12.6385 4.43786L9.81586 7.25825C8.96861 8.1055 7.59353 8.1055 6.74401 7.25825C5.93754 6.45178 5.89223 5.16052 6.63754 4.29968L6.7576 4.16149C6.889 4.00971 6.87314 3.78091 6.72136 3.64951C6.56958 3.51812 6.34078 3.53398 6.20939 3.68576L6.08932 3.82395C5.09482 4.97249 5.15599 6.69418 6.22977 7.76796C7.36019 8.89838 9.19515 8.89838 10.3256 7.76796L13.1505 4.94984ZM0.849515 4.94984C-0.283172 6.08252 -0.283172 7.91748 0.849515 9.05016C1.9822 10.1828 3.81715 10.1828 4.94984 9.05016L5.46181 8.53819C5.60227 8.39774 5.60227 8.16667 5.46181 8.02621C5.32136 7.88576 5.09029 7.88576 4.94984 8.02621L4.43786 8.53819C3.58835 9.3877 2.211 9.3877 1.36149 8.53819C0.511974 7.68867 0.511974 6.31133 1.36149 5.46181L4.18414 2.64142C5.03139 1.79417 6.40647 1.79417 7.25599 2.64142C8.06246 3.4479 8.10777 4.73916 7.36246 5.6L7.24239 5.73819C7.111 5.88997 7.12686 6.11877 7.27864 6.25016C7.43042 6.38155 7.65922 6.3657 7.79061 6.21392L7.91068 6.07573C8.90518 4.92719 8.84401 3.2055 7.77023 2.13172C6.63527 0.996764 4.80259 0.996764 3.6699 2.12718L0.849515 4.94984Z" fill="var(--fill-0, #001633)"/>
</svg>
