<svg preserveAspectRatio="none" width="100%" height="100%" overflow="visible" style="display: block;" viewBox="0 0 11.25 15" fill="none" xmlns="http://www.w3.org/2000/svg">
<g id="microphone-light (1) 1">
<path id="Vector" d="M7.5 2.8125V7.5C7.5 8.53418 6.65918 9.375 5.625 9.375C4.59082 9.375 3.75 8.53418 3.75 7.5V2.8125C3.75 1.77832 4.59082 0.9375 5.625 0.9375C6.65918 0.9375 7.5 1.77832 7.5 2.8125ZM2.8125 2.8125V7.5C2.8125 9.05273 4.07227 10.3125 5.625 10.3125C7.17773 10.3125 8.4375 9.05273 8.4375 7.5V2.8125C8.4375 1.25977 7.17773 0 5.625 0C4.07227 0 2.8125 1.25977 2.8125 2.8125ZM1.875 6.09375C1.875 5.83594 1.66406 5.625 1.40625 5.625C1.14844 5.625 0.9375 5.83594 0.9375 6.09375V7.5C0.9375 9.93164 2.78613 11.9297 5.15625 12.1641V14.0625H3.28125C3.02344 14.0625 2.8125 14.2734 2.8125 14.5312C2.8125 14.7891 3.02344 15 3.28125 15H5.625H7.96875C8.22656 15 8.4375 14.7891 8.4375 14.5312C8.4375 14.2734 8.22656 14.0625 7.96875 14.0625H6.09375V12.1641C8.46387 11.9297 10.3125 9.93164 10.3125 7.5V6.09375C10.3125 5.83594 10.1016 5.625 9.84375 5.625C9.58594 5.625 9.375 5.83594 9.375 6.09375V7.5C9.375 9.57129 7.69629 11.25 5.625 11.25C3.55371 11.25 1.875 9.57129 1.875 7.5V6.09375Z" fill="var(--fill-0, #3D4A5C)"/>
</g>
</svg>
