<svg width="308" height="122" viewBox="0 0 308 122" fill="none" xmlns="http://www.w3.org/2000/svg">
<g filter="url(#filter0_d_6761_7248)">
<g clip-path="url(#clip0_6761_7248)">
<rect x="20" y="30" width="268" height="72" rx="8" fill="white"/>
<rect x="20" y="30" width="72" height="72" fill="white"/>
<g filter="url(#filter1_d_6761_7248)">
<path d="M76 101.739C76 103.54 74.5315 105 72.7201 105H38.2799C36.4685 105 35 103.54 35 101.739L35 55.2614C35 53.4602 36.4685 52 38.2799 52H63.7L76 63.2115V101.739Z" fill="white"/>
<path d="M75.9992 63.2115H63.6992V52L75.9992 63.2115Z" fill="#949AA2" fill-opacity="0.2"/>
<path d="M63.6992 63.2119L75.9992 75.4427V63.2119H63.6992Z" fill="#FAFAFA"/>
</g>
<path d="M104.41 63.126C103.897 63.126 103.411 63.0793 102.954 62.986C102.506 62.8927 102.091 62.762 101.708 62.594C101.335 62.4167 100.994 62.202 100.686 61.95L101.092 61.026C101.409 61.2593 101.731 61.46 102.058 61.628C102.394 61.7867 102.753 61.908 103.136 61.992C103.528 62.0667 103.953 62.104 104.41 62.104C105.25 62.104 105.871 61.95 106.272 61.642C106.683 61.3247 106.888 60.9093 106.888 60.396C106.888 60.1253 106.823 59.892 106.692 59.696C106.571 59.5 106.365 59.332 106.076 59.192C105.796 59.052 105.427 58.9353 104.97 58.842L103.514 58.548C102.637 58.3613 101.979 58.058 101.54 57.638C101.111 57.2087 100.896 56.6393 100.896 55.93C100.896 55.342 101.045 54.8287 101.344 54.39C101.652 53.9513 102.077 53.6107 102.618 53.368C103.169 53.1253 103.794 53.004 104.494 53.004C104.942 53.004 105.367 53.0507 105.768 53.144C106.169 53.2373 106.538 53.3773 106.874 53.564C107.219 53.7413 107.523 53.9607 107.784 54.222L107.378 55.118C106.958 54.7353 106.515 54.46 106.048 54.292C105.581 54.1147 105.059 54.026 104.48 54.026C103.985 54.026 103.556 54.1007 103.192 54.25C102.837 54.3993 102.557 54.6187 102.352 54.908C102.156 55.188 102.058 55.5147 102.058 55.888C102.058 56.336 102.193 56.6907 102.464 56.952C102.744 57.2133 103.197 57.4047 103.822 57.526L105.278 57.834C106.221 58.03 106.916 58.3287 107.364 58.73C107.821 59.122 108.05 59.6587 108.05 60.34C108.05 60.8813 107.901 61.3667 107.602 61.796C107.313 62.216 106.893 62.5427 106.342 62.776C105.801 63.0093 105.157 63.126 104.41 63.126ZM112.38 63.126C111.577 63.126 110.975 62.9113 110.574 62.482C110.173 62.0527 109.972 61.4413 109.972 60.648V57.078H108.642V56.196H109.972V54.11H111.106V56.196H113.262V57.078H111.106V60.536C111.106 61.068 111.218 61.474 111.442 61.754C111.666 62.0247 112.03 62.16 112.534 62.16C112.683 62.16 112.833 62.1413 112.982 62.104C113.131 62.0667 113.267 62.0293 113.388 61.992L113.584 62.86C113.463 62.9253 113.285 62.986 113.052 63.042C112.819 63.098 112.595 63.126 112.38 63.126ZM116.686 63.126C116.22 63.126 115.8 63.0373 115.426 62.86C115.062 62.6733 114.773 62.4213 114.558 62.104C114.344 61.7867 114.236 61.432 114.236 61.04C114.236 60.536 114.362 60.1393 114.614 59.85C114.876 59.5607 115.3 59.3553 115.888 59.234C116.486 59.1127 117.298 59.052 118.324 59.052H118.954V59.794H118.338C117.769 59.794 117.293 59.8127 116.91 59.85C116.528 59.8873 116.224 59.9527 116 60.046C115.776 60.1393 115.618 60.2607 115.524 60.41C115.431 60.5593 115.384 60.746 115.384 60.97C115.384 61.3527 115.515 61.6653 115.776 61.908C116.047 62.1507 116.411 62.272 116.868 62.272C117.242 62.272 117.568 62.1833 117.848 62.006C118.138 61.8287 118.362 61.586 118.52 61.278C118.688 60.97 118.772 60.6153 118.772 60.214V58.618C118.772 58.0393 118.656 57.624 118.422 57.372C118.189 57.1107 117.806 56.98 117.274 56.98C116.864 56.98 116.467 57.0407 116.084 57.162C115.702 57.274 115.31 57.4607 114.908 57.722L114.516 56.896C114.759 56.728 115.034 56.5833 115.342 56.462C115.65 56.3313 115.972 56.2333 116.308 56.168C116.644 56.1027 116.966 56.07 117.274 56.07C117.862 56.07 118.348 56.168 118.73 56.364C119.113 56.5507 119.398 56.84 119.584 57.232C119.771 57.6147 119.864 58.1093 119.864 58.716V63H118.8V61.418H118.926C118.852 61.7727 118.707 62.076 118.492 62.328C118.287 62.58 118.03 62.776 117.722 62.916C117.414 63.056 117.069 63.126 116.686 63.126ZM121.968 63V56.196H123.074V57.806H122.934C123.093 57.2553 123.368 56.84 123.76 56.56C124.152 56.2707 124.67 56.1027 125.314 56.056L125.72 56.014L125.804 56.994L125.09 57.078C124.456 57.134 123.966 57.3393 123.62 57.694C123.284 58.0393 123.116 58.5153 123.116 59.122V63H121.968ZM130.085 63.126C129.282 63.126 128.68 62.9113 128.279 62.482C127.878 62.0527 127.677 61.4413 127.677 60.648V57.078H126.347V56.196H127.677V54.11H128.811V56.196H130.967V57.078H128.811V60.536C128.811 61.068 128.923 61.474 129.147 61.754C129.371 62.0247 129.735 62.16 130.239 62.16C130.388 62.16 130.538 62.1413 130.687 62.104C130.836 62.0667 130.972 62.0293 131.093 61.992L131.289 62.86C131.168 62.9253 130.99 62.986 130.757 63.042C130.524 63.098 130.3 63.126 130.085 63.126ZM136.209 63V57.078H134.865V56.196H136.517L136.209 56.49V55.958C136.209 55.0527 136.433 54.3667 136.881 53.9C137.339 53.4333 138.039 53.172 138.981 53.116L139.527 53.088L139.625 53.956L138.981 53.998C138.599 54.026 138.286 54.11 138.043 54.25C137.801 54.39 137.623 54.5907 137.511 54.852C137.399 55.1133 137.343 55.4353 137.343 55.818V56.406L137.175 56.196H139.303V57.078H137.343V63H136.209ZM140.507 63V56.196H141.613V57.806H141.473C141.632 57.2553 141.907 56.84 142.299 56.56C142.691 56.2707 143.209 56.1027 143.853 56.056L144.259 56.014L144.343 56.994L143.629 57.078C142.995 57.134 142.505 57.3393 142.159 57.694C141.823 58.0393 141.655 58.5153 141.655 59.122V63H140.507ZM148.271 63.126C147.608 63.126 147.034 62.9813 146.549 62.692C146.064 62.4027 145.686 61.9967 145.415 61.474C145.154 60.942 145.023 60.3167 145.023 59.598C145.023 58.8793 145.154 58.2587 145.415 57.736C145.686 57.204 146.064 56.7933 146.549 56.504C147.034 56.2147 147.608 56.07 148.271 56.07C148.934 56.07 149.508 56.2147 149.993 56.504C150.478 56.7933 150.852 57.204 151.113 57.736C151.384 58.2587 151.519 58.8793 151.519 59.598C151.519 60.3167 151.384 60.942 151.113 61.474C150.852 61.9967 150.478 62.4027 149.993 62.692C149.508 62.9813 148.934 63.126 148.271 63.126ZM148.271 62.216C148.915 62.216 149.424 61.992 149.797 61.544C150.18 61.0867 150.371 60.4333 150.371 59.584C150.371 58.744 150.18 58.1 149.797 57.652C149.424 57.204 148.915 56.98 148.271 56.98C147.636 56.98 147.128 57.204 146.745 57.652C146.362 58.1 146.171 58.744 146.171 59.584C146.171 60.4333 146.362 61.0867 146.745 61.544C147.128 61.992 147.636 62.216 148.271 62.216ZM153.25 63V56.196H154.356V57.708H154.202C154.314 57.3627 154.478 57.0687 154.692 56.826C154.916 56.574 155.178 56.3873 155.476 56.266C155.784 56.1353 156.12 56.07 156.484 56.07C157.063 56.07 157.53 56.21 157.884 56.49C158.248 56.7607 158.491 57.1853 158.612 57.764H158.402C158.57 57.2413 158.869 56.8307 159.298 56.532C159.737 56.224 160.246 56.07 160.824 56.07C161.338 56.07 161.758 56.168 162.084 56.364C162.42 56.56 162.672 56.8587 162.84 57.26C163.008 57.652 163.092 58.1513 163.092 58.758V63H161.958V58.814C161.958 58.1887 161.851 57.7313 161.636 57.442C161.422 57.1433 161.058 56.994 160.544 56.994C160.18 56.994 159.858 57.0827 159.578 57.26C159.308 57.4373 159.098 57.6893 158.948 58.016C158.808 58.3333 158.738 58.7113 158.738 59.15V63H157.604V58.814C157.604 58.1887 157.492 57.7313 157.268 57.442C157.054 57.1433 156.694 56.994 156.19 56.994C155.817 56.994 155.495 57.0827 155.224 57.26C154.954 57.4373 154.744 57.6893 154.594 58.016C154.454 58.3333 154.384 58.7113 154.384 59.15V63H153.25ZM171.104 63.126C170.749 63.126 170.404 63.0887 170.068 63.014C169.741 62.9487 169.433 62.8553 169.144 62.734C168.864 62.6033 168.621 62.4493 168.416 62.272L168.78 61.474C169.004 61.6513 169.247 61.8007 169.508 61.922C169.769 62.034 170.035 62.118 170.306 62.174C170.577 62.23 170.852 62.258 171.132 62.258C171.664 62.258 172.065 62.16 172.336 61.964C172.607 61.768 172.742 61.502 172.742 61.166C172.742 60.9047 172.653 60.6993 172.476 60.55C172.299 60.3913 172.019 60.27 171.636 60.186L170.362 59.906C169.774 59.7847 169.335 59.5747 169.046 59.276C168.766 58.9773 168.626 58.59 168.626 58.114C168.626 57.694 168.733 57.3347 168.948 57.036C169.172 56.728 169.485 56.49 169.886 56.322C170.287 56.154 170.754 56.07 171.286 56.07C171.603 56.07 171.907 56.1027 172.196 56.168C172.485 56.2333 172.756 56.3313 173.008 56.462C173.269 56.5833 173.493 56.7373 173.68 56.924L173.302 57.722C173.125 57.554 172.924 57.414 172.7 57.302C172.476 57.1807 172.243 57.092 172 57.036C171.767 56.9707 171.529 56.938 171.286 56.938C170.763 56.938 170.367 57.0407 170.096 57.246C169.825 57.4513 169.69 57.722 169.69 58.058C169.69 58.3193 169.774 58.534 169.942 58.702C170.11 58.87 170.371 58.9913 170.726 59.066L172 59.332C172.607 59.4627 173.059 59.6727 173.358 59.962C173.666 60.242 173.82 60.6247 173.82 61.11C173.82 61.5207 173.708 61.88 173.484 62.188C173.26 62.4867 172.943 62.72 172.532 62.888C172.131 63.0467 171.655 63.126 171.104 63.126ZM178.432 63.126C177.751 63.126 177.163 62.9767 176.668 62.678C176.174 62.3793 175.791 61.964 175.52 61.432C175.259 60.8907 175.128 60.2653 175.128 59.556C175.128 58.8373 175.259 58.2167 175.52 57.694C175.791 57.1713 176.174 56.77 176.668 56.49C177.163 56.21 177.751 56.07 178.432 56.07C178.852 56.07 179.268 56.1447 179.678 56.294C180.089 56.4433 180.43 56.6533 180.7 56.924L180.308 57.75C180.038 57.4887 179.739 57.2973 179.412 57.176C179.095 57.0547 178.792 56.994 178.502 56.994C177.793 56.994 177.247 57.218 176.864 57.666C176.482 58.1047 176.29 58.7393 176.29 59.57C176.29 60.382 176.482 61.026 176.864 61.502C177.247 61.9687 177.793 62.202 178.502 62.202C178.792 62.202 179.095 62.1413 179.412 62.02C179.739 61.8987 180.038 61.7027 180.308 61.432L180.7 62.258C180.43 62.5287 180.084 62.7433 179.664 62.902C179.254 63.0513 178.843 63.126 178.432 63.126ZM182.029 63V56.196H183.135V57.806H182.995C183.154 57.2553 183.429 56.84 183.821 56.56C184.213 56.2707 184.731 56.1027 185.375 56.056L185.781 56.014L185.865 56.994L185.151 57.078C184.516 57.134 184.026 57.3393 183.681 57.694C183.345 58.0393 183.177 58.5153 183.177 59.122V63H182.029ZM189.12 63.126C188.653 63.126 188.233 63.0373 187.86 62.86C187.496 62.6733 187.207 62.4213 186.992 62.104C186.777 61.7867 186.67 61.432 186.67 61.04C186.67 60.536 186.796 60.1393 187.048 59.85C187.309 59.5607 187.734 59.3553 188.322 59.234C188.919 59.1127 189.731 59.052 190.758 59.052H191.388V59.794H190.772C190.203 59.794 189.727 59.8127 189.344 59.85C188.961 59.8873 188.658 59.9527 188.434 60.046C188.21 60.1393 188.051 60.2607 187.958 60.41C187.865 60.5593 187.818 60.746 187.818 60.97C187.818 61.3527 187.949 61.6653 188.21 61.908C188.481 62.1507 188.845 62.272 189.302 62.272C189.675 62.272 190.002 62.1833 190.282 62.006C190.571 61.8287 190.795 61.586 190.954 61.278C191.122 60.97 191.206 60.6153 191.206 60.214V58.618C191.206 58.0393 191.089 57.624 190.856 57.372C190.623 57.1107 190.24 56.98 189.708 56.98C189.297 56.98 188.901 57.0407 188.518 57.162C188.135 57.274 187.743 57.4607 187.342 57.722L186.95 56.896C187.193 56.728 187.468 56.5833 187.776 56.462C188.084 56.3313 188.406 56.2333 188.742 56.168C189.078 56.1027 189.4 56.07 189.708 56.07C190.296 56.07 190.781 56.168 191.164 56.364C191.547 56.5507 191.831 56.84 192.018 57.232C192.205 57.6147 192.298 58.1093 192.298 58.716V63H191.234V61.418H191.36C191.285 61.7727 191.141 62.076 190.926 62.328C190.721 62.58 190.464 62.776 190.156 62.916C189.848 63.056 189.503 63.126 189.12 63.126ZM197.132 63.126C196.329 63.126 195.727 62.9113 195.326 62.482C194.925 62.0527 194.724 61.4413 194.724 60.648V57.078H193.394V56.196H194.724V54.11H195.858V56.196H198.014V57.078H195.858V60.536C195.858 61.068 195.97 61.474 196.194 61.754C196.418 62.0247 196.782 62.16 197.286 62.16C197.435 62.16 197.585 62.1413 197.734 62.104C197.883 62.0667 198.019 62.0293 198.14 61.992L198.336 62.86C198.215 62.9253 198.037 62.986 197.804 63.042C197.571 63.098 197.347 63.126 197.132 63.126ZM202.112 63.126C201.431 63.126 200.843 62.9767 200.348 62.678C199.853 62.3793 199.471 61.964 199.2 61.432C198.939 60.8907 198.808 60.2653 198.808 59.556C198.808 58.8373 198.939 58.2167 199.2 57.694C199.471 57.1713 199.853 56.77 200.348 56.49C200.843 56.21 201.431 56.07 202.112 56.07C202.532 56.07 202.947 56.1447 203.358 56.294C203.769 56.4433 204.109 56.6533 204.38 56.924L203.988 57.75C203.717 57.4887 203.419 57.2973 203.092 57.176C202.775 57.0547 202.471 56.994 202.182 56.994C201.473 56.994 200.927 57.218 200.544 57.666C200.161 58.1047 199.97 58.7393 199.97 59.57C199.97 60.382 200.161 61.026 200.544 61.502C200.927 61.9687 201.473 62.202 202.182 62.202C202.471 62.202 202.775 62.1413 203.092 62.02C203.419 61.8987 203.717 61.7027 203.988 61.432L204.38 62.258C204.109 62.5287 203.764 62.7433 203.344 62.902C202.933 63.0513 202.523 63.126 202.112 63.126ZM205.709 63V53.13H206.843V57.708H206.661C206.857 57.1667 207.174 56.7607 207.613 56.49C208.061 56.21 208.574 56.07 209.153 56.07C209.694 56.07 210.142 56.168 210.497 56.364C210.861 56.56 211.131 56.8587 211.309 57.26C211.486 57.652 211.575 58.1513 211.575 58.758V63H210.441V58.828C210.441 58.408 210.385 58.0627 210.273 57.792C210.17 57.5213 210.002 57.3207 209.769 57.19C209.545 57.0593 209.251 56.994 208.887 56.994C208.476 56.994 208.117 57.0827 207.809 57.26C207.501 57.4373 207.263 57.6847 207.095 58.002C206.927 58.3193 206.843 58.6927 206.843 59.122V63H205.709Z" fill="#15191F"/>
<path d="M101.044 80V71.54H104.428C105.292 71.54 105.964 71.732 106.444 72.116C106.924 72.5 107.164 73.044 107.164 73.748C107.164 74.276 107.008 74.716 106.696 75.068C106.392 75.42 105.976 75.652 105.448 75.764V75.596C105.848 75.644 106.192 75.76 106.48 75.944C106.768 76.12 106.988 76.356 107.14 76.652C107.292 76.94 107.368 77.28 107.368 77.672C107.368 78.176 107.256 78.604 107.032 78.956C106.816 79.3 106.5 79.56 106.084 79.736C105.668 79.912 105.164 80 104.572 80H101.044ZM102.004 79.208H104.476C104.732 79.208 104.96 79.188 105.16 79.148C105.368 79.108 105.548 79.048 105.7 78.968C105.852 78.88 105.98 78.776 106.084 78.656C106.188 78.536 106.264 78.392 106.312 78.224C106.368 78.056 106.396 77.868 106.396 77.66C106.396 77.444 106.368 77.256 106.312 77.096C106.264 76.928 106.188 76.784 106.084 76.664C105.98 76.536 105.852 76.432 105.7 76.352C105.548 76.272 105.368 76.212 105.16 76.172C104.96 76.132 104.732 76.112 104.476 76.112H102.004V79.208ZM102.004 75.32H104.284C104.908 75.32 105.38 75.192 105.7 74.936C106.028 74.68 106.192 74.312 106.192 73.832C106.192 73.336 106.028 72.964 105.7 72.716C105.38 72.46 104.908 72.332 104.284 72.332H102.004V75.32ZM111.649 80.108C111.033 80.108 110.501 79.988 110.053 79.748C109.613 79.5 109.269 79.152 109.021 78.704C108.781 78.256 108.661 77.72 108.661 77.096C108.661 76.488 108.781 75.96 109.021 75.512C109.261 75.056 109.589 74.7 110.005 74.444C110.429 74.188 110.917 74.06 111.469 74.06C111.997 74.06 112.449 74.176 112.825 74.408C113.201 74.64 113.489 74.968 113.689 75.392C113.897 75.816 114.001 76.324 114.001 76.916V77.288H109.405V76.652H113.353L113.161 76.808C113.161 76.168 113.017 75.672 112.729 75.32C112.449 74.96 112.037 74.78 111.493 74.78C111.085 74.78 110.737 74.876 110.449 75.068C110.169 75.252 109.957 75.512 109.813 75.848C109.669 76.176 109.597 76.56 109.597 77V77.072C109.597 77.56 109.673 77.972 109.825 78.308C109.985 78.644 110.221 78.9 110.533 79.076C110.845 79.244 111.217 79.328 111.649 79.328C111.993 79.328 112.325 79.276 112.645 79.172C112.973 79.06 113.281 78.88 113.569 78.632L113.905 79.316C113.641 79.556 113.305 79.748 112.897 79.892C112.489 80.036 112.073 80.108 111.649 80.108ZM117.988 82.268C117.484 82.268 117.008 82.2 116.56 82.064C116.12 81.936 115.728 81.74 115.384 81.476L115.708 80.768C115.948 80.936 116.184 81.072 116.416 81.176C116.656 81.288 116.9 81.368 117.148 81.416C117.404 81.464 117.668 81.488 117.94 81.488C118.508 81.488 118.936 81.336 119.224 81.032C119.52 80.728 119.668 80.288 119.668 79.712V78.356H119.788C119.668 78.82 119.412 79.188 119.02 79.46C118.636 79.732 118.184 79.868 117.664 79.868C117.128 79.868 116.664 79.748 116.272 79.508C115.88 79.26 115.576 78.916 115.36 78.476C115.152 78.036 115.048 77.528 115.048 76.952C115.048 76.376 115.152 75.872 115.36 75.44C115.576 75 115.88 74.66 116.272 74.42C116.664 74.18 117.128 74.06 117.664 74.06C118.192 74.06 118.648 74.196 119.032 74.468C119.416 74.732 119.664 75.092 119.776 75.548H119.668V74.168H120.616V79.58C120.616 80.172 120.516 80.668 120.316 81.068C120.124 81.468 119.832 81.768 119.44 81.968C119.048 82.168 118.564 82.268 117.988 82.268ZM117.844 79.076C118.404 79.076 118.848 78.884 119.176 78.5C119.504 78.116 119.668 77.6 119.668 76.952C119.668 76.304 119.504 75.792 119.176 75.416C118.848 75.032 118.404 74.84 117.844 74.84C117.292 74.84 116.852 75.032 116.524 75.416C116.196 75.792 116.032 76.304 116.032 76.952C116.032 77.6 116.196 78.116 116.524 78.5C116.852 78.884 117.292 79.076 117.844 79.076ZM122.319 72.716V71.624H123.519V72.716H122.319ZM122.439 80V74.168H123.411V80H122.439ZM125.228 80V74.168H126.176V75.464H126.044C126.212 75 126.484 74.652 126.86 74.42C127.244 74.18 127.684 74.06 128.18 74.06C128.644 74.06 129.028 74.144 129.332 74.312C129.644 74.472 129.876 74.724 130.028 75.068C130.18 75.412 130.256 75.844 130.256 76.364V80H129.284V76.424C129.284 76.064 129.236 75.768 129.14 75.536C129.052 75.304 128.908 75.132 128.708 75.02C128.516 74.908 128.264 74.852 127.952 74.852C127.6 74.852 127.292 74.928 127.028 75.08C126.764 75.232 126.56 75.444 126.416 75.716C126.272 75.988 126.2 76.308 126.2 76.676V80H125.228ZM136.679 80L134.507 74.168H135.527L137.315 79.28H137.027L138.875 74.168H139.703L141.515 79.28H141.239L143.051 74.168H144.023L141.839 80H140.915L139.007 74.756H139.523L137.615 80H136.679ZM145.101 72.716V71.624H146.301V72.716H145.101ZM145.221 80V74.168H146.193V80H145.221ZM150.35 80.108C149.662 80.108 149.146 79.924 148.802 79.556C148.458 79.188 148.286 78.664 148.286 77.984V74.924H147.146V74.168H148.286V72.38H149.258V74.168H151.106V74.924H149.258V77.888C149.258 78.344 149.354 78.692 149.546 78.932C149.738 79.164 150.05 79.28 150.482 79.28C150.61 79.28 150.738 79.264 150.866 79.232C150.994 79.2 151.11 79.168 151.214 79.136L151.382 79.88C151.278 79.936 151.126 79.988 150.926 80.036C150.726 80.084 150.534 80.108 150.35 80.108ZM152.205 80V71.54H153.177V75.464H153.021C153.189 75 153.461 74.652 153.837 74.42C154.221 74.18 154.661 74.06 155.157 74.06C155.621 74.06 156.005 74.144 156.309 74.312C156.621 74.48 156.853 74.736 157.005 75.08C157.157 75.416 157.233 75.844 157.233 76.364V80H156.261V76.424C156.261 76.064 156.213 75.768 156.117 75.536C156.029 75.304 155.885 75.132 155.685 75.02C155.493 74.908 155.241 74.852 154.929 74.852C154.577 74.852 154.269 74.928 154.005 75.08C153.741 75.232 153.537 75.444 153.393 75.716C153.249 75.988 153.177 76.308 153.177 76.676V80H152.205ZM163.943 80.108C163.543 80.108 163.183 80.032 162.863 79.88C162.551 79.72 162.303 79.504 162.119 79.232C161.935 78.96 161.843 78.656 161.843 78.32C161.843 77.888 161.951 77.548 162.167 77.3C162.391 77.052 162.755 76.876 163.259 76.772C163.771 76.668 164.467 76.616 165.347 76.616H165.887V77.252H165.359C164.871 77.252 164.463 77.268 164.135 77.3C163.807 77.332 163.547 77.388 163.355 77.468C163.163 77.548 163.027 77.652 162.947 77.78C162.867 77.908 162.827 78.068 162.827 78.26C162.827 78.588 162.939 78.856 163.163 79.064C163.395 79.272 163.707 79.376 164.099 79.376C164.419 79.376 164.699 79.3 164.939 79.148C165.187 78.996 165.379 78.788 165.515 78.524C165.659 78.26 165.731 77.956 165.731 77.612V76.244C165.731 75.748 165.631 75.392 165.431 75.176C165.231 74.952 164.903 74.84 164.447 74.84C164.095 74.84 163.755 74.892 163.427 74.996C163.099 75.092 162.763 75.252 162.419 75.476L162.083 74.768C162.291 74.624 162.527 74.5 162.791 74.396C163.055 74.284 163.331 74.2 163.619 74.144C163.907 74.088 164.183 74.06 164.447 74.06C164.951 74.06 165.367 74.144 165.695 74.312C166.023 74.472 166.267 74.72 166.427 75.056C166.587 75.384 166.667 75.808 166.667 76.328V80H165.755V78.644H165.863C165.799 78.948 165.675 79.208 165.491 79.424C165.315 79.64 165.095 79.808 164.831 79.928C164.567 80.048 164.271 80.108 163.943 80.108ZM174.505 80.108C173.977 80.108 173.521 79.972 173.137 79.7C172.761 79.428 172.509 79.064 172.381 78.608H172.501V80H171.553V71.54H172.525V75.524H172.381C172.517 75.076 172.773 74.72 173.149 74.456C173.525 74.192 173.977 74.06 174.505 74.06C175.033 74.06 175.489 74.184 175.873 74.432C176.257 74.672 176.553 75.02 176.761 75.476C176.977 75.924 177.085 76.46 177.085 77.084C177.085 77.7 176.977 78.236 176.761 78.692C176.553 79.14 176.253 79.488 175.861 79.736C175.477 79.984 175.025 80.108 174.505 80.108ZM174.301 79.328C174.853 79.328 175.289 79.136 175.609 78.752C175.937 78.36 176.101 77.804 176.101 77.084C176.101 76.356 175.937 75.8 175.609 75.416C175.289 75.032 174.853 74.84 174.301 74.84C173.757 74.84 173.321 75.032 172.993 75.416C172.665 75.8 172.501 76.356 172.501 77.084C172.501 77.804 172.665 78.36 172.993 78.752C173.321 79.136 173.757 79.328 174.301 79.328ZM180.337 80.108C179.745 80.108 179.297 79.932 178.993 79.58C178.697 79.228 178.549 78.724 178.549 78.068V71.54H179.521V77.996C179.521 78.276 179.557 78.512 179.629 78.704C179.709 78.896 179.825 79.04 179.977 79.136C180.129 79.232 180.317 79.28 180.541 79.28C180.637 79.28 180.729 79.276 180.817 79.268C180.913 79.252 181.001 79.232 181.081 79.208L181.057 80.024C180.929 80.048 180.805 80.068 180.685 80.084C180.573 80.1 180.457 80.108 180.337 80.108ZM183.936 80.108C183.536 80.108 183.176 80.032 182.856 79.88C182.544 79.72 182.296 79.504 182.112 79.232C181.928 78.96 181.836 78.656 181.836 78.32C181.836 77.888 181.944 77.548 182.16 77.3C182.384 77.052 182.748 76.876 183.252 76.772C183.764 76.668 184.46 76.616 185.34 76.616H185.88V77.252H185.352C184.864 77.252 184.456 77.268 184.128 77.3C183.8 77.332 183.54 77.388 183.348 77.468C183.156 77.548 183.02 77.652 182.94 77.78C182.86 77.908 182.82 78.068 182.82 78.26C182.82 78.588 182.932 78.856 183.156 79.064C183.388 79.272 183.7 79.376 184.092 79.376C184.412 79.376 184.692 79.3 184.932 79.148C185.18 78.996 185.372 78.788 185.508 78.524C185.652 78.26 185.724 77.956 185.724 77.612V76.244C185.724 75.748 185.624 75.392 185.424 75.176C185.224 74.952 184.896 74.84 184.44 74.84C184.088 74.84 183.748 74.892 183.42 74.996C183.092 75.092 182.756 75.252 182.412 75.476L182.076 74.768C182.284 74.624 182.52 74.5 182.784 74.396C183.048 74.284 183.324 74.2 183.612 74.144C183.9 74.088 184.176 74.06 184.44 74.06C184.944 74.06 185.36 74.144 185.688 74.312C186.016 74.472 186.26 74.72 186.42 75.056C186.58 75.384 186.66 75.808 186.66 76.328V80H185.748V78.644H185.856C185.792 78.948 185.668 79.208 185.484 79.424C185.308 79.64 185.088 79.808 184.824 79.928C184.56 80.048 184.264 80.108 183.936 80.108ZM188.463 80V74.168H189.411V75.464H189.279C189.447 75 189.719 74.652 190.095 74.42C190.479 74.18 190.919 74.06 191.415 74.06C191.879 74.06 192.263 74.144 192.567 74.312C192.879 74.472 193.111 74.724 193.263 75.068C193.415 75.412 193.491 75.844 193.491 76.364V80H192.519V76.424C192.519 76.064 192.471 75.768 192.375 75.536C192.287 75.304 192.143 75.132 191.943 75.02C191.751 74.908 191.499 74.852 191.187 74.852C190.835 74.852 190.527 74.928 190.263 75.08C189.999 75.232 189.795 75.444 189.651 75.716C189.507 75.988 189.435 76.308 189.435 76.676V80H188.463ZM195.283 80V71.54H196.255V76.76H196.279L198.979 74.168H200.215L197.011 77.24V76.712L200.467 80H199.231L196.279 77.264H196.255V80H195.283ZM204.389 80V74.168H205.337V75.464H205.205C205.301 75.168 205.441 74.916 205.625 74.708C205.817 74.492 206.041 74.332 206.297 74.228C206.561 74.116 206.849 74.06 207.161 74.06C207.657 74.06 208.057 74.18 208.361 74.42C208.673 74.652 208.881 75.016 208.985 75.512H208.805C208.949 75.064 209.205 74.712 209.573 74.456C209.949 74.192 210.385 74.06 210.881 74.06C211.321 74.06 211.681 74.144 211.961 74.312C212.249 74.48 212.465 74.736 212.609 75.08C212.753 75.416 212.825 75.844 212.825 76.364V80H211.853V76.412C211.853 75.876 211.761 75.484 211.577 75.236C211.393 74.98 211.081 74.852 210.641 74.852C210.329 74.852 210.053 74.928 209.813 75.08C209.581 75.232 209.401 75.448 209.273 75.728C209.153 76 209.093 76.324 209.093 76.7V80H208.121V76.412C208.121 75.876 208.025 75.484 207.833 75.236C207.649 74.98 207.341 74.852 206.909 74.852C206.589 74.852 206.313 74.928 206.081 75.08C205.849 75.232 205.669 75.448 205.541 75.728C205.421 76 205.361 76.324 205.361 76.7V80H204.389ZM216.478 80.108C216.078 80.108 215.718 80.032 215.398 79.88C215.086 79.72 214.838 79.504 214.654 79.232C214.47 78.96 214.378 78.656 214.378 78.32C214.378 77.888 214.486 77.548 214.702 77.3C214.926 77.052 215.29 76.876 215.794 76.772C216.306 76.668 217.002 76.616 217.882 76.616H218.422V77.252H217.894C217.406 77.252 216.998 77.268 216.67 77.3C216.342 77.332 216.082 77.388 215.89 77.468C215.698 77.548 215.562 77.652 215.482 77.78C215.402 77.908 215.362 78.068 215.362 78.26C215.362 78.588 215.474 78.856 215.698 79.064C215.93 79.272 216.242 79.376 216.634 79.376C216.954 79.376 217.234 79.3 217.474 79.148C217.722 78.996 217.914 78.788 218.05 78.524C218.194 78.26 218.266 77.956 218.266 77.612V76.244C218.266 75.748 218.166 75.392 217.966 75.176C217.766 74.952 217.438 74.84 216.982 74.84C216.63 74.84 216.29 74.892 215.962 74.996C215.634 75.092 215.298 75.252 214.954 75.476L214.618 74.768C214.826 74.624 215.062 74.5 215.326 74.396C215.59 74.284 215.866 74.2 216.154 74.144C216.442 74.088 216.718 74.06 216.982 74.06C217.486 74.06 217.902 74.144 218.23 74.312C218.558 74.472 218.802 74.72 218.962 75.056C219.122 75.384 219.202 75.808 219.202 76.328V80H218.29V78.644H218.398C218.334 78.948 218.21 79.208 218.026 79.424C217.85 79.64 217.63 79.808 217.366 79.928C217.102 80.048 216.806 80.108 216.478 80.108ZM221.006 80V74.168H221.954V75.464H221.822C221.99 75 222.262 74.652 222.638 74.42C223.022 74.18 223.462 74.06 223.958 74.06C224.422 74.06 224.806 74.144 225.11 74.312C225.422 74.472 225.654 74.724 225.806 75.068C225.958 75.412 226.034 75.844 226.034 76.364V80H225.062V76.424C225.062 76.064 225.014 75.768 224.918 75.536C224.83 75.304 224.686 75.132 224.486 75.02C224.294 74.908 224.042 74.852 223.73 74.852C223.378 74.852 223.07 74.928 222.806 75.08C222.542 75.232 222.338 75.444 222.194 75.716C222.05 75.988 221.978 76.308 221.978 76.676V80H221.006ZM229.89 80.108C229.418 80.108 229.026 80.024 228.714 79.856C228.41 79.68 228.178 79.42 228.018 79.076C227.866 78.732 227.79 78.304 227.79 77.792V74.168H228.762V77.78C228.762 78.124 228.806 78.412 228.894 78.644C228.99 78.868 229.138 79.036 229.338 79.148C229.538 79.252 229.786 79.304 230.082 79.304C230.418 79.304 230.71 79.228 230.958 79.076C231.206 78.924 231.402 78.712 231.546 78.44C231.69 78.168 231.762 77.848 231.762 77.48V74.168H232.734V80H231.786V78.656H231.942C231.782 79.128 231.518 79.488 231.15 79.736C230.79 79.984 230.37 80.108 229.89 80.108ZM236.521 80.108C236.217 80.108 235.921 80.076 235.633 80.012C235.353 79.956 235.089 79.876 234.841 79.772C234.601 79.66 234.393 79.528 234.217 79.376L234.529 78.692C234.721 78.844 234.929 78.972 235.153 79.076C235.377 79.172 235.605 79.244 235.837 79.292C236.069 79.34 236.305 79.364 236.545 79.364C237.001 79.364 237.345 79.28 237.577 79.112C237.809 78.944 237.925 78.716 237.925 78.428C237.925 78.204 237.849 78.028 237.697 77.9C237.545 77.764 237.305 77.66 236.977 77.588L235.885 77.348C235.381 77.244 235.005 77.064 234.757 76.808C234.517 76.552 234.397 76.22 234.397 75.812C234.397 75.452 234.489 75.144 234.673 74.888C234.865 74.624 235.133 74.42 235.477 74.276C235.821 74.132 236.221 74.06 236.677 74.06C236.949 74.06 237.209 74.088 237.457 74.144C237.705 74.2 237.937 74.284 238.153 74.396C238.377 74.5 238.569 74.632 238.729 74.792L238.405 75.476C238.253 75.332 238.081 75.212 237.889 75.116C237.697 75.012 237.497 74.936 237.289 74.888C237.089 74.832 236.885 74.804 236.677 74.804C236.229 74.804 235.889 74.892 235.657 75.068C235.425 75.244 235.309 75.476 235.309 75.764C235.309 75.988 235.381 76.172 235.525 76.316C235.669 76.46 235.893 76.564 236.197 76.628L237.289 76.856C237.809 76.968 238.197 77.148 238.453 77.396C238.717 77.636 238.849 77.964 238.849 78.38C238.849 78.732 238.753 79.04 238.561 79.304C238.369 79.56 238.097 79.76 237.745 79.904C237.401 80.04 236.993 80.108 236.521 80.108ZM242.802 80.108C242.218 80.108 241.714 79.98 241.29 79.724C240.866 79.468 240.538 79.112 240.306 78.656C240.082 78.192 239.97 77.656 239.97 77.048C239.97 76.432 240.082 75.9 240.306 75.452C240.538 75.004 240.866 74.66 241.29 74.42C241.714 74.18 242.218 74.06 242.802 74.06C243.162 74.06 243.518 74.124 243.87 74.252C244.222 74.38 244.514 74.56 244.746 74.792L244.41 75.5C244.178 75.276 243.922 75.112 243.642 75.008C243.37 74.904 243.11 74.852 242.862 74.852C242.254 74.852 241.786 75.044 241.458 75.428C241.13 75.804 240.966 76.348 240.966 77.06C240.966 77.756 241.13 78.308 241.458 78.716C241.786 79.116 242.254 79.316 242.862 79.316C243.11 79.316 243.37 79.264 243.642 79.16C243.922 79.056 244.178 78.888 244.41 78.656L244.746 79.364C244.514 79.596 244.218 79.78 243.858 79.916C243.506 80.044 243.154 80.108 242.802 80.108ZM245.885 80V74.168H246.833V75.548H246.713C246.849 75.076 247.085 74.72 247.421 74.48C247.757 74.232 248.201 74.088 248.753 74.048L249.101 74.012L249.173 74.852L248.561 74.924C248.017 74.972 247.597 75.148 247.301 75.452C247.013 75.748 246.869 76.156 246.869 76.676V80H245.885ZM250.065 72.716V71.624H251.265V72.716H250.065ZM250.185 80V74.168H251.157V80H250.185ZM252.975 82.16V74.168H253.923V75.548H253.803C253.931 75.092 254.183 74.732 254.559 74.468C254.943 74.196 255.399 74.06 255.927 74.06C256.447 74.06 256.899 74.184 257.283 74.432C257.675 74.672 257.975 75.02 258.183 75.476C258.399 75.924 258.507 76.46 258.507 77.084C258.507 77.7 258.399 78.236 258.183 78.692C257.975 79.14 257.679 79.488 257.295 79.736C256.911 79.984 256.455 80.108 255.927 80.108C255.399 80.108 254.947 79.976 254.571 79.712C254.195 79.44 253.939 79.08 253.803 78.632H253.947V82.16H252.975ZM255.723 79.328C256.275 79.328 256.711 79.136 257.031 78.752C257.359 78.36 257.523 77.804 257.523 77.084C257.523 76.356 257.359 75.8 257.031 75.416C256.711 75.032 256.275 74.84 255.723 74.84C255.179 74.84 254.743 75.032 254.415 75.416C254.087 75.8 253.923 76.356 253.923 77.084C253.923 77.804 254.087 78.36 254.415 78.752C254.743 79.136 255.179 79.328 255.723 79.328ZM262.252 80.108C261.564 80.108 261.048 79.924 260.704 79.556C260.36 79.188 260.188 78.664 260.188 77.984V74.924H259.048V74.168H260.188V72.38H261.16V74.168H263.008V74.924H261.16V77.888C261.16 78.344 261.256 78.692 261.448 78.932C261.64 79.164 261.952 79.28 262.384 79.28C262.512 79.28 262.64 79.264 262.768 79.232C262.896 79.2 263.012 79.168 263.116 79.136L263.284 79.88C263.18 79.936 263.028 79.988 262.828 80.036C262.628 80.084 262.436 80.108 262.252 80.108Z" fill="#667C98"/>
</g>
<rect x="21" y="31" width="266" height="70" rx="7" stroke="white" stroke-width="2"/>
</g>
<defs>
<filter id="filter0_d_6761_7248" x="-12" y="0" width="332" height="136" filterUnits="userSpaceOnUse" color-interpolation-filters="sRGB">
<feFlood flood-opacity="0" result="BackgroundImageFix"/>
<feColorMatrix in="SourceAlpha" type="matrix" values="0 0 0 0 0 0 0 0 0 0 0 0 0 0 0 0 0 0 127 0" result="hardAlpha"/>
<feOffset dy="2"/>
<feGaussianBlur stdDeviation="16"/>
<feComposite in2="hardAlpha" operator="out"/>
<feColorMatrix type="matrix" values="0 0 0 0 0 0 0 0 0 0 0 0 0 0 0 0 0 0 0.08 0"/>
<feBlend mode="normal" in2="BackgroundImageFix" result="effect1_dropShadow_6761_7248"/>
<feBlend mode="normal" in="SourceGraphic" in2="effect1_dropShadow_6761_7248" result="shape"/>
</filter>
<filter id="filter1_d_6761_7248" x="17.6" y="36.6" width="79.8" height="91.8" filterUnits="userSpaceOnUse" color-interpolation-filters="sRGB">
<feFlood flood-opacity="0" result="BackgroundImageFix"/>
<feColorMatrix in="SourceAlpha" type="matrix" values="0 0 0 0 0 0 0 0 0 0 0 0 0 0 0 0 0 0 127 0" result="hardAlpha"/>
<feOffset dx="2" dy="4"/>
<feGaussianBlur stdDeviation="9.7"/>
<feComposite in2="hardAlpha" operator="out"/>
<feColorMatrix type="matrix" values="0 0 0 0 0.47381 0 0 0 0 0.450311 0 0 0 0 0.591309 0 0 0 0.75 0"/>
<feBlend mode="normal" in2="BackgroundImageFix" result="effect1_dropShadow_6761_7248"/>
<feBlend mode="normal" in="SourceGraphic" in2="effect1_dropShadow_6761_7248" result="shape"/>
</filter>
<clipPath id="clip0_6761_7248">
<rect x="20" y="30" width="268" height="72" rx="8" fill="white"/>
</clipPath>
</defs>
</svg>
