<svg width="308" height="126" viewBox="0 0 308 126" fill="none" xmlns="http://www.w3.org/2000/svg">
<g filter="url(#filter0_d_6761_7249)">
<g clip-path="url(#clip0_6761_7249)">
<path d="M20 28C20 23.5817 23.5817 20 28 20H280C284.418 20 288 23.5817 288 28V84C288 88.4183 284.418 92 280 92H28C23.5817 92 20 88.4183 20 84V28Z" fill="white" fill-opacity="0.5" shape-rendering="crispEdges"/>
<g filter="url(#filter1_d_6761_7249)">
<path d="M72 74.3539C72 75.8153 70.8181 77 69.3601 77H41.6399C40.182 77 39 75.8153 39 74.3539L39 36.6461C39 35.1847 40.1819 34 41.6399 34H62.1L72 43.0961V74.3539Z" fill="white"/>
<path d="M71.9996 43.0961H62.0996V34L71.9996 43.0961Z" fill="#949AA2" fill-opacity="0.2"/>
<path d="M62.0996 43.0957L71.9996 53.0188V43.0957H62.0996Z" fill="#FAFAFA"/>
</g>
<path d="M104.41 53.126C103.897 53.126 103.411 53.0793 102.954 52.986C102.506 52.8927 102.091 52.762 101.708 52.594C101.335 52.4167 100.994 52.202 100.686 51.95L101.092 51.026C101.409 51.2593 101.731 51.46 102.058 51.628C102.394 51.7867 102.753 51.908 103.136 51.992C103.528 52.0667 103.953 52.104 104.41 52.104C105.25 52.104 105.871 51.95 106.272 51.642C106.683 51.3247 106.888 50.9093 106.888 50.396C106.888 50.1253 106.823 49.892 106.692 49.696C106.571 49.5 106.365 49.332 106.076 49.192C105.796 49.052 105.427 48.9353 104.97 48.842L103.514 48.548C102.637 48.3613 101.979 48.058 101.54 47.638C101.111 47.2087 100.896 46.6393 100.896 45.93C100.896 45.342 101.045 44.8287 101.344 44.39C101.652 43.9513 102.077 43.6107 102.618 43.368C103.169 43.1253 103.794 43.004 104.494 43.004C104.942 43.004 105.367 43.0507 105.768 43.144C106.169 43.2373 106.538 43.3773 106.874 43.564C107.219 43.7413 107.523 43.9607 107.784 44.222L107.378 45.118C106.958 44.7353 106.515 44.46 106.048 44.292C105.581 44.1147 105.059 44.026 104.48 44.026C103.985 44.026 103.556 44.1007 103.192 44.25C102.837 44.3993 102.557 44.6187 102.352 44.908C102.156 45.188 102.058 45.5147 102.058 45.888C102.058 46.336 102.193 46.6907 102.464 46.952C102.744 47.2133 103.197 47.4047 103.822 47.526L105.278 47.834C106.221 48.03 106.916 48.3287 107.364 48.73C107.821 49.122 108.05 49.6587 108.05 50.34C108.05 50.8813 107.901 51.3667 107.602 51.796C107.313 52.216 106.893 52.5427 106.342 52.776C105.801 53.0093 105.157 53.126 104.41 53.126ZM112.38 53.126C111.577 53.126 110.975 52.9113 110.574 52.482C110.173 52.0527 109.972 51.4413 109.972 50.648V47.078H108.642V46.196H109.972V44.11H111.106V46.196H113.262V47.078H111.106V50.536C111.106 51.068 111.218 51.474 111.442 51.754C111.666 52.0247 112.03 52.16 112.534 52.16C112.683 52.16 112.833 52.1413 112.982 52.104C113.131 52.0667 113.267 52.0293 113.388 51.992L113.584 52.86C113.463 52.9253 113.285 52.986 113.052 53.042C112.819 53.098 112.595 53.126 112.38 53.126ZM116.686 53.126C116.22 53.126 115.8 53.0373 115.426 52.86C115.062 52.6733 114.773 52.4213 114.558 52.104C114.344 51.7867 114.236 51.432 114.236 51.04C114.236 50.536 114.362 50.1393 114.614 49.85C114.876 49.5607 115.3 49.3553 115.888 49.234C116.486 49.1127 117.298 49.052 118.324 49.052H118.954V49.794H118.338C117.769 49.794 117.293 49.8127 116.91 49.85C116.528 49.8873 116.224 49.9527 116 50.046C115.776 50.1393 115.618 50.2607 115.524 50.41C115.431 50.5593 115.384 50.746 115.384 50.97C115.384 51.3527 115.515 51.6653 115.776 51.908C116.047 52.1507 116.411 52.272 116.868 52.272C117.242 52.272 117.568 52.1833 117.848 52.006C118.138 51.8287 118.362 51.586 118.52 51.278C118.688 50.97 118.772 50.6153 118.772 50.214V48.618C118.772 48.0393 118.656 47.624 118.422 47.372C118.189 47.1107 117.806 46.98 117.274 46.98C116.864 46.98 116.467 47.0407 116.084 47.162C115.702 47.274 115.31 47.4607 114.908 47.722L114.516 46.896C114.759 46.728 115.034 46.5833 115.342 46.462C115.65 46.3313 115.972 46.2333 116.308 46.168C116.644 46.1027 116.966 46.07 117.274 46.07C117.862 46.07 118.348 46.168 118.73 46.364C119.113 46.5507 119.398 46.84 119.584 47.232C119.771 47.6147 119.864 48.1093 119.864 48.716V53H118.8V51.418H118.926C118.852 51.7727 118.707 52.076 118.492 52.328C118.287 52.58 118.03 52.776 117.722 52.916C117.414 53.056 117.069 53.126 116.686 53.126ZM121.968 53V46.196H123.074V47.806H122.934C123.093 47.2553 123.368 46.84 123.76 46.56C124.152 46.2707 124.67 46.1027 125.314 46.056L125.72 46.014L125.804 46.994L125.09 47.078C124.456 47.134 123.966 47.3393 123.62 47.694C123.284 48.0393 123.116 48.5153 123.116 49.122V53H121.968ZM130.085 53.126C129.282 53.126 128.68 52.9113 128.279 52.482C127.878 52.0527 127.677 51.4413 127.677 50.648V47.078H126.347V46.196H127.677V44.11H128.811V46.196H130.967V47.078H128.811V50.536C128.811 51.068 128.923 51.474 129.147 51.754C129.371 52.0247 129.735 52.16 130.239 52.16C130.388 52.16 130.538 52.1413 130.687 52.104C130.836 52.0667 130.972 52.0293 131.093 51.992L131.289 52.86C131.168 52.9253 130.99 52.986 130.757 53.042C130.524 53.098 130.3 53.126 130.085 53.126ZM136.209 53V47.078H134.865V46.196H136.517L136.209 46.49V45.958C136.209 45.0527 136.433 44.3667 136.881 43.9C137.339 43.4333 138.039 43.172 138.981 43.116L139.527 43.088L139.625 43.956L138.981 43.998C138.599 44.026 138.286 44.11 138.043 44.25C137.801 44.39 137.623 44.5907 137.511 44.852C137.399 45.1133 137.343 45.4353 137.343 45.818V46.406L137.175 46.196H139.303V47.078H137.343V53H136.209ZM140.507 53V46.196H141.613V47.806H141.473C141.632 47.2553 141.907 46.84 142.299 46.56C142.691 46.2707 143.209 46.1027 143.853 46.056L144.259 46.014L144.343 46.994L143.629 47.078C142.995 47.134 142.505 47.3393 142.159 47.694C141.823 48.0393 141.655 48.5153 141.655 49.122V53H140.507ZM148.271 53.126C147.608 53.126 147.034 52.9813 146.549 52.692C146.064 52.4027 145.686 51.9967 145.415 51.474C145.154 50.942 145.023 50.3167 145.023 49.598C145.023 48.8793 145.154 48.2587 145.415 47.736C145.686 47.204 146.064 46.7933 146.549 46.504C147.034 46.2147 147.608 46.07 148.271 46.07C148.934 46.07 149.508 46.2147 149.993 46.504C150.478 46.7933 150.852 47.204 151.113 47.736C151.384 48.2587 151.519 48.8793 151.519 49.598C151.519 50.3167 151.384 50.942 151.113 51.474C150.852 51.9967 150.478 52.4027 149.993 52.692C149.508 52.9813 148.934 53.126 148.271 53.126ZM148.271 52.216C148.915 52.216 149.424 51.992 149.797 51.544C150.18 51.0867 150.371 50.4333 150.371 49.584C150.371 48.744 150.18 48.1 149.797 47.652C149.424 47.204 148.915 46.98 148.271 46.98C147.636 46.98 147.128 47.204 146.745 47.652C146.362 48.1 146.171 48.744 146.171 49.584C146.171 50.4333 146.362 51.0867 146.745 51.544C147.128 51.992 147.636 52.216 148.271 52.216ZM153.25 53V46.196H154.356V47.708H154.202C154.314 47.3627 154.478 47.0687 154.692 46.826C154.916 46.574 155.178 46.3873 155.476 46.266C155.784 46.1353 156.12 46.07 156.484 46.07C157.063 46.07 157.53 46.21 157.884 46.49C158.248 46.7607 158.491 47.1853 158.612 47.764H158.402C158.57 47.2413 158.869 46.8307 159.298 46.532C159.737 46.224 160.246 46.07 160.824 46.07C161.338 46.07 161.758 46.168 162.084 46.364C162.42 46.56 162.672 46.8587 162.84 47.26C163.008 47.652 163.092 48.1513 163.092 48.758V53H161.958V48.814C161.958 48.1887 161.851 47.7313 161.636 47.442C161.422 47.1433 161.058 46.994 160.544 46.994C160.18 46.994 159.858 47.0827 159.578 47.26C159.308 47.4373 159.098 47.6893 158.948 48.016C158.808 48.3333 158.738 48.7113 158.738 49.15V53H157.604V48.814C157.604 48.1887 157.492 47.7313 157.268 47.442C157.054 47.1433 156.694 46.994 156.19 46.994C155.817 46.994 155.495 47.0827 155.224 47.26C154.954 47.4373 154.744 47.6893 154.594 48.016C154.454 48.3333 154.384 48.7113 154.384 49.15V53H153.25ZM171.104 53.126C170.749 53.126 170.404 53.0887 170.068 53.014C169.741 52.9487 169.433 52.8553 169.144 52.734C168.864 52.6033 168.621 52.4493 168.416 52.272L168.78 51.474C169.004 51.6513 169.247 51.8007 169.508 51.922C169.769 52.034 170.035 52.118 170.306 52.174C170.577 52.23 170.852 52.258 171.132 52.258C171.664 52.258 172.065 52.16 172.336 51.964C172.607 51.768 172.742 51.502 172.742 51.166C172.742 50.9047 172.653 50.6993 172.476 50.55C172.299 50.3913 172.019 50.27 171.636 50.186L170.362 49.906C169.774 49.7847 169.335 49.5747 169.046 49.276C168.766 48.9773 168.626 48.59 168.626 48.114C168.626 47.694 168.733 47.3347 168.948 47.036C169.172 46.728 169.485 46.49 169.886 46.322C170.287 46.154 170.754 46.07 171.286 46.07C171.603 46.07 171.907 46.1027 172.196 46.168C172.485 46.2333 172.756 46.3313 173.008 46.462C173.269 46.5833 173.493 46.7373 173.68 46.924L173.302 47.722C173.125 47.554 172.924 47.414 172.7 47.302C172.476 47.1807 172.243 47.092 172 47.036C171.767 46.9707 171.529 46.938 171.286 46.938C170.763 46.938 170.367 47.0407 170.096 47.246C169.825 47.4513 169.69 47.722 169.69 48.058C169.69 48.3193 169.774 48.534 169.942 48.702C170.11 48.87 170.371 48.9913 170.726 49.066L172 49.332C172.607 49.4627 173.059 49.6727 173.358 49.962C173.666 50.242 173.82 50.6247 173.82 51.11C173.82 51.5207 173.708 51.88 173.484 52.188C173.26 52.4867 172.943 52.72 172.532 52.888C172.131 53.0467 171.655 53.126 171.104 53.126ZM178.432 53.126C177.751 53.126 177.163 52.9767 176.668 52.678C176.174 52.3793 175.791 51.964 175.52 51.432C175.259 50.8907 175.128 50.2653 175.128 49.556C175.128 48.8373 175.259 48.2167 175.52 47.694C175.791 47.1713 176.174 46.77 176.668 46.49C177.163 46.21 177.751 46.07 178.432 46.07C178.852 46.07 179.268 46.1447 179.678 46.294C180.089 46.4433 180.43 46.6533 180.7 46.924L180.308 47.75C180.038 47.4887 179.739 47.2973 179.412 47.176C179.095 47.0547 178.792 46.994 178.502 46.994C177.793 46.994 177.247 47.218 176.864 47.666C176.482 48.1047 176.29 48.7393 176.29 49.57C176.29 50.382 176.482 51.026 176.864 51.502C177.247 51.9687 177.793 52.202 178.502 52.202C178.792 52.202 179.095 52.1413 179.412 52.02C179.739 51.8987 180.038 51.7027 180.308 51.432L180.7 52.258C180.43 52.5287 180.084 52.7433 179.664 52.902C179.254 53.0513 178.843 53.126 178.432 53.126ZM182.029 53V46.196H183.135V47.806H182.995C183.154 47.2553 183.429 46.84 183.821 46.56C184.213 46.2707 184.731 46.1027 185.375 46.056L185.781 46.014L185.865 46.994L185.151 47.078C184.516 47.134 184.026 47.3393 183.681 47.694C183.345 48.0393 183.177 48.5153 183.177 49.122V53H182.029ZM189.12 53.126C188.653 53.126 188.233 53.0373 187.86 52.86C187.496 52.6733 187.207 52.4213 186.992 52.104C186.777 51.7867 186.67 51.432 186.67 51.04C186.67 50.536 186.796 50.1393 187.048 49.85C187.309 49.5607 187.734 49.3553 188.322 49.234C188.919 49.1127 189.731 49.052 190.758 49.052H191.388V49.794H190.772C190.203 49.794 189.727 49.8127 189.344 49.85C188.961 49.8873 188.658 49.9527 188.434 50.046C188.21 50.1393 188.051 50.2607 187.958 50.41C187.865 50.5593 187.818 50.746 187.818 50.97C187.818 51.3527 187.949 51.6653 188.21 51.908C188.481 52.1507 188.845 52.272 189.302 52.272C189.675 52.272 190.002 52.1833 190.282 52.006C190.571 51.8287 190.795 51.586 190.954 51.278C191.122 50.97 191.206 50.6153 191.206 50.214V48.618C191.206 48.0393 191.089 47.624 190.856 47.372C190.623 47.1107 190.24 46.98 189.708 46.98C189.297 46.98 188.901 47.0407 188.518 47.162C188.135 47.274 187.743 47.4607 187.342 47.722L186.95 46.896C187.193 46.728 187.468 46.5833 187.776 46.462C188.084 46.3313 188.406 46.2333 188.742 46.168C189.078 46.1027 189.4 46.07 189.708 46.07C190.296 46.07 190.781 46.168 191.164 46.364C191.547 46.5507 191.831 46.84 192.018 47.232C192.205 47.6147 192.298 48.1093 192.298 48.716V53H191.234V51.418H191.36C191.285 51.7727 191.141 52.076 190.926 52.328C190.721 52.58 190.464 52.776 190.156 52.916C189.848 53.056 189.503 53.126 189.12 53.126ZM197.132 53.126C196.329 53.126 195.727 52.9113 195.326 52.482C194.925 52.0527 194.724 51.4413 194.724 50.648V47.078H193.394V46.196H194.724V44.11H195.858V46.196H198.014V47.078H195.858V50.536C195.858 51.068 195.97 51.474 196.194 51.754C196.418 52.0247 196.782 52.16 197.286 52.16C197.435 52.16 197.585 52.1413 197.734 52.104C197.883 52.0667 198.019 52.0293 198.14 51.992L198.336 52.86C198.215 52.9253 198.037 52.986 197.804 53.042C197.571 53.098 197.347 53.126 197.132 53.126ZM202.112 53.126C201.431 53.126 200.843 52.9767 200.348 52.678C199.853 52.3793 199.471 51.964 199.2 51.432C198.939 50.8907 198.808 50.2653 198.808 49.556C198.808 48.8373 198.939 48.2167 199.2 47.694C199.471 47.1713 199.853 46.77 200.348 46.49C200.843 46.21 201.431 46.07 202.112 46.07C202.532 46.07 202.947 46.1447 203.358 46.294C203.769 46.4433 204.109 46.6533 204.38 46.924L203.988 47.75C203.717 47.4887 203.419 47.2973 203.092 47.176C202.775 47.0547 202.471 46.994 202.182 46.994C201.473 46.994 200.927 47.218 200.544 47.666C200.161 48.1047 199.97 48.7393 199.97 49.57C199.97 50.382 200.161 51.026 200.544 51.502C200.927 51.9687 201.473 52.202 202.182 52.202C202.471 52.202 202.775 52.1413 203.092 52.02C203.419 51.8987 203.717 51.7027 203.988 51.432L204.38 52.258C204.109 52.5287 203.764 52.7433 203.344 52.902C202.933 53.0513 202.523 53.126 202.112 53.126ZM205.709 53V43.13H206.843V47.708H206.661C206.857 47.1667 207.174 46.7607 207.613 46.49C208.061 46.21 208.574 46.07 209.153 46.07C209.694 46.07 210.142 46.168 210.497 46.364C210.861 46.56 211.131 46.8587 211.309 47.26C211.486 47.652 211.575 48.1513 211.575 48.758V53H210.441V48.828C210.441 48.408 210.385 48.0627 210.273 47.792C210.17 47.5213 210.002 47.3207 209.769 47.19C209.545 47.0593 209.251 46.994 208.887 46.994C208.476 46.994 208.117 47.0827 207.809 47.26C207.501 47.4373 207.263 47.6847 207.095 48.002C206.927 48.3193 206.843 48.6927 206.843 49.122V53H205.709Z" fill="#15191F"/>
<path d="M101.044 70V61.54H104.428C105.292 61.54 105.964 61.732 106.444 62.116C106.924 62.5 107.164 63.044 107.164 63.748C107.164 64.276 107.008 64.716 106.696 65.068C106.392 65.42 105.976 65.652 105.448 65.764V65.596C105.848 65.644 106.192 65.76 106.48 65.944C106.768 66.12 106.988 66.356 107.14 66.652C107.292 66.94 107.368 67.28 107.368 67.672C107.368 68.176 107.256 68.604 107.032 68.956C106.816 69.3 106.5 69.56 106.084 69.736C105.668 69.912 105.164 70 104.572 70H101.044ZM102.004 69.208H104.476C104.732 69.208 104.96 69.188 105.16 69.148C105.368 69.108 105.548 69.048 105.7 68.968C105.852 68.88 105.98 68.776 106.084 68.656C106.188 68.536 106.264 68.392 106.312 68.224C106.368 68.056 106.396 67.868 106.396 67.66C106.396 67.444 106.368 67.256 106.312 67.096C106.264 66.928 106.188 66.784 106.084 66.664C105.98 66.536 105.852 66.432 105.7 66.352C105.548 66.272 105.368 66.212 105.16 66.172C104.96 66.132 104.732 66.112 104.476 66.112H102.004V69.208ZM102.004 65.32H104.284C104.908 65.32 105.38 65.192 105.7 64.936C106.028 64.68 106.192 64.312 106.192 63.832C106.192 63.336 106.028 62.964 105.7 62.716C105.38 62.46 104.908 62.332 104.284 62.332H102.004V65.32ZM111.649 70.108C111.033 70.108 110.501 69.988 110.053 69.748C109.613 69.5 109.269 69.152 109.021 68.704C108.781 68.256 108.661 67.72 108.661 67.096C108.661 66.488 108.781 65.96 109.021 65.512C109.261 65.056 109.589 64.7 110.005 64.444C110.429 64.188 110.917 64.06 111.469 64.06C111.997 64.06 112.449 64.176 112.825 64.408C113.201 64.64 113.489 64.968 113.689 65.392C113.897 65.816 114.001 66.324 114.001 66.916V67.288H109.405V66.652H113.353L113.161 66.808C113.161 66.168 113.017 65.672 112.729 65.32C112.449 64.96 112.037 64.78 111.493 64.78C111.085 64.78 110.737 64.876 110.449 65.068C110.169 65.252 109.957 65.512 109.813 65.848C109.669 66.176 109.597 66.56 109.597 67V67.072C109.597 67.56 109.673 67.972 109.825 68.308C109.985 68.644 110.221 68.9 110.533 69.076C110.845 69.244 111.217 69.328 111.649 69.328C111.993 69.328 112.325 69.276 112.645 69.172C112.973 69.06 113.281 68.88 113.569 68.632L113.905 69.316C113.641 69.556 113.305 69.748 112.897 69.892C112.489 70.036 112.073 70.108 111.649 70.108ZM117.988 72.268C117.484 72.268 117.008 72.2 116.56 72.064C116.12 71.936 115.728 71.74 115.384 71.476L115.708 70.768C115.948 70.936 116.184 71.072 116.416 71.176C116.656 71.288 116.9 71.368 117.148 71.416C117.404 71.464 117.668 71.488 117.94 71.488C118.508 71.488 118.936 71.336 119.224 71.032C119.52 70.728 119.668 70.288 119.668 69.712V68.356H119.788C119.668 68.82 119.412 69.188 119.02 69.46C118.636 69.732 118.184 69.868 117.664 69.868C117.128 69.868 116.664 69.748 116.272 69.508C115.88 69.26 115.576 68.916 115.36 68.476C115.152 68.036 115.048 67.528 115.048 66.952C115.048 66.376 115.152 65.872 115.36 65.44C115.576 65 115.88 64.66 116.272 64.42C116.664 64.18 117.128 64.06 117.664 64.06C118.192 64.06 118.648 64.196 119.032 64.468C119.416 64.732 119.664 65.092 119.776 65.548H119.668V64.168H120.616V69.58C120.616 70.172 120.516 70.668 120.316 71.068C120.124 71.468 119.832 71.768 119.44 71.968C119.048 72.168 118.564 72.268 117.988 72.268ZM117.844 69.076C118.404 69.076 118.848 68.884 119.176 68.5C119.504 68.116 119.668 67.6 119.668 66.952C119.668 66.304 119.504 65.792 119.176 65.416C118.848 65.032 118.404 64.84 117.844 64.84C117.292 64.84 116.852 65.032 116.524 65.416C116.196 65.792 116.032 66.304 116.032 66.952C116.032 67.6 116.196 68.116 116.524 68.5C116.852 68.884 117.292 69.076 117.844 69.076ZM122.319 62.716V61.624H123.519V62.716H122.319ZM122.439 70V64.168H123.411V70H122.439ZM125.228 70V64.168H126.176V65.464H126.044C126.212 65 126.484 64.652 126.86 64.42C127.244 64.18 127.684 64.06 128.18 64.06C128.644 64.06 129.028 64.144 129.332 64.312C129.644 64.472 129.876 64.724 130.028 65.068C130.18 65.412 130.256 65.844 130.256 66.364V70H129.284V66.424C129.284 66.064 129.236 65.768 129.14 65.536C129.052 65.304 128.908 65.132 128.708 65.02C128.516 64.908 128.264 64.852 127.952 64.852C127.6 64.852 127.292 64.928 127.028 65.08C126.764 65.232 126.56 65.444 126.416 65.716C126.272 65.988 126.2 66.308 126.2 66.676V70H125.228ZM136.679 70L134.507 64.168H135.527L137.315 69.28H137.027L138.875 64.168H139.703L141.515 69.28H141.239L143.051 64.168H144.023L141.839 70H140.915L139.007 64.756H139.523L137.615 70H136.679ZM145.101 62.716V61.624H146.301V62.716H145.101ZM145.221 70V64.168H146.193V70H145.221ZM150.35 70.108C149.662 70.108 149.146 69.924 148.802 69.556C148.458 69.188 148.286 68.664 148.286 67.984V64.924H147.146V64.168H148.286V62.38H149.258V64.168H151.106V64.924H149.258V67.888C149.258 68.344 149.354 68.692 149.546 68.932C149.738 69.164 150.05 69.28 150.482 69.28C150.61 69.28 150.738 69.264 150.866 69.232C150.994 69.2 151.11 69.168 151.214 69.136L151.382 69.88C151.278 69.936 151.126 69.988 150.926 70.036C150.726 70.084 150.534 70.108 150.35 70.108ZM152.205 70V61.54H153.177V65.464H153.021C153.189 65 153.461 64.652 153.837 64.42C154.221 64.18 154.661 64.06 155.157 64.06C155.621 64.06 156.005 64.144 156.309 64.312C156.621 64.48 156.853 64.736 157.005 65.08C157.157 65.416 157.233 65.844 157.233 66.364V70H156.261V66.424C156.261 66.064 156.213 65.768 156.117 65.536C156.029 65.304 155.885 65.132 155.685 65.02C155.493 64.908 155.241 64.852 154.929 64.852C154.577 64.852 154.269 64.928 154.005 65.08C153.741 65.232 153.537 65.444 153.393 65.716C153.249 65.988 153.177 66.308 153.177 66.676V70H152.205ZM163.943 70.108C163.543 70.108 163.183 70.032 162.863 69.88C162.551 69.72 162.303 69.504 162.119 69.232C161.935 68.96 161.843 68.656 161.843 68.32C161.843 67.888 161.951 67.548 162.167 67.3C162.391 67.052 162.755 66.876 163.259 66.772C163.771 66.668 164.467 66.616 165.347 66.616H165.887V67.252H165.359C164.871 67.252 164.463 67.268 164.135 67.3C163.807 67.332 163.547 67.388 163.355 67.468C163.163 67.548 163.027 67.652 162.947 67.78C162.867 67.908 162.827 68.068 162.827 68.26C162.827 68.588 162.939 68.856 163.163 69.064C163.395 69.272 163.707 69.376 164.099 69.376C164.419 69.376 164.699 69.3 164.939 69.148C165.187 68.996 165.379 68.788 165.515 68.524C165.659 68.26 165.731 67.956 165.731 67.612V66.244C165.731 65.748 165.631 65.392 165.431 65.176C165.231 64.952 164.903 64.84 164.447 64.84C164.095 64.84 163.755 64.892 163.427 64.996C163.099 65.092 162.763 65.252 162.419 65.476L162.083 64.768C162.291 64.624 162.527 64.5 162.791 64.396C163.055 64.284 163.331 64.2 163.619 64.144C163.907 64.088 164.183 64.06 164.447 64.06C164.951 64.06 165.367 64.144 165.695 64.312C166.023 64.472 166.267 64.72 166.427 65.056C166.587 65.384 166.667 65.808 166.667 66.328V70H165.755V68.644H165.863C165.799 68.948 165.675 69.208 165.491 69.424C165.315 69.64 165.095 69.808 164.831 69.928C164.567 70.048 164.271 70.108 163.943 70.108ZM174.505 70.108C173.977 70.108 173.521 69.972 173.137 69.7C172.761 69.428 172.509 69.064 172.381 68.608H172.501V70H171.553V61.54H172.525V65.524H172.381C172.517 65.076 172.773 64.72 173.149 64.456C173.525 64.192 173.977 64.06 174.505 64.06C175.033 64.06 175.489 64.184 175.873 64.432C176.257 64.672 176.553 65.02 176.761 65.476C176.977 65.924 177.085 66.46 177.085 67.084C177.085 67.7 176.977 68.236 176.761 68.692C176.553 69.14 176.253 69.488 175.861 69.736C175.477 69.984 175.025 70.108 174.505 70.108ZM174.301 69.328C174.853 69.328 175.289 69.136 175.609 68.752C175.937 68.36 176.101 67.804 176.101 67.084C176.101 66.356 175.937 65.8 175.609 65.416C175.289 65.032 174.853 64.84 174.301 64.84C173.757 64.84 173.321 65.032 172.993 65.416C172.665 65.8 172.501 66.356 172.501 67.084C172.501 67.804 172.665 68.36 172.993 68.752C173.321 69.136 173.757 69.328 174.301 69.328ZM180.337 70.108C179.745 70.108 179.297 69.932 178.993 69.58C178.697 69.228 178.549 68.724 178.549 68.068V61.54H179.521V67.996C179.521 68.276 179.557 68.512 179.629 68.704C179.709 68.896 179.825 69.04 179.977 69.136C180.129 69.232 180.317 69.28 180.541 69.28C180.637 69.28 180.729 69.276 180.817 69.268C180.913 69.252 181.001 69.232 181.081 69.208L181.057 70.024C180.929 70.048 180.805 70.068 180.685 70.084C180.573 70.1 180.457 70.108 180.337 70.108ZM183.936 70.108C183.536 70.108 183.176 70.032 182.856 69.88C182.544 69.72 182.296 69.504 182.112 69.232C181.928 68.96 181.836 68.656 181.836 68.32C181.836 67.888 181.944 67.548 182.16 67.3C182.384 67.052 182.748 66.876 183.252 66.772C183.764 66.668 184.46 66.616 185.34 66.616H185.88V67.252H185.352C184.864 67.252 184.456 67.268 184.128 67.3C183.8 67.332 183.54 67.388 183.348 67.468C183.156 67.548 183.02 67.652 182.94 67.78C182.86 67.908 182.82 68.068 182.82 68.26C182.82 68.588 182.932 68.856 183.156 69.064C183.388 69.272 183.7 69.376 184.092 69.376C184.412 69.376 184.692 69.3 184.932 69.148C185.18 68.996 185.372 68.788 185.508 68.524C185.652 68.26 185.724 67.956 185.724 67.612V66.244C185.724 65.748 185.624 65.392 185.424 65.176C185.224 64.952 184.896 64.84 184.44 64.84C184.088 64.84 183.748 64.892 183.42 64.996C183.092 65.092 182.756 65.252 182.412 65.476L182.076 64.768C182.284 64.624 182.52 64.5 182.784 64.396C183.048 64.284 183.324 64.2 183.612 64.144C183.9 64.088 184.176 64.06 184.44 64.06C184.944 64.06 185.36 64.144 185.688 64.312C186.016 64.472 186.26 64.72 186.42 65.056C186.58 65.384 186.66 65.808 186.66 66.328V70H185.748V68.644H185.856C185.792 68.948 185.668 69.208 185.484 69.424C185.308 69.64 185.088 69.808 184.824 69.928C184.56 70.048 184.264 70.108 183.936 70.108ZM188.463 70V64.168H189.411V65.464H189.279C189.447 65 189.719 64.652 190.095 64.42C190.479 64.18 190.919 64.06 191.415 64.06C191.879 64.06 192.263 64.144 192.567 64.312C192.879 64.472 193.111 64.724 193.263 65.068C193.415 65.412 193.491 65.844 193.491 66.364V70H192.519V66.424C192.519 66.064 192.471 65.768 192.375 65.536C192.287 65.304 192.143 65.132 191.943 65.02C191.751 64.908 191.499 64.852 191.187 64.852C190.835 64.852 190.527 64.928 190.263 65.08C189.999 65.232 189.795 65.444 189.651 65.716C189.507 65.988 189.435 66.308 189.435 66.676V70H188.463ZM195.283 70V61.54H196.255V66.76H196.279L198.979 64.168H200.215L197.011 67.24V66.712L200.467 70H199.231L196.279 67.264H196.255V70H195.283ZM204.389 70V64.168H205.337V65.464H205.205C205.301 65.168 205.441 64.916 205.625 64.708C205.817 64.492 206.041 64.332 206.297 64.228C206.561 64.116 206.849 64.06 207.161 64.06C207.657 64.06 208.057 64.18 208.361 64.42C208.673 64.652 208.881 65.016 208.985 65.512H208.805C208.949 65.064 209.205 64.712 209.573 64.456C209.949 64.192 210.385 64.06 210.881 64.06C211.321 64.06 211.681 64.144 211.961 64.312C212.249 64.48 212.465 64.736 212.609 65.08C212.753 65.416 212.825 65.844 212.825 66.364V70H211.853V66.412C211.853 65.876 211.761 65.484 211.577 65.236C211.393 64.98 211.081 64.852 210.641 64.852C210.329 64.852 210.053 64.928 209.813 65.08C209.581 65.232 209.401 65.448 209.273 65.728C209.153 66 209.093 66.324 209.093 66.7V70H208.121V66.412C208.121 65.876 208.025 65.484 207.833 65.236C207.649 64.98 207.341 64.852 206.909 64.852C206.589 64.852 206.313 64.928 206.081 65.08C205.849 65.232 205.669 65.448 205.541 65.728C205.421 66 205.361 66.324 205.361 66.7V70H204.389ZM216.478 70.108C216.078 70.108 215.718 70.032 215.398 69.88C215.086 69.72 214.838 69.504 214.654 69.232C214.47 68.96 214.378 68.656 214.378 68.32C214.378 67.888 214.486 67.548 214.702 67.3C214.926 67.052 215.29 66.876 215.794 66.772C216.306 66.668 217.002 66.616 217.882 66.616H218.422V67.252H217.894C217.406 67.252 216.998 67.268 216.67 67.3C216.342 67.332 216.082 67.388 215.89 67.468C215.698 67.548 215.562 67.652 215.482 67.78C215.402 67.908 215.362 68.068 215.362 68.26C215.362 68.588 215.474 68.856 215.698 69.064C215.93 69.272 216.242 69.376 216.634 69.376C216.954 69.376 217.234 69.3 217.474 69.148C217.722 68.996 217.914 68.788 218.05 68.524C218.194 68.26 218.266 67.956 218.266 67.612V66.244C218.266 65.748 218.166 65.392 217.966 65.176C217.766 64.952 217.438 64.84 216.982 64.84C216.63 64.84 216.29 64.892 215.962 64.996C215.634 65.092 215.298 65.252 214.954 65.476L214.618 64.768C214.826 64.624 215.062 64.5 215.326 64.396C215.59 64.284 215.866 64.2 216.154 64.144C216.442 64.088 216.718 64.06 216.982 64.06C217.486 64.06 217.902 64.144 218.23 64.312C218.558 64.472 218.802 64.72 218.962 65.056C219.122 65.384 219.202 65.808 219.202 66.328V70H218.29V68.644H218.398C218.334 68.948 218.21 69.208 218.026 69.424C217.85 69.64 217.63 69.808 217.366 69.928C217.102 70.048 216.806 70.108 216.478 70.108ZM221.006 70V64.168H221.954V65.464H221.822C221.99 65 222.262 64.652 222.638 64.42C223.022 64.18 223.462 64.06 223.958 64.06C224.422 64.06 224.806 64.144 225.11 64.312C225.422 64.472 225.654 64.724 225.806 65.068C225.958 65.412 226.034 65.844 226.034 66.364V70H225.062V66.424C225.062 66.064 225.014 65.768 224.918 65.536C224.83 65.304 224.686 65.132 224.486 65.02C224.294 64.908 224.042 64.852 223.73 64.852C223.378 64.852 223.07 64.928 222.806 65.08C222.542 65.232 222.338 65.444 222.194 65.716C222.05 65.988 221.978 66.308 221.978 66.676V70H221.006ZM229.89 70.108C229.418 70.108 229.026 70.024 228.714 69.856C228.41 69.68 228.178 69.42 228.018 69.076C227.866 68.732 227.79 68.304 227.79 67.792V64.168H228.762V67.78C228.762 68.124 228.806 68.412 228.894 68.644C228.99 68.868 229.138 69.036 229.338 69.148C229.538 69.252 229.786 69.304 230.082 69.304C230.418 69.304 230.71 69.228 230.958 69.076C231.206 68.924 231.402 68.712 231.546 68.44C231.69 68.168 231.762 67.848 231.762 67.48V64.168H232.734V70H231.786V68.656H231.942C231.782 69.128 231.518 69.488 231.15 69.736C230.79 69.984 230.37 70.108 229.89 70.108ZM236.521 70.108C236.217 70.108 235.921 70.076 235.633 70.012C235.353 69.956 235.089 69.876 234.841 69.772C234.601 69.66 234.393 69.528 234.217 69.376L234.529 68.692C234.721 68.844 234.929 68.972 235.153 69.076C235.377 69.172 235.605 69.244 235.837 69.292C236.069 69.34 236.305 69.364 236.545 69.364C237.001 69.364 237.345 69.28 237.577 69.112C237.809 68.944 237.925 68.716 237.925 68.428C237.925 68.204 237.849 68.028 237.697 67.9C237.545 67.764 237.305 67.66 236.977 67.588L235.885 67.348C235.381 67.244 235.005 67.064 234.757 66.808C234.517 66.552 234.397 66.22 234.397 65.812C234.397 65.452 234.489 65.144 234.673 64.888C234.865 64.624 235.133 64.42 235.477 64.276C235.821 64.132 236.221 64.06 236.677 64.06C236.949 64.06 237.209 64.088 237.457 64.144C237.705 64.2 237.937 64.284 238.153 64.396C238.377 64.5 238.569 64.632 238.729 64.792L238.405 65.476C238.253 65.332 238.081 65.212 237.889 65.116C237.697 65.012 237.497 64.936 237.289 64.888C237.089 64.832 236.885 64.804 236.677 64.804C236.229 64.804 235.889 64.892 235.657 65.068C235.425 65.244 235.309 65.476 235.309 65.764C235.309 65.988 235.381 66.172 235.525 66.316C235.669 66.46 235.893 66.564 236.197 66.628L237.289 66.856C237.809 66.968 238.197 67.148 238.453 67.396C238.717 67.636 238.849 67.964 238.849 68.38C238.849 68.732 238.753 69.04 238.561 69.304C238.369 69.56 238.097 69.76 237.745 69.904C237.401 70.04 236.993 70.108 236.521 70.108ZM242.802 70.108C242.218 70.108 241.714 69.98 241.29 69.724C240.866 69.468 240.538 69.112 240.306 68.656C240.082 68.192 239.97 67.656 239.97 67.048C239.97 66.432 240.082 65.9 240.306 65.452C240.538 65.004 240.866 64.66 241.29 64.42C241.714 64.18 242.218 64.06 242.802 64.06C243.162 64.06 243.518 64.124 243.87 64.252C244.222 64.38 244.514 64.56 244.746 64.792L244.41 65.5C244.178 65.276 243.922 65.112 243.642 65.008C243.37 64.904 243.11 64.852 242.862 64.852C242.254 64.852 241.786 65.044 241.458 65.428C241.13 65.804 240.966 66.348 240.966 67.06C240.966 67.756 241.13 68.308 241.458 68.716C241.786 69.116 242.254 69.316 242.862 69.316C243.11 69.316 243.37 69.264 243.642 69.16C243.922 69.056 244.178 68.888 244.41 68.656L244.746 69.364C244.514 69.596 244.218 69.78 243.858 69.916C243.506 70.044 243.154 70.108 242.802 70.108ZM245.885 70V64.168H246.833V65.548H246.713C246.849 65.076 247.085 64.72 247.421 64.48C247.757 64.232 248.201 64.088 248.753 64.048L249.101 64.012L249.173 64.852L248.561 64.924C248.017 64.972 247.597 65.148 247.301 65.452C247.013 65.748 246.869 66.156 246.869 66.676V70H245.885ZM250.065 62.716V61.624H251.265V62.716H250.065ZM250.185 70V64.168H251.157V70H250.185ZM252.975 72.16V64.168H253.923V65.548H253.803C253.931 65.092 254.183 64.732 254.559 64.468C254.943 64.196 255.399 64.06 255.927 64.06C256.447 64.06 256.899 64.184 257.283 64.432C257.675 64.672 257.975 65.02 258.183 65.476C258.399 65.924 258.507 66.46 258.507 67.084C258.507 67.7 258.399 68.236 258.183 68.692C257.975 69.14 257.679 69.488 257.295 69.736C256.911 69.984 256.455 70.108 255.927 70.108C255.399 70.108 254.947 69.976 254.571 69.712C254.195 69.44 253.939 69.08 253.803 68.632H253.947V72.16H252.975ZM255.723 69.328C256.275 69.328 256.711 69.136 257.031 68.752C257.359 68.36 257.523 67.804 257.523 67.084C257.523 66.356 257.359 65.8 257.031 65.416C256.711 65.032 256.275 64.84 255.723 64.84C255.179 64.84 254.743 65.032 254.415 65.416C254.087 65.8 253.923 66.356 253.923 67.084C253.923 67.804 254.087 68.36 254.415 68.752C254.743 69.136 255.179 69.328 255.723 69.328ZM262.252 70.108C261.564 70.108 261.048 69.924 260.704 69.556C260.36 69.188 260.188 68.664 260.188 67.984V64.924H259.048V64.168H260.188V62.38H261.16V64.168H263.008V64.924H261.16V67.888C261.16 68.344 261.256 68.692 261.448 68.932C261.64 69.164 261.952 69.28 262.384 69.28C262.512 69.28 262.64 69.264 262.768 69.232C262.896 69.2 263.012 69.168 263.116 69.136L263.284 69.88C263.18 69.936 263.028 69.988 262.828 70.036C262.628 70.084 262.436 70.108 262.252 70.108Z" fill="#667C98"/>
</g>
<path d="M28 21H280C283.866 21 287 24.134 287 28V84C287 87.866 283.866 91 280 91H28C24.134 91 21 87.866 21 84V28C21 24.134 24.134 21 28 21Z" stroke="white" stroke-width="2" shape-rendering="crispEdges"/>
</g>
<defs>
<filter id="filter0_d_6761_7249" x="-12" y="-10" width="332" height="136" filterUnits="userSpaceOnUse" color-interpolation-filters="sRGB">
<feFlood flood-opacity="0" result="BackgroundImageFix"/>
<feColorMatrix in="SourceAlpha" type="matrix" values="0 0 0 0 0 0 0 0 0 0 0 0 0 0 0 0 0 0 127 0" result="hardAlpha"/>
<feOffset dy="2"/>
<feGaussianBlur stdDeviation="16"/>
<feComposite in2="hardAlpha" operator="out"/>
<feColorMatrix type="matrix" values="0 0 0 0 0 0 0 0 0 0 0 0 0 0 0 0 0 0 0.08 0"/>
<feBlend mode="normal" in2="BackgroundImageFix" result="effect1_dropShadow_6761_7249"/>
<feBlend mode="normal" in="SourceGraphic" in2="effect1_dropShadow_6761_7249" result="shape"/>
</filter>
<filter id="filter1_d_6761_7249" x="21.6" y="18.6" width="71.8" height="81.8" filterUnits="userSpaceOnUse" color-interpolation-filters="sRGB">
<feFlood flood-opacity="0" result="BackgroundImageFix"/>
<feColorMatrix in="SourceAlpha" type="matrix" values="0 0 0 0 0 0 0 0 0 0 0 0 0 0 0 0 0 0 127 0" result="hardAlpha"/>
<feOffset dx="2" dy="4"/>
<feGaussianBlur stdDeviation="9.7"/>
<feComposite in2="hardAlpha" operator="out"/>
<feColorMatrix type="matrix" values="0 0 0 0 0.47381 0 0 0 0 0.450311 0 0 0 0 0.591309 0 0 0 0.45 0"/>
<feBlend mode="normal" in2="BackgroundImageFix" result="effect1_dropShadow_6761_7249"/>
<feBlend mode="normal" in="SourceGraphic" in2="effect1_dropShadow_6761_7249" result="shape"/>
</filter>
<clipPath id="clip0_6761_7249">
<path d="M20 28C20 23.5817 23.5817 20 28 20H280C284.418 20 288 23.5817 288 28V84C288 88.4183 284.418 92 280 92H28C23.5817 92 20 88.4183 20 84V28Z" fill="white"/>
</clipPath>
</defs>
</svg>
