<svg preserveAspectRatio="none" width="100%" height="100%" overflow="visible" style="display: block;" viewBox="0 0 14 14" fill="none" xmlns="http://www.w3.org/2000/svg">
<g id="Frame" clip-path="url(#clip0_0_637)">
<path id="Vector" d="M-0.239646 1.40104C-1.14391 1.00264 -2.04555 1.96719 -1.58949 2.84524L0.0617755 6.02196C0.177102 6.24213 0.392028 6.39153 0.638407 6.42298L5.22263 6.99699C5.31175 7.00747 5.37989 7.08348 5.37989 7.1726C5.37989 7.26172 5.31175 7.33773 5.22263 7.34821L0.638407 7.92222C0.392028 7.95368 0.177102 8.10307 0.0617755 8.32324L-1.58949 11.5C-2.04555 12.378 -1.14391 13.3399 -0.237025 12.9442L11.1698 7.94057C11.8382 7.64701 11.8382 6.69819 11.1698 6.40463L-0.239646 1.40104Z" fill="var(--fill-0, white)"/>
</g>
<defs>
<clipPath id="clip0_0_637">
<rect width="14" height="14" fill="white"/>
</clipPath>
</defs>
</svg>
