<svg preserveAspectRatio="none" width="100%" height="100%" overflow="visible" style="display: block;" viewBox="0 0 3.875 3.875" fill="none" xmlns="http://www.w3.org/2000/svg">
<g id="Group 1">
<path id="Vector" d="M1.9375 0.1875L1.56572 1.31781C1.5467 1.37565 1.51435 1.42823 1.47129 1.47129C1.42823 1.51435 1.37565 1.5467 1.31781 1.56572L0.1875 1.9375L1.31781 2.30928C1.37565 2.3283 1.42823 2.36065 1.47129 2.40371C1.51435 2.44677 1.5467 2.49935 1.56572 2.55719L1.9375 3.6875L2.30928 2.55719C2.3283 2.49935 2.36065 2.44677 2.40371 2.40371C2.44677 2.36065 2.49935 2.3283 2.55719 2.30928L3.6875 1.9375L2.55719 1.56572C2.49935 1.5467 2.44677 1.51435 2.40371 1.47129C2.36065 1.42823 2.3283 1.37565 2.30928 1.31781L1.9375 0.1875Z" fill="url(#paint0_linear_0_478)" stroke="url(#paint1_linear_0_478)" stroke-width="0.375" stroke-linecap="round" stroke-linejoin="round"/>
<path id="Vector_2" d="M1.9375 0.1875L1.56572 1.31781C1.5467 1.37565 1.51435 1.42823 1.47129 1.47129C1.42823 1.51435 1.37565 1.5467 1.31781 1.56572L0.1875 1.9375L1.31781 2.30928C1.37565 2.3283 1.42823 2.36065 1.47129 2.40371C1.51435 2.44677 1.5467 2.49935 1.56572 2.55719L1.9375 3.6875L2.30928 2.55719C2.3283 2.49935 2.36065 2.44677 2.40371 2.40371C2.44677 2.36065 2.49935 2.3283 2.55719 2.30928L3.6875 1.9375L2.55719 1.56572C2.49935 1.5467 2.44677 1.51435 2.40371 1.47129C2.36065 1.42823 2.3283 1.37565 2.30928 1.31781L1.9375 0.1875Z" fill="url(#paint2_linear_0_478)" stroke="url(#paint3_linear_0_478)" stroke-width="0.375" stroke-linecap="round" stroke-linejoin="round"/>
</g>
<defs>
<linearGradient id="paint0_linear_0_478" x1="3.74384" y1="0.0106702" x2="-0.495407" y2="0.827061" gradientUnits="userSpaceOnUse">
<stop stop-color="#006EFE"/>
<stop offset="1" stop-color="#5326BD"/>
</linearGradient>
<linearGradient id="paint1_linear_0_478" x1="3.74384" y1="0.0106702" x2="-0.495407" y2="0.827061" gradientUnits="userSpaceOnUse">
<stop stop-color="#006EFE"/>
<stop offset="1" stop-color="#5326BD"/>
</linearGradient>
<linearGradient id="paint2_linear_0_478" x1="3.74384" y1="0.0106702" x2="-0.495407" y2="0.827061" gradientUnits="userSpaceOnUse">
<stop stop-color="#006EFE"/>
<stop offset="1" stop-color="#5326BD"/>
</linearGradient>
<linearGradient id="paint3_linear_0_478" x1="3.74384" y1="0.0106702" x2="-0.495407" y2="0.827061" gradientUnits="userSpaceOnUse">
<stop stop-color="#006EFE"/>
<stop offset="1" stop-color="#5326BD"/>
</linearGradient>
</defs>
</svg>
