<svg width="32" height="32" viewBox="0 0 32 32" fill="none" xmlns="http://www.w3.org/2000/svg">
<path d="M16 4L13.4507 11.7507C13.3202 12.1473 13.0984 12.5078 12.8031 12.8031C12.5078 13.0984 12.1473 13.3202 11.7507 13.4507L4 16L11.7507 18.5493C12.1473 18.6798 12.5078 18.9016 12.8031 19.1969C13.0984 19.4922 13.3202 19.8527 13.4507 20.2493L16 28L18.5493 20.2493C18.6798 19.8527 18.9016 19.4922 19.1969 19.1969C19.4922 18.9016 19.8527 18.6798 20.2493 18.5493L28 16L20.2493 13.4507C19.8527 13.3202 19.4922 13.0984 19.1969 12.8031C18.9016 12.5078 18.6798 12.1473 18.5493 11.7507L16 4Z" fill="url(#paint0_linear_6100_26331)" stroke="url(#paint1_linear_6100_26331)" stroke-width="1.125" stroke-linecap="round" stroke-linejoin="round"/>
<path d="M6 2L5.15022 4.58356C5.10673 4.71578 5.0328 4.83595 4.93437 4.93437C4.83595 5.0328 4.71578 5.10673 4.58356 5.15022L2 6L4.58356 6.84978C4.71578 6.89327 4.83595 6.9672 4.93437 7.06563C5.0328 7.16405 5.10673 7.28422 5.15022 7.41644L6 10L6.84978 7.41644C6.89327 7.28422 6.9672 7.16405 7.06563 7.06563C7.16405 6.9672 7.28422 6.89327 7.41644 6.84978L10 6L7.41644 5.15022C7.28422 5.10673 7.16405 5.0328 7.06563 4.93437C6.9672 4.83595 6.89327 4.71578 6.84978 4.58356L6 2Z" fill="url(#paint2_linear_6100_26331)" stroke="url(#paint3_linear_6100_26331)" stroke-width="0.375" stroke-linecap="round" stroke-linejoin="round"/>
<path d="M6 2L5.15022 4.58356C5.10673 4.71578 5.0328 4.83595 4.93437 4.93437C4.83595 5.0328 4.71578 5.10673 4.58356 5.15022L2 6L4.58356 6.84978C4.71578 6.89327 4.83595 6.9672 4.93437 7.06563C5.0328 7.16405 5.10673 7.28422 5.15022 7.41644L6 10L6.84978 7.41644C6.89327 7.28422 6.9672 7.16405 7.06563 7.06563C7.16405 6.9672 7.28422 6.89327 7.41644 6.84978L10 6L7.41644 5.15022C7.28422 5.10673 7.16405 5.0328 7.06563 4.93437C6.9672 4.83595 6.89327 4.71578 6.84978 4.58356L6 2Z" fill="url(#paint4_linear_6100_26331)" stroke="url(#paint5_linear_6100_26331)" stroke-width="0.375" stroke-linecap="round" stroke-linejoin="round"/>
<path d="M26 22L25.1502 24.5836C25.1067 24.7158 25.0328 24.8359 24.9344 24.9344C24.8359 25.0328 24.7158 25.1067 24.5836 25.1502L22 26L24.5836 26.8498C24.7158 26.8933 24.8359 26.9672 24.9344 27.0656C25.0328 27.1641 25.1067 27.2842 25.1502 27.4164L26 30L26.8498 27.4164C26.8933 27.2842 26.9672 27.1641 27.0656 27.0656C27.1641 26.9672 27.2842 26.8933 27.4164 26.8498L30 26L27.4164 25.1502C27.2842 25.1067 27.1641 25.0328 27.0656 24.9344C26.9672 24.8359 26.8933 24.7158 26.8498 24.5836L26 22Z" fill="url(#paint6_linear_6100_26331)" stroke="url(#paint7_linear_6100_26331)" stroke-width="0.375" stroke-linecap="round" stroke-linejoin="round"/>
<defs>
<linearGradient id="paint0_linear_6100_26331" x1="28.3864" y1="2.78745" x2="-0.682789" y2="8.38556" gradientUnits="userSpaceOnUse">
<stop stop-color="#006EFE"/>
<stop offset="1" stop-color="#5326BD"/>
</linearGradient>
<linearGradient id="paint1_linear_6100_26331" x1="28.3864" y1="2.78745" x2="-0.682789" y2="8.38556" gradientUnits="userSpaceOnUse">
<stop stop-color="#006EFE"/>
<stop offset="1" stop-color="#5326BD"/>
</linearGradient>
<linearGradient id="paint2_linear_6100_26331" x1="10.1288" y1="1.59582" x2="0.43907" y2="3.46185" gradientUnits="userSpaceOnUse">
<stop stop-color="#006EFE"/>
<stop offset="1" stop-color="#5326BD"/>
</linearGradient>
<linearGradient id="paint3_linear_6100_26331" x1="10.1288" y1="1.59582" x2="0.43907" y2="3.46185" gradientUnits="userSpaceOnUse">
<stop stop-color="#006EFE"/>
<stop offset="1" stop-color="#5326BD"/>
</linearGradient>
<linearGradient id="paint4_linear_6100_26331" x1="10.1288" y1="1.59582" x2="0.43907" y2="3.46185" gradientUnits="userSpaceOnUse">
<stop stop-color="#006EFE"/>
<stop offset="1" stop-color="#5326BD"/>
</linearGradient>
<linearGradient id="paint5_linear_6100_26331" x1="10.1288" y1="1.59582" x2="0.43907" y2="3.46185" gradientUnits="userSpaceOnUse">
<stop stop-color="#006EFE"/>
<stop offset="1" stop-color="#5326BD"/>
</linearGradient>
<linearGradient id="paint6_linear_6100_26331" x1="30.1288" y1="21.5958" x2="20.4391" y2="23.4619" gradientUnits="userSpaceOnUse">
<stop stop-color="#006EFE"/>
<stop offset="1" stop-color="#5326BD"/>
</linearGradient>
<linearGradient id="paint7_linear_6100_26331" x1="30.1288" y1="21.5958" x2="20.4391" y2="23.4619" gradientUnits="userSpaceOnUse">
<stop stop-color="#006EFE"/>
<stop offset="1" stop-color="#5326BD"/>
</linearGradient>
</defs>
</svg>
