<svg preserveAspectRatio="none" width="100%" height="100%" overflow="visible" style="display: block;" viewBox="0 0 88.6385 23.9722" fill="none" xmlns="http://www.w3.org/2000/svg">
<g id="Group">
<g id="Group_2">
<path id="Vector" d="M44.2972 21.2545C44.8849 20.7969 45.4495 20.3394 46.0027 19.9047C46.3368 20.2021 46.6595 20.4995 47.0052 20.7741C47.9846 21.5863 49.137 21.8036 50.37 21.7121C51.0498 21.6663 51.6721 21.4833 52.2137 21.0486C52.8474 20.5453 53.1816 19.8703 53.3429 19.1039C53.5043 18.3489 53.4927 17.571 53.4927 16.8046C53.4927 16.7817 53.4812 16.7702 53.4697 16.7474C53.2047 16.919 52.9627 17.1134 52.6976 17.2621C51.4647 17.9714 50.1395 18.1315 48.7682 17.857C46.5327 17.4108 45.0232 16.061 44.2857 13.9676C43.2371 11.0276 44.3894 7.85889 47.1665 6.36032C48.2958 5.74259 49.5288 5.60532 50.7963 5.78835C51.7758 5.92562 52.64 6.30313 53.4121 6.92086C53.4467 6.94374 53.4697 6.96661 53.5043 6.98949C53.5158 6.98949 53.5273 6.98949 53.5619 6.98949C53.5619 6.64631 53.5619 6.31456 53.5619 5.97138C54.3339 5.97138 55.0945 5.97138 55.8665 5.97138C55.8665 6.02858 55.878 6.07434 55.878 6.13153C55.878 9.99807 55.878 13.8761 55.8665 17.7426C55.8665 18.7836 55.7167 19.8131 55.2904 20.7855C54.7603 22.0095 53.873 22.9018 52.6285 23.3937C50.0358 24.4232 47.6159 24.0686 45.3919 22.4099C44.9656 22.1239 44.6083 21.7235 44.2972 21.2545ZM53.4927 11.8741C53.4927 11.1992 53.4927 10.5128 53.4927 9.83792C53.4927 9.73497 53.4467 9.62057 53.389 9.55193C52.6055 8.6139 51.6029 8.07624 50.3584 8.00761C49.4135 7.95041 48.5262 8.16776 47.7888 8.77405C46.6249 9.7464 46.164 11.0162 46.3714 12.5033C46.671 14.5624 48.6645 16.0267 50.8194 15.6949C51.868 15.5348 52.7207 15.02 53.3775 14.1964C53.4351 14.1163 53.4812 14.0019 53.4812 13.9104C53.4927 13.224 53.4927 12.5491 53.4927 11.8741Z" fill="var(--fill-0, #001633)"/>
<path id="Vector_2" d="M11.9516 0C11.9516 5.9142 11.9516 11.8055 11.9516 17.7197C11.1911 17.7197 10.4305 17.7197 9.64696 17.7197C9.64696 17.3765 9.64696 17.0448 9.64696 16.6787C9.58934 16.7131 9.55477 16.7245 9.53173 16.7474C7.9761 17.9943 6.21305 18.2803 4.34629 17.7312C1.93794 17.0219 0.520583 15.3403 0.105748 12.9152C-0.274518 10.6959 0.370783 8.77407 2.04165 7.22974C3.18244 6.17731 4.54218 5.69685 6.09781 5.74261C7.34232 5.77693 8.44854 6.17731 9.43954 6.92088C9.47411 6.94376 9.49716 6.96663 9.5663 7.00095C9.5663 4.65586 9.5663 2.33365 9.5663 0C10.3729 0 11.1565 0 11.9516 0ZM9.5663 11.8627C9.5663 11.1878 9.5663 10.5014 9.5663 9.8265C9.5663 9.73498 9.54325 9.63203 9.48564 9.56339C8.64444 8.55672 7.57278 8.00763 6.23609 7.98475C5.37185 7.97331 4.5537 8.19066 3.88536 8.73975C2.68695 9.73498 2.2145 11.0276 2.45648 12.5491C2.77913 14.5739 4.76112 16.0267 6.91596 15.6721C7.94152 15.5005 8.77119 15.0086 9.43954 14.2078C9.53173 14.1049 9.5663 14.0019 9.5663 13.8646C9.5663 13.2011 9.5663 12.5377 9.5663 11.8627Z" fill="var(--fill-0, #001633)"/>
<path id="Vector_3" d="M25.7218 12.3546C22.6797 12.3546 19.6491 12.3546 16.5955 12.3546C16.607 12.4919 16.6185 12.6063 16.6415 12.7207C16.8374 13.7388 17.2984 14.5968 18.1626 15.2031C18.9808 15.7636 19.8796 15.9237 20.859 15.8322C21.9307 15.7293 22.7949 15.2031 23.6016 14.551C23.6822 14.4824 23.7629 14.4137 23.8435 14.3451C24.316 14.8256 24.7769 15.306 25.2494 15.7979C24.9267 16.1754 24.558 16.5072 24.1547 16.8046C22.9332 17.674 21.562 18.0172 20.087 17.9943C19.0153 17.9829 18.0013 17.7197 17.0794 17.1707C15.7888 16.4042 14.9707 15.2717 14.5789 13.8532C14.1064 12.183 14.1871 10.5243 14.9476 8.95711C15.8234 7.14968 17.2984 6.09725 19.3034 5.8227C20.4672 5.66255 21.5965 5.79982 22.6567 6.34891C23.809 6.93233 24.6041 7.84748 25.1457 8.99143C25.6066 9.96379 25.7679 10.9933 25.7679 12.0572C25.7679 12.1144 25.7679 12.1716 25.7564 12.2288C25.7449 12.2517 25.7333 12.286 25.7218 12.3546ZM16.8374 10.3413C18.9692 10.3413 21.101 10.3413 23.2328 10.3413C23.1176 9.10583 21.608 7.84748 20.1907 7.81317C18.4968 7.77885 17.1025 9.01431 16.8374 10.3413Z" fill="var(--fill-0, #001633)"/>
<path id="Vector_4" d="M70.1322 17.7198C69.3256 17.7198 68.542 17.7198 67.7354 17.7198C67.7354 17.6397 67.7354 17.5596 67.7354 17.4795C67.7354 15.4662 67.7354 13.4528 67.7239 11.428C67.7239 10.7646 67.6317 10.1011 67.286 9.51765C66.6753 8.4881 65.7304 7.9962 64.532 7.97333C63.1722 7.95045 62.1236 8.6025 61.2479 9.57485C61.1902 9.63205 61.1787 9.74644 61.1787 9.83796C61.1787 12.3775 61.1787 14.9056 61.1787 17.4452C61.1787 17.5253 61.1787 17.6054 61.1787 17.7083C60.3721 17.7083 59.5885 17.7083 58.7934 17.7083C58.7934 13.796 58.7934 9.89516 58.7934 5.98286C59.5539 5.98286 60.303 5.98286 61.0981 5.98286C61.0981 6.32604 61.0981 6.68067 61.0981 7.08105C61.294 6.93233 61.4438 6.8065 61.6051 6.70354C63.4373 5.4452 65.3616 5.38801 67.286 6.429C68.9799 7.33272 69.8672 8.79697 70.0401 10.6959C70.0861 11.1878 70.1092 11.6797 70.1092 12.1716C70.1207 13.9333 70.1092 15.7064 70.1092 17.4681C70.1322 17.5482 70.1322 17.6282 70.1322 17.7198Z" fill="var(--fill-0, #001633)"/>
<path id="Vector_5" d="M27.3927 16.3813C27.8306 15.8094 28.2339 15.2832 28.6372 14.7455C28.7063 14.7913 28.7755 14.837 28.8446 14.8828C29.8126 15.5348 30.8842 15.9009 32.0596 15.9123C32.6012 15.9238 33.1197 15.7865 33.5922 15.5005C34.3181 15.0658 34.5025 13.9562 33.5922 13.4643C33.1889 13.2469 32.751 13.0982 32.3246 12.9609C31.5295 12.6978 30.7114 12.4919 29.9278 12.2059C29.2479 11.9657 28.6602 11.5424 28.2454 10.9362C27.9112 10.4443 27.796 9.89517 27.7845 9.31175C27.773 8.31652 28.1302 7.48144 28.8792 6.81795C29.5014 6.26885 30.2505 5.97143 31.0571 5.83416C31.9559 5.674 32.8662 5.69688 33.7535 5.91423C34.6062 6.12014 35.3783 6.49764 36.0927 7.0353C35.7124 7.57295 35.3322 8.11061 34.9519 8.63682C34.6408 8.47667 34.3527 8.30508 34.0416 8.16781C33.1428 7.77886 32.2094 7.67591 31.2645 7.98478C30.8151 8.13349 30.4118 8.37372 30.2505 8.86561C30.0776 9.36895 30.1928 9.78077 30.6538 10.0439C30.9995 10.2384 31.3682 10.3985 31.7485 10.5243C32.5781 10.7989 33.4193 11.0277 34.2375 11.3022C34.7675 11.4738 35.2285 11.7712 35.6318 12.1487C36.3232 12.7779 36.6113 13.5787 36.5882 14.4938C36.5421 15.9352 35.747 16.8618 34.5025 17.4681C33.5 17.96 32.4399 18.0515 31.3452 17.9371C30.3657 17.8456 29.4208 17.6054 28.5565 17.1249C28.1763 16.9076 27.8075 16.6445 27.3927 16.3813Z" fill="var(--fill-0, #001633)"/>
<path id="Vector_6" d="M81.9896 5.98288C82.7617 5.98288 83.5107 5.98288 84.2943 5.98288C84.2943 6.42902 84.2943 6.87516 84.2943 7.37849C85.4811 6.05152 86.9676 5.71977 88.6385 5.9028C88.6385 6.64637 88.6385 7.38993 88.6385 8.12206C87.6936 7.97335 86.7948 8.08774 85.9536 8.54532C85.3198 8.8885 84.8013 9.36896 84.421 9.98669C84.3864 10.0553 84.3749 10.1468 84.3749 10.2269C84.3749 12.6521 84.3749 15.0658 84.3749 17.491C84.3749 17.5711 84.3749 17.6397 84.3749 17.7312C83.5798 17.7312 82.7962 17.7312 81.9896 17.7312C81.9896 13.8189 81.9896 9.90662 81.9896 5.98288Z" fill="var(--fill-0, #001633)"/>
<path id="Vector_7" d="M75.3753 17.7312C74.5687 17.7312 73.7966 17.7312 73.0015 17.7312C73.0015 13.8189 73.0015 9.91801 73.0015 5.99428C73.762 5.99428 74.5111 5.99428 75.2946 5.99428C75.2946 6.44042 75.2946 6.87512 75.2946 7.38989C76.493 6.05147 77.968 5.71973 79.6389 5.90276C79.6389 6.64633 79.6389 7.37845 79.6389 8.12202C78.8668 7.99618 78.1178 8.05338 77.4034 8.32793C76.5507 8.65967 75.8938 9.23165 75.4099 9.99809C75.3753 10.0667 75.3753 10.1582 75.3753 10.2383C75.3753 12.652 75.3753 15.0658 75.3753 17.4795C75.3753 17.5596 75.3753 17.6397 75.3753 17.7312Z" fill="var(--fill-0, #001633)"/>
<path id="Vector_8" d="M41.5432 17.7312C40.7827 17.7312 40.0336 17.7312 39.2846 17.7312C39.2501 17.7312 39.227 17.7197 39.1809 17.7197C39.1809 13.8074 39.1809 9.89514 39.1809 5.98284C39.976 5.98284 40.7596 5.98284 41.5432 5.98284C41.5432 9.89514 41.5432 13.8074 41.5432 17.7312Z" fill="var(--fill-0, #001633)"/>
<path id="Vector_9" d="M38.7891 1.81883C38.7891 0.937992 39.4575 0.240184 40.3333 0.240184C41.209 0.240184 41.9119 0.926553 41.9235 1.80739C41.935 2.64247 41.1975 3.36316 40.3333 3.36316C39.4805 3.35172 38.7891 2.67679 38.7891 1.81883Z" fill="var(--fill-0, #001633)"/>
</g>
</g>
</svg>
