<svg width="210" height="38" viewBox="0 0 210 38" fill="none" xmlns="http://www.w3.org/2000/svg">
<path d="M8 0.5H202C206.142 0.5 209.5 3.85786 209.5 8V30C209.5 34.1421 206.142 37.5 202 37.5H8C3.85786 37.5 0.5 34.1421 0.5 30V8C0.5 3.85786 3.85786 0.5 8 0.5Z" fill="white"/>
<path d="M8 0.5H202C206.142 0.5 209.5 3.85786 209.5 8V30C209.5 34.1421 206.142 37.5 202 37.5H8C3.85786 37.5 0.5 34.1421 0.5 30V8C0.5 3.85786 3.85786 0.5 8 0.5Z" stroke="#E0E5EB"/>
<path d="M34.1562 12.25C34.4141 12.25 34.625 12.4609 34.625 12.7187V14.125H36.0312C36.2891 14.125 36.5 14.3359 36.5 14.5937C36.5 14.8516 36.2891 15.0625 36.0312 15.0625H34.625V16.4687C34.625 16.7266 34.4141 16.9375 34.1562 16.9375C33.8984 16.9375 33.6875 16.7266 33.6875 16.4687V15.0625H32.2812C32.0234 15.0625 31.8125 14.8516 31.8125 14.5937C31.8125 14.3359 32.0234 14.125 32.2812 14.125H33.6875V12.7187C33.6875 12.4609 33.8984 12.25 34.1562 12.25ZM34.1562 20.6875C34.4141 20.6875 34.625 20.8984 34.625 21.1562V22.5625H36.0312C36.2891 22.5625 36.5 22.7734 36.5 23.0312C36.5 23.2891 36.2891 23.5 36.0312 23.5H34.625V24.9062C34.625 25.1641 34.4141 25.375 34.1562 25.375C33.8984 25.375 33.6875 25.1641 33.6875 24.9062V23.5H32.2812C32.0234 23.5 31.8125 23.2891 31.8125 23.0312C31.8125 22.7734 32.0234 22.5625 32.2812 22.5625H33.6875V21.1562C33.6875 20.8984 33.8984 20.6875 34.1562 20.6875ZM25.5078 17.6523L23.0879 18.7715L25.5078 19.8877C25.71 19.9814 25.8711 20.1426 25.9648 20.3447L27.0811 22.7646L28.1973 20.3447C28.291 20.1426 28.4521 19.9814 28.6543 19.8877L31.0742 18.7715L28.6543 17.6553C28.4521 17.5615 28.291 17.4004 28.1973 17.1982L27.0811 14.7783L25.9648 17.1982C25.8711 17.4004 25.71 17.5615 25.5078 17.6553V17.6523ZM25.1152 20.7402L21.7725 19.1963C21.6055 19.1201 21.5 18.9531 21.5 18.7715C21.5 18.5898 21.6055 18.4229 21.7725 18.3467L25.1152 16.8027L26.6562 13.46C26.7324 13.293 26.8994 13.1875 27.0811 13.1875C27.2627 13.1875 27.4297 13.293 27.5059 13.46L29.0498 16.8027L32.3926 18.3437C32.5596 18.4199 32.665 18.5869 32.665 18.7686C32.665 18.9502 32.5596 19.1172 32.3926 19.1934L29.0527 20.7402L27.5088 24.0801C27.4326 24.2471 27.2656 24.3525 27.084 24.3525C26.9023 24.3525 26.7354 24.2471 26.6592 24.0801L25.1152 20.7402Z" fill="#001633"/>
<path d="M51.432 24.126C50.732 24.126 50.0973 24.0093 49.528 23.776C48.9587 23.5427 48.4687 23.202 48.058 22.754C47.6567 22.306 47.3487 21.774 47.134 21.158C46.9193 20.5327 46.812 19.8327 46.812 19.058C46.812 18.2833 46.9193 17.588 47.134 16.972C47.3487 16.3467 47.6567 15.8147 48.058 15.376C48.4593 14.928 48.9447 14.5873 49.514 14.354C50.0833 14.1207 50.7227 14.004 51.432 14.004C52.132 14.004 52.7667 14.1207 53.336 14.354C53.9053 14.5873 54.3907 14.9233 54.792 15.362C55.2027 15.8007 55.5153 16.3327 55.73 16.958C55.9447 17.574 56.052 18.2693 56.052 19.044C56.052 19.8187 55.9447 20.5187 55.73 21.144C55.5153 21.7693 55.2027 22.306 54.792 22.754C54.3907 23.202 53.9053 23.5427 53.336 23.776C52.7667 24.0093 52.132 24.126 51.432 24.126ZM51.432 22.866C52.0853 22.866 52.6407 22.7167 53.098 22.418C53.5647 22.1193 53.9193 21.6853 54.162 21.116C54.414 20.5467 54.54 19.8607 54.54 19.058C54.54 18.2553 54.4187 17.5693 54.176 17C53.9333 16.4307 53.5787 16.0013 53.112 15.712C52.6547 15.4133 52.0947 15.264 51.432 15.264C50.7787 15.264 50.2187 15.4133 49.752 15.712C49.2947 16.0013 48.94 16.4307 48.688 17C48.4453 17.5693 48.324 18.2553 48.324 19.058C48.324 19.8513 48.4453 20.5373 48.688 21.116C48.94 21.6853 49.2947 22.1193 49.752 22.418C50.2187 22.7167 50.7787 22.866 51.432 22.866ZM57.8495 26.52V17.168H59.2355V18.708H59.0815C59.2308 18.204 59.5248 17.8027 59.9635 17.504C60.4021 17.196 60.9201 17.042 61.5175 17.042C62.1241 17.042 62.6515 17.1867 63.0995 17.476C63.5568 17.7653 63.9068 18.1713 64.1495 18.694C64.4015 19.2167 64.5275 19.8467 64.5275 20.584C64.5275 21.3027 64.4015 21.9327 64.1495 22.474C63.9068 23.006 63.5615 23.4167 63.1135 23.706C62.6655 23.986 62.1335 24.126 61.5175 24.126C60.9295 24.126 60.4161 23.9767 59.9775 23.678C59.5388 23.3793 59.2448 22.9827 59.0955 22.488H59.2635V26.52H57.8495ZM61.1675 23.034C61.7555 23.034 62.2221 22.824 62.5675 22.404C62.9221 21.984 63.0995 21.3773 63.0995 20.584C63.0995 19.7813 62.9221 19.1747 62.5675 18.764C62.2221 18.3533 61.7555 18.148 61.1675 18.148C60.5888 18.148 60.1221 18.3533 59.7675 18.764C59.4128 19.1747 59.2355 19.7813 59.2355 20.584C59.2355 21.3773 59.4128 21.984 59.7675 22.404C60.1221 22.824 60.5888 23.034 61.1675 23.034ZM69.327 24.126C68.5803 24.126 67.9363 23.986 67.395 23.706C66.863 23.4167 66.4476 23.0107 66.149 22.488C65.8596 21.956 65.715 21.326 65.715 20.598C65.715 19.8887 65.8596 19.268 66.149 18.736C66.4383 18.204 66.835 17.7887 67.339 17.49C67.843 17.1913 68.417 17.042 69.061 17.042C69.6956 17.042 70.237 17.182 70.685 17.462C71.1423 17.7327 71.4923 18.12 71.735 18.624C71.9776 19.128 72.099 19.73 72.099 20.43V20.906H66.835V20.038H71.147L70.909 20.234C70.909 19.534 70.755 18.9927 70.447 18.61C70.139 18.2273 69.6956 18.036 69.117 18.036C68.6783 18.036 68.305 18.1387 67.997 18.344C67.6983 18.5493 67.4696 18.834 67.311 19.198C67.1523 19.562 67.073 19.9867 67.073 20.472V20.556C67.073 21.0973 67.157 21.5547 67.325 21.928C67.5023 22.292 67.759 22.5673 68.095 22.754C68.431 22.9407 68.8463 23.034 69.341 23.034C69.733 23.034 70.1156 22.9733 70.489 22.852C70.8716 22.7213 71.231 22.5207 71.567 22.25L71.987 23.23C71.679 23.51 71.2823 23.7293 70.797 23.888C70.3116 24.0467 69.8216 24.126 69.327 24.126ZM73.6405 24V17.168H75.0125V18.624H74.8585C75.0638 18.1013 75.3858 17.7093 75.8245 17.448C76.2632 17.1773 76.7672 17.042 77.3365 17.042C77.8778 17.042 78.3258 17.1447 78.6805 17.35C79.0445 17.546 79.3152 17.8493 79.4925 18.26C79.6698 18.6613 79.7585 19.17 79.7585 19.786V24H78.3445V19.87C78.3445 19.478 78.2932 19.1607 78.1905 18.918C78.0878 18.666 77.9338 18.4793 77.7285 18.358C77.5232 18.2367 77.2572 18.176 76.9305 18.176C76.5572 18.176 76.2258 18.2553 75.9365 18.414C75.6565 18.5727 75.4372 18.8013 75.2785 19.1C75.1292 19.3987 75.0545 19.744 75.0545 20.136V24H73.6405ZM88.2266 24L84.7686 14.13H86.2526L89.1506 22.656H88.6326L91.6146 14.13H92.7206L95.6466 22.656H95.1846L98.1106 14.13H99.5246L96.0386 24H94.8206L91.9926 15.894H92.3006L89.4446 24H88.2266ZM103.009 24.126C102.318 24.126 101.721 23.9813 101.217 23.692C100.722 23.4027 100.335 22.992 100.055 22.46C99.7749 21.928 99.6349 21.3027 99.6349 20.584C99.6349 19.856 99.7749 19.2307 100.055 18.708C100.335 18.176 100.722 17.7653 101.217 17.476C101.721 17.1867 102.318 17.042 103.009 17.042C103.69 17.042 104.278 17.1867 104.773 17.476C105.277 17.7653 105.669 18.176 105.949 18.708C106.229 19.24 106.369 19.8653 106.369 20.584C106.369 21.3027 106.229 21.928 105.949 22.46C105.669 22.992 105.277 23.4027 104.773 23.692C104.278 23.9813 103.69 24.126 103.009 24.126ZM102.995 23.034C103.583 23.034 104.054 22.824 104.409 22.404C104.764 21.984 104.941 21.3773 104.941 20.584C104.941 19.7813 104.764 19.1747 104.409 18.764C104.054 18.3533 103.583 18.148 102.995 18.148C102.416 18.148 101.95 18.3533 101.595 18.764C101.24 19.1747 101.063 19.7813 101.063 20.584C101.063 21.3773 101.24 21.984 101.595 22.404C101.95 22.824 102.416 23.034 102.995 23.034ZM107.957 24V17.168H109.329V18.806H109.189C109.338 18.246 109.604 17.8213 109.987 17.532C110.379 17.2427 110.897 17.0747 111.541 17.028L112.003 17L112.101 18.204L111.247 18.288C110.64 18.344 110.178 18.5353 109.861 18.862C109.544 19.1887 109.385 19.6367 109.385 20.206V24H107.957ZM115.688 24.126C115.091 24.126 114.563 23.986 114.106 23.706C113.658 23.4167 113.308 23.006 113.056 22.474C112.804 21.9327 112.678 21.3027 112.678 20.584C112.678 19.8467 112.804 19.2167 113.056 18.694C113.308 18.1713 113.658 17.7653 114.106 17.476C114.563 17.1867 115.091 17.042 115.688 17.042C116.285 17.042 116.799 17.1913 117.228 17.49C117.667 17.7793 117.961 18.1713 118.11 18.666H117.956V14.13H119.37V24H117.984V22.46H118.124C117.975 22.964 117.681 23.37 117.242 23.678C116.813 23.9767 116.295 24.126 115.688 24.126ZM116.052 23.034C116.631 23.034 117.097 22.824 117.452 22.404C117.807 21.984 117.984 21.3773 117.984 20.584C117.984 19.7813 117.807 19.1747 117.452 18.764C117.097 18.3533 116.631 18.148 116.052 18.148C115.464 18.148 114.993 18.3533 114.638 18.764C114.283 19.1747 114.106 19.7813 114.106 20.584C114.106 21.3773 114.283 21.984 114.638 22.404C114.993 22.824 115.464 23.034 116.052 23.034ZM124.449 26.646C123.833 26.646 123.259 26.5713 122.727 26.422C122.195 26.2727 121.724 26.0487 121.313 25.75L121.747 24.742C122.018 24.9193 122.293 25.0687 122.573 25.19C122.863 25.3207 123.152 25.414 123.441 25.47C123.74 25.526 124.043 25.554 124.351 25.554C125.005 25.554 125.495 25.386 125.821 25.05C126.148 24.7233 126.311 24.238 126.311 23.594V22.166H126.437C126.297 22.6793 126.003 23.0853 125.555 23.384C125.107 23.6827 124.589 23.832 124.001 23.832C123.385 23.832 122.849 23.692 122.391 23.412C121.934 23.1227 121.579 22.726 121.327 22.222C121.075 21.7087 120.949 21.1113 120.949 20.43C120.949 19.7487 121.075 19.156 121.327 18.652C121.579 18.148 121.934 17.756 122.391 17.476C122.849 17.1867 123.385 17.042 124.001 17.042C124.599 17.042 125.117 17.1913 125.555 17.49C126.003 17.7887 126.293 18.1947 126.423 18.708H126.311V17.168H127.683V23.426C127.683 24.1353 127.562 24.728 127.319 25.204C127.077 25.6893 126.713 26.0487 126.227 26.282C125.751 26.5247 125.159 26.646 124.449 26.646ZM124.337 22.726C124.944 22.726 125.42 22.5207 125.765 22.11C126.12 21.6993 126.297 21.1393 126.297 20.43C126.297 19.73 126.12 19.1747 125.765 18.764C125.42 18.3533 124.944 18.148 124.337 18.148C123.74 18.148 123.264 18.3533 122.909 18.764C122.555 19.1747 122.377 19.73 122.377 20.43C122.377 21.1393 122.555 21.6993 122.909 22.11C123.264 22.5207 123.74 22.726 124.337 22.726ZM132.874 24.126C132.127 24.126 131.483 23.986 130.942 23.706C130.41 23.4167 129.994 23.0107 129.696 22.488C129.406 21.956 129.262 21.326 129.262 20.598C129.262 19.8887 129.406 19.268 129.696 18.736C129.985 18.204 130.382 17.7887 130.886 17.49C131.39 17.1913 131.964 17.042 132.608 17.042C133.242 17.042 133.784 17.182 134.232 17.462C134.689 17.7327 135.039 18.12 135.282 18.624C135.524 19.128 135.646 19.73 135.646 20.43V20.906H130.382V20.038H134.694L134.456 20.234C134.456 19.534 134.302 18.9927 133.994 18.61C133.686 18.2273 133.242 18.036 132.664 18.036C132.225 18.036 131.852 18.1387 131.544 18.344C131.245 18.5493 131.016 18.834 130.858 19.198C130.699 19.562 130.62 19.9867 130.62 20.472V20.556C130.62 21.0973 130.704 21.5547 130.872 21.928C131.049 22.292 131.306 22.5673 131.642 22.754C131.978 22.9407 132.393 23.034 132.888 23.034C133.28 23.034 133.662 22.9733 134.036 22.852C134.418 22.7213 134.778 22.5207 135.114 22.25L135.534 23.23C135.226 23.51 134.829 23.7293 134.344 23.888C133.858 24.0467 133.368 24.126 132.874 24.126ZM137.187 24V17.168H138.559V18.624H138.405C138.611 18.1013 138.933 17.7093 139.371 17.448C139.81 17.1773 140.314 17.042 140.883 17.042C141.425 17.042 141.873 17.1447 142.227 17.35C142.591 17.546 142.862 17.8493 143.039 18.26C143.217 18.6613 143.305 19.17 143.305 19.786V24H141.891V19.87C141.891 19.478 141.84 19.1607 141.737 18.918C141.635 18.666 141.481 18.4793 141.275 18.358C141.07 18.2367 140.804 18.176 140.477 18.176C140.104 18.176 139.773 18.2553 139.483 18.414C139.203 18.5727 138.984 18.8013 138.825 19.1C138.676 19.3987 138.601 19.744 138.601 20.136V24H137.187ZM145.128 15.586V14.116H146.78V15.586H145.128ZM145.254 24V17.168H146.668V24H145.254ZM151.864 24.126C151.117 24.126 150.473 23.986 149.932 23.706C149.4 23.4167 148.985 23.0107 148.686 22.488C148.397 21.956 148.252 21.326 148.252 20.598C148.252 19.8887 148.397 19.268 148.686 18.736C148.975 18.204 149.372 17.7887 149.876 17.49C150.38 17.1913 150.954 17.042 151.598 17.042C152.233 17.042 152.774 17.182 153.222 17.462C153.679 17.7327 154.029 18.12 154.272 18.624C154.515 19.128 154.636 19.73 154.636 20.43V20.906H149.372V20.038H153.684L153.446 20.234C153.446 19.534 153.292 18.9927 152.984 18.61C152.676 18.2273 152.233 18.036 151.654 18.036C151.215 18.036 150.842 18.1387 150.534 18.344C150.235 18.5493 150.007 18.834 149.848 19.198C149.689 19.562 149.61 19.9867 149.61 20.472V20.556C149.61 21.0973 149.694 21.5547 149.862 21.928C150.039 22.292 150.296 22.5673 150.632 22.754C150.968 22.9407 151.383 23.034 151.878 23.034C152.27 23.034 152.653 22.9733 153.026 22.852C153.409 22.7213 153.768 22.5207 154.104 22.25L154.524 23.23C154.216 23.51 153.819 23.7293 153.334 23.888C152.849 24.0467 152.359 24.126 151.864 24.126ZM164.433 24.126C163.435 24.126 162.581 23.9207 161.871 23.51C161.162 23.0993 160.616 22.516 160.233 21.76C159.86 20.9947 159.673 20.094 159.673 19.058C159.673 18.022 159.86 17.126 160.233 16.37C160.616 15.614 161.162 15.0307 161.871 14.62C162.581 14.2093 163.435 14.004 164.433 14.004C165.105 14.004 165.731 14.1113 166.309 14.326C166.897 14.5313 167.387 14.83 167.779 15.222L167.275 16.384C166.846 16.0013 166.403 15.726 165.945 15.558C165.497 15.3807 165.007 15.292 164.475 15.292C163.411 15.292 162.599 15.6187 162.039 16.272C161.479 16.9253 161.199 17.854 161.199 19.058C161.199 20.262 161.479 21.1953 162.039 21.858C162.599 22.5113 163.411 22.838 164.475 22.838C165.007 22.838 165.497 22.754 165.945 22.586C166.403 22.4087 166.846 22.1287 167.275 21.746L167.779 22.908C167.387 23.3 166.897 23.6033 166.309 23.818C165.731 24.0233 165.105 24.126 164.433 24.126ZM169.316 24V14.13H170.73V18.624H170.534C170.74 18.1013 171.062 17.7093 171.5 17.448C171.939 17.1773 172.443 17.042 173.012 17.042C173.554 17.042 174.002 17.1447 174.356 17.35C174.72 17.546 174.991 17.8493 175.168 18.26C175.346 18.6613 175.434 19.17 175.434 19.786V24H174.02V19.87C174.02 19.478 173.969 19.1607 173.866 18.918C173.764 18.666 173.61 18.4793 173.404 18.358C173.199 18.2367 172.933 18.176 172.606 18.176C172.233 18.176 171.902 18.2553 171.612 18.414C171.332 18.5727 171.113 18.8013 170.954 19.1C170.805 19.3987 170.73 19.744 170.73 20.136V24H169.316ZM179.567 24.126C179.091 24.126 178.661 24.0327 178.279 23.846C177.905 23.6593 177.611 23.4073 177.397 23.09C177.182 22.7727 177.075 22.4133 177.075 22.012C177.075 21.508 177.201 21.1113 177.453 20.822C177.714 20.5233 178.139 20.3133 178.727 20.192C179.324 20.0613 180.127 19.996 181.135 19.996H181.793V20.864H181.149C180.645 20.864 180.22 20.8827 179.875 20.92C179.529 20.9573 179.254 21.018 179.049 21.102C178.843 21.1767 178.694 21.284 178.601 21.424C178.517 21.564 178.475 21.732 178.475 21.928C178.475 22.2827 178.596 22.572 178.839 22.796C179.081 23.0107 179.417 23.118 179.847 23.118C180.192 23.118 180.495 23.0387 180.757 22.88C181.018 22.712 181.223 22.488 181.373 22.208C181.531 21.928 181.611 21.606 181.611 21.242V19.632C181.611 19.1 181.499 18.7173 181.275 18.484C181.051 18.2507 180.682 18.134 180.169 18.134C179.777 18.134 179.385 18.1947 178.993 18.316C178.601 18.428 178.199 18.61 177.789 18.862L177.355 17.868C177.597 17.7 177.877 17.5553 178.195 17.434C178.512 17.3127 178.843 17.2193 179.189 17.154C179.543 17.0793 179.884 17.042 180.211 17.042C180.836 17.042 181.349 17.14 181.751 17.336C182.161 17.532 182.465 17.8307 182.661 18.232C182.857 18.6333 182.955 19.1513 182.955 19.786V24H181.625V22.474H181.751C181.676 22.8193 181.536 23.118 181.331 23.37C181.135 23.6127 180.887 23.7993 180.589 23.93C180.29 24.0607 179.949 24.126 179.567 24.126ZM187.814 24.126C186.965 24.126 186.326 23.9067 185.896 23.468C185.476 23.0293 185.266 22.3947 185.266 21.564V18.26H183.936V17.168H185.266V15.11H186.68V17.168H188.794V18.26H186.68V21.452C186.68 21.9467 186.783 22.32 186.988 22.572C187.203 22.824 187.548 22.95 188.024 22.95C188.164 22.95 188.304 22.9313 188.444 22.894C188.594 22.8567 188.738 22.8193 188.878 22.782L189.102 23.846C188.962 23.93 188.766 23.9953 188.514 24.042C188.272 24.098 188.038 24.126 187.814 24.126Z" fill="#001633"/>
</svg>
