<svg width="200" height="38" viewBox="0 0 200 38" fill="none" xmlns="http://www.w3.org/2000/svg">
<rect x="0.5" y="0.5" width="199" height="37" rx="7.5" fill="white"/>
<rect x="0.5" y="0.5" width="199" height="37" rx="7.5" stroke="#006EFE"/>
<path d="M25.768 24.126C24.6947 24.126 23.7893 23.9253 23.052 23.524C22.3147 23.1133 21.7547 22.53 21.372 21.774C20.9987 21.018 20.812 20.1173 20.812 19.072C20.812 18.0267 21.0033 17.126 21.386 16.37C21.778 15.614 22.3333 15.0307 23.052 14.62C23.78 14.2093 24.6527 14.004 25.67 14.004C26.1367 14.004 26.58 14.0507 27 14.144C27.42 14.228 27.8073 14.3587 28.162 14.536C28.526 14.7133 28.8433 14.9327 29.114 15.194L28.596 16.328C28.1573 15.9547 27.7 15.6887 27.224 15.53C26.7573 15.362 26.2393 15.278 25.67 15.278C24.578 15.278 23.7473 15.6093 23.178 16.272C22.6087 16.9253 22.324 17.8587 22.324 19.072C22.324 20.3133 22.618 21.256 23.206 21.9C23.794 22.544 24.6667 22.866 25.824 22.866C26.244 22.866 26.6547 22.8287 27.056 22.754C27.4667 22.67 27.8587 22.5533 28.232 22.404L27.938 23.132V19.87H25.53V18.778H29.156V23.426C28.8853 23.566 28.5587 23.6873 28.176 23.79C27.8027 23.8927 27.406 23.972 26.986 24.028C26.5753 24.0933 26.1693 24.126 25.768 24.126ZM34.4402 24.126C33.6936 24.126 33.0496 23.986 32.5082 23.706C31.9762 23.4167 31.5609 23.0107 31.2622 22.488C30.9729 21.956 30.8282 21.326 30.8282 20.598C30.8282 19.8887 30.9729 19.268 31.2622 18.736C31.5516 18.204 31.9482 17.7887 32.4522 17.49C32.9562 17.1913 33.5302 17.042 34.1742 17.042C34.8089 17.042 35.3502 17.182 35.7982 17.462C36.2556 17.7327 36.6056 18.12 36.8482 18.624C37.0909 19.128 37.2122 19.73 37.2122 20.43V20.906H31.9482V20.038H36.2602L36.0222 20.234C36.0222 19.534 35.8682 18.9927 35.5602 18.61C35.2522 18.2273 34.8089 18.036 34.2302 18.036C33.7916 18.036 33.4182 18.1387 33.1102 18.344C32.8116 18.5493 32.5829 18.834 32.4242 19.198C32.2656 19.562 32.1862 19.9867 32.1862 20.472V20.556C32.1862 21.0973 32.2702 21.5547 32.4382 21.928C32.6156 22.292 32.8722 22.5673 33.2082 22.754C33.5442 22.9407 33.9596 23.034 34.4542 23.034C34.8462 23.034 35.2289 22.9733 35.6022 22.852C35.9849 22.7213 36.3442 22.5207 36.6802 22.25L37.1002 23.23C36.7922 23.51 36.3956 23.7293 35.9102 23.888C35.4249 24.0467 34.9349 24.126 34.4402 24.126ZM38.7538 24V17.168H40.1258V18.624H39.9718C40.1771 18.1013 40.4991 17.7093 40.9378 17.448C41.3764 17.1773 41.8804 17.042 42.4498 17.042C42.9911 17.042 43.4391 17.1447 43.7938 17.35C44.1578 17.546 44.4284 17.8493 44.6058 18.26C44.7831 18.6613 44.8718 19.17 44.8718 19.786V24H43.4578V19.87C43.4578 19.478 43.4064 19.1607 43.3038 18.918C43.2011 18.666 43.0471 18.4793 42.8418 18.358C42.6364 18.2367 42.3704 18.176 42.0438 18.176C41.6704 18.176 41.3391 18.2553 41.0498 18.414C40.7698 18.5727 40.5504 18.8013 40.3918 19.1C40.2424 19.3987 40.1678 19.744 40.1678 20.136V24H38.7538ZM50.0262 24.126C49.2795 24.126 48.6355 23.986 48.0942 23.706C47.5622 23.4167 47.1468 23.0107 46.8482 22.488C46.5588 21.956 46.4142 21.326 46.4142 20.598C46.4142 19.8887 46.5588 19.268 46.8482 18.736C47.1375 18.204 47.5342 17.7887 48.0382 17.49C48.5422 17.1913 49.1162 17.042 49.7602 17.042C50.3948 17.042 50.9362 17.182 51.3842 17.462C51.8415 17.7327 52.1915 18.12 52.4342 18.624C52.6768 19.128 52.7982 19.73 52.7982 20.43V20.906H47.5342V20.038H51.8462L51.6082 20.234C51.6082 19.534 51.4542 18.9927 51.1462 18.61C50.8382 18.2273 50.3948 18.036 49.8162 18.036C49.3775 18.036 49.0042 18.1387 48.6962 18.344C48.3975 18.5493 48.1688 18.834 48.0102 19.198C47.8515 19.562 47.7722 19.9867 47.7722 20.472V20.556C47.7722 21.0973 47.8562 21.5547 48.0242 21.928C48.2015 22.292 48.4582 22.5673 48.7942 22.754C49.1302 22.9407 49.5455 23.034 50.0402 23.034C50.4322 23.034 50.8148 22.9733 51.1882 22.852C51.5708 22.7213 51.9302 22.5207 52.2662 22.25L52.6862 23.23C52.3782 23.51 51.9815 23.7293 51.4962 23.888C51.0108 24.0467 50.5208 24.126 50.0262 24.126ZM54.3397 24V17.168H55.7117V18.806H55.5717C55.721 18.246 55.987 17.8213 56.3697 17.532C56.7617 17.2427 57.2797 17.0747 57.9237 17.028L58.3857 17L58.4837 18.204L57.6297 18.288C57.023 18.344 56.561 18.5353 56.2437 18.862C55.9264 19.1887 55.7677 19.6367 55.7677 20.206V24H54.3397ZM61.678 24.126C61.202 24.126 60.7727 24.0327 60.39 23.846C60.0167 23.6593 59.7227 23.4073 59.508 23.09C59.2933 22.7727 59.186 22.4133 59.186 22.012C59.186 21.508 59.312 21.1113 59.564 20.822C59.8253 20.5233 60.25 20.3133 60.838 20.192C61.4353 20.0613 62.238 19.996 63.246 19.996H63.904V20.864H63.26C62.756 20.864 62.3313 20.8827 61.986 20.92C61.6407 20.9573 61.3653 21.018 61.16 21.102C60.9547 21.1767 60.8053 21.284 60.712 21.424C60.628 21.564 60.586 21.732 60.586 21.928C60.586 22.2827 60.7073 22.572 60.95 22.796C61.1927 23.0107 61.5287 23.118 61.958 23.118C62.3033 23.118 62.6067 23.0387 62.868 22.88C63.1293 22.712 63.3347 22.488 63.484 22.208C63.6427 21.928 63.722 21.606 63.722 21.242V19.632C63.722 19.1 63.61 18.7173 63.386 18.484C63.162 18.2507 62.7933 18.134 62.28 18.134C61.888 18.134 61.496 18.1947 61.104 18.316C60.712 18.428 60.3107 18.61 59.9 18.862L59.466 17.868C59.7087 17.7 59.9887 17.5553 60.306 17.434C60.6233 17.3127 60.9547 17.2193 61.3 17.154C61.6547 17.0793 61.9953 17.042 62.322 17.042C62.9473 17.042 63.4607 17.14 63.862 17.336C64.2727 17.532 64.576 17.8307 64.772 18.232C64.968 18.6333 65.066 19.1513 65.066 19.786V24H63.736V22.474H63.862C63.7873 22.8193 63.6473 23.118 63.442 23.37C63.246 23.6127 62.9987 23.7993 62.7 23.93C62.4013 24.0607 62.0607 24.126 61.678 24.126ZM69.9255 24.126C69.0762 24.126 68.4369 23.9067 68.0075 23.468C67.5875 23.0293 67.3775 22.3947 67.3775 21.564V18.26H66.0475V17.168H67.3775V15.11H68.7915V17.168H70.9055V18.26H68.7915V21.452C68.7915 21.9467 68.8942 22.32 69.0995 22.572C69.3142 22.824 69.6595 22.95 70.1355 22.95C70.2755 22.95 70.4155 22.9313 70.5555 22.894C70.7049 22.8567 70.8495 22.8193 70.9895 22.782L71.2135 23.846C71.0735 23.93 70.8775 23.9953 70.6255 24.042C70.3829 24.098 70.1495 24.126 69.9255 24.126ZM75.2645 24.126C74.5178 24.126 73.8738 23.986 73.3325 23.706C72.8005 23.4167 72.3851 23.0107 72.0865 22.488C71.7971 21.956 71.6525 21.326 71.6525 20.598C71.6525 19.8887 71.7971 19.268 72.0865 18.736C72.3758 18.204 72.7725 17.7887 73.2765 17.49C73.7805 17.1913 74.3545 17.042 74.9985 17.042C75.6331 17.042 76.1745 17.182 76.6225 17.462C77.0798 17.7327 77.4298 18.12 77.6725 18.624C77.9151 19.128 78.0365 19.73 78.0365 20.43V20.906H72.7725V20.038H77.0845L76.8465 20.234C76.8465 19.534 76.6925 18.9927 76.3845 18.61C76.0765 18.2273 75.6331 18.036 75.0545 18.036C74.6158 18.036 74.2425 18.1387 73.9345 18.344C73.6358 18.5493 73.4071 18.834 73.2485 19.198C73.0898 19.562 73.0105 19.9867 73.0105 20.472V20.556C73.0105 21.0973 73.0945 21.5547 73.2625 21.928C73.4398 22.292 73.6965 22.5673 74.0325 22.754C74.3685 22.9407 74.7838 23.034 75.2785 23.034C75.6705 23.034 76.0531 22.9733 76.4265 22.852C76.8091 22.7213 77.1685 22.5207 77.5045 22.25L77.9245 23.23C77.6165 23.51 77.2198 23.7293 76.7345 23.888C76.2491 24.0467 75.7591 24.126 75.2645 24.126ZM83.4377 24V14.13H84.6557L88.5337 21.354H88.0997L91.9497 14.13H93.1397V24H91.8377V16.188H92.1457L88.7437 22.488H87.8617L84.4177 16.174H84.7537V24H83.4377ZM97.4983 24.126C97.0223 24.126 96.593 24.0327 96.2103 23.846C95.837 23.6593 95.543 23.4073 95.3283 23.09C95.1136 22.7727 95.0063 22.4133 95.0063 22.012C95.0063 21.508 95.1323 21.1113 95.3843 20.822C95.6456 20.5233 96.0703 20.3133 96.6583 20.192C97.2556 20.0613 98.0583 19.996 99.0663 19.996H99.7243V20.864H99.0803C98.5763 20.864 98.1516 20.8827 97.8063 20.92C97.461 20.9573 97.1856 21.018 96.9803 21.102C96.775 21.1767 96.6256 21.284 96.5323 21.424C96.4483 21.564 96.4063 21.732 96.4063 21.928C96.4063 22.2827 96.5276 22.572 96.7703 22.796C97.013 23.0107 97.349 23.118 97.7783 23.118C98.1236 23.118 98.427 23.0387 98.6883 22.88C98.9496 22.712 99.155 22.488 99.3043 22.208C99.463 21.928 99.5423 21.606 99.5423 21.242V19.632C99.5423 19.1 99.4303 18.7173 99.2063 18.484C98.9823 18.2507 98.6136 18.134 98.1003 18.134C97.7083 18.134 97.3163 18.1947 96.9243 18.316C96.5323 18.428 96.131 18.61 95.7203 18.862L95.2863 17.868C95.529 17.7 95.809 17.5553 96.1263 17.434C96.4436 17.3127 96.775 17.2193 97.1203 17.154C97.475 17.0793 97.8156 17.042 98.1423 17.042C98.7676 17.042 99.281 17.14 99.6823 17.336C100.093 17.532 100.396 17.8307 100.592 18.232C100.788 18.6333 100.886 19.1513 100.886 19.786V24H99.5563V22.474H99.6823C99.6076 22.8193 99.4676 23.118 99.2623 23.37C99.0663 23.6127 98.819 23.7993 98.5203 23.93C98.2216 24.0607 97.881 24.126 97.4983 24.126ZM102.834 24V17.168H104.206V18.624H104.052C104.257 18.1013 104.579 17.7093 105.018 17.448C105.457 17.1773 105.961 17.042 106.53 17.042C107.071 17.042 107.519 17.1447 107.874 17.35C108.238 17.546 108.509 17.8493 108.686 18.26C108.863 18.6613 108.952 19.17 108.952 19.786V24H107.538V19.87C107.538 19.478 107.487 19.1607 107.384 18.918C107.281 18.666 107.127 18.4793 106.922 18.358C106.717 18.2367 106.451 18.176 106.124 18.176C105.751 18.176 105.419 18.2553 105.13 18.414C104.85 18.5727 104.631 18.8013 104.472 19.1C104.323 19.3987 104.248 19.744 104.248 20.136V24H102.834ZM113.336 24.126C112.786 24.126 112.324 24.0233 111.95 23.818C111.586 23.6127 111.311 23.3093 111.124 22.908C110.947 22.4973 110.858 21.984 110.858 21.368V17.168H112.272V21.382C112.272 21.746 112.319 22.0493 112.412 22.292C112.515 22.5347 112.669 22.712 112.874 22.824C113.089 22.936 113.355 22.992 113.672 22.992C114.027 22.992 114.34 22.9127 114.61 22.754C114.881 22.5953 115.091 22.3667 115.24 22.068C115.39 21.7693 115.464 21.424 115.464 21.032V17.168H116.878V24H115.506V22.502H115.688C115.502 23.0247 115.203 23.426 114.792 23.706C114.382 23.986 113.896 24.126 113.336 24.126ZM121.265 24.126C120.901 24.126 120.546 24.0933 120.201 24.028C119.856 23.9627 119.538 23.8693 119.249 23.748C118.96 23.6267 118.703 23.4773 118.479 23.3L118.885 22.348C119.118 22.5067 119.366 22.6467 119.627 22.768C119.888 22.88 120.159 22.964 120.439 23.02C120.728 23.076 121.008 23.104 121.279 23.104C121.774 23.104 122.147 23.0153 122.399 22.838C122.651 22.6607 122.777 22.4227 122.777 22.124C122.777 21.8813 122.693 21.6947 122.525 21.564C122.357 21.424 122.105 21.3167 121.769 21.242L120.439 20.976C119.86 20.8547 119.422 20.64 119.123 20.332C118.824 20.024 118.675 19.632 118.675 19.156C118.675 18.7267 118.792 18.3533 119.025 18.036C119.258 17.7187 119.585 17.476 120.005 17.308C120.425 17.1307 120.91 17.042 121.461 17.042C121.778 17.042 122.086 17.0747 122.385 17.14C122.684 17.2053 122.964 17.2987 123.225 17.42C123.496 17.5413 123.724 17.6953 123.911 17.882L123.505 18.834C123.328 18.6753 123.122 18.54 122.889 18.428C122.665 18.316 122.432 18.232 122.189 18.176C121.946 18.1107 121.704 18.078 121.461 18.078C120.966 18.078 120.593 18.1713 120.341 18.358C120.098 18.5353 119.977 18.778 119.977 19.086C119.977 19.3193 120.052 19.5107 120.201 19.66C120.35 19.8093 120.584 19.9167 120.901 19.982L122.231 20.248C122.838 20.3693 123.295 20.5747 123.603 20.864C123.92 21.1533 124.079 21.5453 124.079 22.04C124.079 22.4693 123.962 22.8427 123.729 23.16C123.496 23.4773 123.164 23.72 122.735 23.888C122.315 24.0467 121.825 24.126 121.265 24.126ZM128.662 24.126C127.962 24.126 127.356 23.9813 126.842 23.692C126.338 23.3933 125.946 22.978 125.666 22.446C125.386 21.9047 125.246 21.27 125.246 20.542C125.246 19.8233 125.386 19.2027 125.666 18.68C125.946 18.1573 126.338 17.756 126.842 17.476C127.356 17.1867 127.962 17.042 128.662 17.042C129.092 17.042 129.516 17.1167 129.936 17.266C130.356 17.406 130.702 17.6113 130.972 17.882L130.524 18.876C130.272 18.6333 129.988 18.456 129.67 18.344C129.353 18.2227 129.054 18.162 128.774 18.162C128.112 18.162 127.598 18.372 127.234 18.792C126.88 19.2027 126.702 19.7907 126.702 20.556C126.702 21.3213 126.88 21.9233 127.234 22.362C127.598 22.7913 128.112 23.006 128.774 23.006C129.054 23.006 129.353 22.95 129.67 22.838C129.988 22.7167 130.272 22.5347 130.524 22.292L130.972 23.3C130.702 23.552 130.352 23.7527 129.922 23.902C129.502 24.0513 129.082 24.126 128.662 24.126ZM132.187 24V17.168H133.559V18.806H133.419C133.569 18.246 133.835 17.8213 134.217 17.532C134.609 17.2427 135.127 17.0747 135.771 17.028L136.233 17L136.331 18.204L135.477 18.288C134.871 18.344 134.409 18.5353 134.091 18.862C133.774 19.1887 133.615 19.6367 133.615 20.206V24H132.187ZM137.284 15.586V14.116H138.936V15.586H137.284ZM137.41 24V17.168H138.824V24H137.41ZM140.814 26.52V17.168H142.2V18.708H142.046C142.196 18.204 142.49 17.8027 142.928 17.504C143.367 17.196 143.885 17.042 144.482 17.042C145.089 17.042 145.616 17.1867 146.064 17.476C146.522 17.7653 146.872 18.1713 147.114 18.694C147.366 19.2167 147.492 19.8467 147.492 20.584C147.492 21.3027 147.366 21.9327 147.114 22.474C146.872 23.006 146.526 23.4167 146.078 23.706C145.63 23.986 145.098 24.126 144.482 24.126C143.894 24.126 143.381 23.9767 142.942 23.678C142.504 23.3793 142.21 22.9827 142.06 22.488H142.228V26.52H140.814ZM144.132 23.034C144.72 23.034 145.187 22.824 145.532 22.404C145.887 21.984 146.064 21.3773 146.064 20.584C146.064 19.7813 145.887 19.1747 145.532 18.764C145.187 18.3533 144.72 18.148 144.132 18.148C143.554 18.148 143.087 18.3533 142.732 18.764C142.378 19.1747 142.2 19.7813 142.2 20.584C142.2 21.3773 142.378 21.984 142.732 22.404C143.087 22.824 143.554 23.034 144.132 23.034ZM151.929 24.126C151.08 24.126 150.441 23.9067 150.011 23.468C149.591 23.0293 149.381 22.3947 149.381 21.564V18.26H148.051V17.168H149.381V15.11H150.795V17.168H152.909V18.26H150.795V21.452C150.795 21.9467 150.898 22.32 151.103 22.572C151.318 22.824 151.663 22.95 152.139 22.95C152.279 22.95 152.419 22.9313 152.559 22.894C152.709 22.8567 152.853 22.8193 152.993 22.782L153.217 23.846C153.077 23.93 152.881 23.9953 152.629 24.042C152.387 24.098 152.153 24.126 151.929 24.126Z" fill="#006EFE"/>
<rect width="18" height="18" transform="translate(162 10)" fill="white"/>
<path d="M177.855 19.3523C178.048 19.1585 178.048 18.8397 177.855 18.6459L172.354 13.1453C172.16 12.9516 171.842 12.9516 171.648 13.1453C171.454 13.3391 171.454 13.6579 171.648 13.8517L176.295 18.4991H164.5C164.225 18.4991 164 18.7241 164 18.9991C164 19.2741 164.225 19.4992 164.5 19.4992H176.295L171.648 24.1466C171.454 24.3403 171.454 24.6591 171.648 24.8529C171.842 25.0467 172.16 25.0467 172.354 24.8529L177.855 19.3523Z" fill="#006EFE"/>
</svg>
