<svg width="40" height="40" viewBox="0 0 40 40" fill="none" xmlns="http://www.w3.org/2000/svg">
<path d="M27.5831 12.574C28.2822 12.574 28.847 13.1273 28.847 13.8121V26.1931C28.847 26.8779 28.2822 27.4312 27.5831 27.4312H18.7359V12.574H27.5831ZM12.4164 12.574H17.472V27.4312H12.4164C11.7174 27.4312 11.1526 26.8779 11.1526 26.1931V13.8121C11.1526 13.1273 11.7174 12.574 12.4164 12.574ZM12.4164 11.3359C11.0222 11.3359 9.88867 12.4464 9.88867 13.8121V26.1931C9.88867 27.5589 11.0222 28.6693 12.4164 28.6693H27.5831C28.9773 28.6693 30.1109 27.5589 30.1109 26.1931V13.8121C30.1109 12.4464 28.9773 11.3359 27.5831 11.3359H12.4164ZM13.0484 13.8121C12.7008 13.8121 12.4164 14.0907 12.4164 14.4312C12.4164 14.7717 12.7008 15.0502 13.0484 15.0502H15.5762C15.9237 15.0502 16.2081 14.7717 16.2081 14.4312C16.2081 14.0907 15.9237 13.8121 15.5762 13.8121H13.0484ZM12.4164 16.9074C12.4164 17.2478 12.7008 17.5264 13.0484 17.5264H15.5762C15.9237 17.5264 16.2081 17.2478 16.2081 16.9074C16.2081 16.5669 15.9237 16.2883 15.5762 16.2883H13.0484C12.7008 16.2883 12.4164 16.5669 12.4164 16.9074ZM13.0484 18.7645C12.7008 18.7645 12.4164 19.0431 12.4164 19.3836C12.4164 19.724 12.7008 20.0026 13.0484 20.0026H15.5762C15.9237 20.0026 16.2081 19.724 16.2081 19.3836C16.2081 19.0431 15.9237 18.7645 15.5762 18.7645H13.0484Z" fill="#29323D"/>
</svg>
