<svg width="50" height="57" viewBox="0 0 50 57" fill="none" xmlns="http://www.w3.org/2000/svg">
<path d="M6.94531 48.0425C6.94531 46.4736 8.2172 45.2017 9.78616 45.2017H24.9374L42.9294 43.7812V49.9364C42.9294 50.4594 42.5055 50.8834 41.9825 50.8834H9.78616C8.2172 50.8834 6.94531 49.6115 6.94531 48.0425Z" fill="#A3B0C2"/>
<path d="M10.0869 9.73438H40.7285C41.3931 9.73455 41.9316 10.2738 41.9316 10.9385V49.1553C41.9316 49.8199 41.3931 50.3592 40.7285 50.3594H8.88281L8.88281 10.9385C8.88284 10.2737 9.42218 9.7344 10.0869 9.73438Z" fill="#FFF9F0"/>
<path d="M10.0869 9.73438H40.7285C41.3931 9.73455 41.9316 10.2738 41.9316 10.9385V49.1553C41.9316 49.8199 41.3931 50.3592 40.7285 50.3594H8.88281L8.88281 10.9385C8.88284 10.2737 9.42218 9.7344 10.0869 9.73438Z" stroke="#C2CBD6" stroke-width="0.094695"/>
<path d="M10.0869 9.26562H40.7285C41.3931 9.2658 41.9316 9.80509 41.9316 10.4697V48.6865C41.9316 49.3512 41.3931 49.8904 40.7285 49.8906H8.88281L8.88281 10.4697C8.88284 9.80499 9.42218 9.26565 10.0869 9.26562Z" fill="#FFF9F0"/>
<path d="M10.0869 9.26562H40.7285C41.3931 9.2658 41.9316 9.80509 41.9316 10.4697V48.6865C41.9316 49.3512 41.3931 49.8904 40.7285 49.8906H8.88281L8.88281 10.4697C8.88284 9.80499 9.42218 9.26565 10.0869 9.26562Z" stroke="#C2CBD6" stroke-width="0.094695"/>
<path d="M10.0869 8.78906H40.7285C41.3931 8.78924 41.9316 9.32852 41.9316 9.99316V48.21C41.9316 48.8746 41.3931 49.4139 40.7285 49.4141H8.88281L8.88281 9.99316C8.88284 9.32843 9.42218 8.78908 10.0869 8.78906Z" fill="#FFF9F0"/>
<path d="M10.0869 8.78906H40.7285C41.3931 8.78924 41.9316 9.32852 41.9316 9.99316V48.21C41.9316 48.8746 41.3931 49.4139 40.7285 49.4141H8.88281L8.88281 9.99316C8.88284 9.32843 9.42218 8.78908 10.0869 8.78906Z" stroke="#C2CBD6" stroke-width="0.094695"/>
<path d="M10.0869 9.26562H40.7285C41.3931 9.2658 41.9316 9.80509 41.9316 10.4697V47.7393C41.9316 48.4039 41.3931 48.9432 40.7285 48.9434H8.88281L8.88281 10.4697C8.88283 9.80499 9.42218 9.26565 10.0869 9.26562Z" fill="#FFF9F0"/>
<path d="M10.0869 9.26562H40.7285C41.3931 9.2658 41.9316 9.80509 41.9316 10.4697V47.7393C41.9316 48.4039 41.3931 48.9432 40.7285 48.9434H8.88281L8.88281 10.4697C8.88283 9.80499 9.42218 9.26565 10.0869 9.26562Z" stroke="#C2CBD6" stroke-width="0.094695"/>
<path d="M10.0869 8.78906H40.7285C41.3931 8.78924 41.9316 9.32852 41.9316 9.99316V47.2627C41.9316 47.9274 41.3931 48.4666 40.7285 48.4668H8.88281L8.88281 9.99316C8.88283 9.32843 9.42218 8.78908 10.0869 8.78906Z" fill="#FFF9F0"/>
<path d="M10.0869 8.78906H40.7285C41.3931 8.78924 41.9316 9.32852 41.9316 9.99316V47.2627C41.9316 47.9274 41.3931 48.4666 40.7285 48.4668H8.88281L8.88281 9.99316C8.88283 9.32843 9.42218 8.78908 10.0869 8.78906Z" stroke="#C2CBD6" stroke-width="0.094695"/>
<path d="M10.0869 8.3125H40.7285C41.3931 8.31268 41.9316 8.85196 41.9316 9.5166V46.7861C41.9316 47.4508 41.3931 47.9901 40.7285 47.9902H8.88281L8.88281 9.5166C8.88283 8.85187 9.42218 8.31252 10.0869 8.3125Z" fill="#FFF9F0"/>
<path d="M10.0869 8.3125H40.7285C41.3931 8.31268 41.9316 8.85196 41.9316 9.5166V46.7861C41.9316 47.4508 41.3931 47.9901 40.7285 47.9902H8.88281L8.88281 9.5166C8.88283 8.85187 9.42218 8.31252 10.0869 8.3125Z" stroke="#C2CBD6" stroke-width="0.094695"/>
<path d="M10.0869 8.78906H40.7285C41.3931 8.78924 41.9316 9.32852 41.9316 9.99316V46.3164C41.9315 46.9809 41.393 47.5194 40.7285 47.5195H8.88281L8.88281 9.99316C8.88284 9.32843 9.42218 8.78908 10.0869 8.78906Z" fill="#FFF9F0"/>
<path d="M10.0869 8.78906H40.7285C41.3931 8.78924 41.9316 9.32852 41.9316 9.99316V46.3164C41.9315 46.9809 41.393 47.5194 40.7285 47.5195H8.88281L8.88281 9.99316C8.88284 9.32843 9.42218 8.78908 10.0869 8.78906Z" stroke="#C2CBD6" stroke-width="0.094695"/>
<path d="M10.0869 7.36719L40.7285 7.36719C41.3931 7.36737 41.9316 7.90665 41.9316 8.57129V45.8408C41.9316 46.5055 41.3931 47.0447 40.7285 47.0449H8.88281L8.88281 8.57129C8.88283 7.90655 9.42218 7.36721 10.0869 7.36719Z" fill="#FFF9F0"/>
<path d="M10.0869 7.36719L40.7285 7.36719C41.3931 7.36737 41.9316 7.90665 41.9316 8.57129V45.8408C41.9316 46.5055 41.3931 47.0447 40.7285 47.0449H8.88281L8.88281 8.57129C8.88283 7.90655 9.42218 7.36721 10.0869 7.36719Z" stroke="#C2CBD6" stroke-width="0.094695"/>
<path d="M10.0869 7.84375L40.7285 7.84375C41.3931 7.84393 41.9316 8.38321 41.9316 9.04785V45.3711C41.9315 46.0356 41.393 46.574 40.7285 46.5742H8.88281L8.88281 9.04785C8.88284 8.38312 9.42218 7.84377 10.0869 7.84375Z" fill="#FFF9F0"/>
<path d="M10.0869 7.84375L40.7285 7.84375C41.3931 7.84393 41.9316 8.38321 41.9316 9.04785V45.3711C41.9315 46.0356 41.393 46.574 40.7285 46.5742H8.88281L8.88281 9.04785C8.88284 8.38312 9.42218 7.84377 10.0869 7.84375Z" stroke="#C2CBD6" stroke-width="0.094695"/>
<path d="M10.0869 7.36719L40.7285 7.36719C41.3931 7.36737 41.9316 7.90665 41.9316 8.57129V44.8945C41.9315 45.5591 41.393 46.0975 40.7285 46.0977H8.88281L8.88281 8.57129C8.88284 7.90655 9.42218 7.36721 10.0869 7.36719Z" fill="#FFF9F0"/>
<path d="M10.0869 7.36719L40.7285 7.36719C41.3931 7.36737 41.9316 7.90665 41.9316 8.57129V44.8945C41.9315 45.5591 41.393 46.0975 40.7285 46.0977H8.88281L8.88281 8.57129C8.88284 7.90655 9.42218 7.36721 10.0869 7.36719Z" stroke="#C2CBD6" stroke-width="0.094695"/>
<path d="M10.0869 7.36719L40.7285 7.36719C41.3931 7.36737 41.9316 7.90665 41.9316 8.57129V44.8945C41.9315 45.5591 41.393 46.0975 40.7285 46.0977H8.88281L8.88281 8.57129C8.88284 7.90655 9.42218 7.36721 10.0869 7.36719Z" fill="#FFF9F0"/>
<path d="M10.0869 7.36719L40.7285 7.36719C41.3931 7.36737 41.9316 7.90665 41.9316 8.57129V44.8945C41.9315 45.5591 41.393 46.0975 40.7285 46.0977H8.88281L8.88281 8.57129C8.88284 7.90655 9.42218 7.36721 10.0869 7.36719Z" stroke="#C2CBD6" stroke-width="0.094695"/>
<path d="M10.0869 6.89844L40.7285 6.89844C41.3931 6.89862 41.9316 7.4379 41.9316 8.10254V44.4258C41.9315 45.0903 41.393 45.6287 40.7285 45.6289H8.88281L8.88281 8.10254C8.88284 7.4378 9.42218 6.89846 10.0869 6.89844Z" fill="#FFF9F0"/>
<path d="M10.0869 6.89844L40.7285 6.89844C41.3931 6.89862 41.9316 7.4379 41.9316 8.10254V44.4258C41.9315 45.0903 41.393 45.6287 40.7285 45.6289H8.88281L8.88281 8.10254C8.88284 7.4378 9.42218 6.89846 10.0869 6.89844Z" stroke="#C2CBD6" stroke-width="0.094695"/>
<path d="M10.0869 6.42188L40.7285 6.42188C41.3931 6.42205 41.9316 6.96134 41.9316 7.62598V43.9492C41.9315 44.6138 41.393 45.1522 40.7285 45.1523H8.88281L8.88281 7.62598C8.88284 6.96124 9.42218 6.4219 10.0869 6.42188Z" fill="#FFF9F0"/>
<path d="M10.0869 6.42188L40.7285 6.42188C41.3931 6.42205 41.9316 6.96134 41.9316 7.62598V43.9492C41.9315 44.6138 41.393 45.1522 40.7285 45.1523H8.88281L8.88281 7.62598C8.88284 6.96124 9.42218 6.4219 10.0869 6.42188Z" stroke="#C2CBD6" stroke-width="0.094695"/>
<path d="M13.5742 46.1484H17.362V51.8301L15.4975 49.5303L13.5742 51.8301V46.1484Z" fill="#8596AD"/>
<g clip-path="url(#clip0_6001_113648)">
<mask id="path-17-inside-1_6001_113648" fill="white">
<path d="M9.78516 6.375L42.9284 6.375V45.2H9.78516L9.78516 6.375Z"/>
</mask>
<path d="M9.78516 6.375L42.9284 6.375V45.2H9.78516L9.78516 6.375Z" fill="#E0E5EB"/>
<path d="M9.78516 45.2H10.0692L10.0692 6.375H9.78516H9.50107L9.50107 45.2H9.78516Z" fill="white" mask="url(#path-17-inside-1_6001_113648)"/>
<path d="M14.2666 17.0938V11.6961H15.6926C15.9911 11.6961 16.2273 11.7626 16.4011 11.8955C16.5769 12.0284 16.7026 12.2175 16.7783 12.4628C16.8539 12.7082 16.8918 13.0006 16.8918 13.34C16.8918 13.6671 16.8601 13.9523 16.7967 14.1956C16.7333 14.4369 16.6198 14.6239 16.4563 14.7568C16.2948 14.8897 16.0647 14.9562 15.7662 14.9562H15.3277V17.0938H14.2666ZM15.3277 13.9871H15.389C15.5894 13.9871 15.7121 13.9308 15.757 13.8184C15.802 13.7059 15.8245 13.5403 15.8245 13.3216C15.8245 13.1171 15.802 12.9597 15.757 12.8493C15.7141 12.7368 15.6108 12.6806 15.4473 12.6806H15.3277V13.9871ZM17.1854 17.0938V12.4935H18.3017V13.0057C18.3549 12.8278 18.4489 12.6888 18.5838 12.5886C18.7188 12.4884 18.8885 12.4383 19.0929 12.4383V13.3553C19.003 13.3553 18.8956 13.3655 18.7709 13.386C18.6462 13.4044 18.5368 13.4309 18.4428 13.4657C18.3487 13.4984 18.3017 13.5352 18.3017 13.5761V17.0938H17.1854ZM19.3252 12.2114V11.2974H20.4231V12.2114H19.3252ZM19.3252 17.0938V12.4935H20.4231V17.0938H19.3252ZM20.8271 17.0938V12.4935H21.9251V13.0793C21.966 12.9034 22.0416 12.7542 22.152 12.6315C22.2645 12.5068 22.4198 12.4444 22.6182 12.4444C22.9371 12.4444 23.1682 12.5426 23.3113 12.7389C23.4564 12.9351 23.529 13.204 23.529 13.5454V17.0938H22.4464V13.6589C22.4464 13.5689 22.428 13.4861 22.3912 13.4105C22.3544 13.3328 22.291 13.294 22.2011 13.294C22.1173 13.294 22.0549 13.3236 22.014 13.3829C21.9752 13.4401 21.9506 13.5127 21.9404 13.6006C21.9302 13.6865 21.9251 13.7724 21.9251 13.8582V17.0938H20.8271ZM24.8745 17.1428C24.5781 17.1428 24.3777 17.0805 24.2734 16.9557C24.1712 16.829 24.1201 16.6358 24.1201 16.3761V13.5086H23.8104V12.6714H24.1201V11.6961H25.1874V12.6714H25.4971V13.5086H25.1874V16.1185C25.1874 16.1941 25.1996 16.2473 25.2242 16.278C25.2487 16.3086 25.2957 16.324 25.3652 16.324C25.4143 16.324 25.4583 16.3199 25.4971 16.3117V17.06C25.4726 17.0682 25.3959 17.0835 25.2671 17.106C25.1383 17.1306 25.0074 17.1428 24.8745 17.1428ZM26.6556 17.1428C26.4 17.1428 26.2047 17.0835 26.0698 16.9649C25.9369 16.8464 25.8459 16.6838 25.7968 16.4773C25.7478 16.2708 25.7232 16.0367 25.7232 15.775C25.7232 15.4949 25.7508 15.2659 25.806 15.088C25.8613 14.9081 25.9553 14.7609 26.0882 14.6464C26.2231 14.5319 26.4082 14.4348 26.6433 14.3551L27.3241 14.122V13.6497C27.3241 13.4023 27.2434 13.2786 27.0819 13.2786C26.9346 13.2786 26.861 13.3788 26.861 13.5792V13.8552H25.7938C25.7917 13.8388 25.7907 13.8184 25.7907 13.7938C25.7907 13.7673 25.7907 13.7376 25.7907 13.7049C25.7907 13.2469 25.8981 12.9229 26.1127 12.7327C26.3295 12.5405 26.6719 12.4444 27.1401 12.4444C27.3855 12.4444 27.6053 12.4884 27.7995 12.5763C27.9937 12.6622 28.1471 12.79 28.2595 12.9597C28.374 13.1294 28.4313 13.3389 28.4313 13.5884V17.0938H27.3395V16.5479C27.2863 16.74 27.1984 16.8873 27.0757 16.9895C26.953 17.0917 26.813 17.1428 26.6556 17.1428ZM27.088 16.2902C27.1779 16.2902 27.2393 16.2524 27.272 16.1768C27.3047 16.1011 27.3211 16.0193 27.3211 15.9314V14.6495C27.1698 14.7108 27.0522 14.7885 26.9684 14.8826C26.8846 14.9746 26.8426 15.1105 26.8426 15.2905V15.8824C26.8426 16.1543 26.9244 16.2902 27.088 16.2902ZM30.66 17.1428C30.4801 17.1428 30.3339 17.0989 30.2215 17.0109C30.109 16.921 30.0191 16.785 29.9516 16.6031V17.0938H28.8353V11.6961H29.9516V12.9842C30.0191 12.8145 30.1121 12.6826 30.2307 12.5886C30.3513 12.4925 30.523 12.4444 30.7459 12.4444C31.0464 12.4444 31.2581 12.5538 31.3807 12.7726C31.5055 12.9914 31.5678 13.2776 31.5678 13.6313V15.8946C31.5678 16.1297 31.5351 16.3424 31.4697 16.5325C31.4063 16.7206 31.3071 16.8699 31.1722 16.9803C31.0393 17.0886 30.8686 17.1428 30.66 17.1428ZM30.2061 16.2872C30.3227 16.2872 30.3932 16.2299 30.4177 16.1154C30.4423 16.0009 30.4546 15.8599 30.4546 15.6922V13.895C30.4546 13.7254 30.4423 13.5843 30.4177 13.4718C30.3932 13.3573 30.3237 13.3001 30.2092 13.3001C30.0906 13.3001 30.018 13.3584 29.9915 13.4749C29.9649 13.5894 29.9516 13.7294 29.9516 13.895V15.6922C29.9516 15.8578 29.9649 15.9989 29.9915 16.1154C30.018 16.2299 30.0896 16.2872 30.2061 16.2872ZM31.9442 17.0938V11.6961H33.0605V17.0938H31.9442ZM34.7588 17.1428C34.4316 17.1428 34.171 17.0815 33.9767 16.9588C33.7825 16.8361 33.6435 16.6593 33.5596 16.4282C33.4758 16.1972 33.4339 15.9192 33.4339 15.5941V13.7448C33.4339 13.3175 33.5566 12.9944 33.8019 12.7757C34.0473 12.5548 34.3846 12.4444 34.814 12.4444C35.6972 12.4444 36.1388 12.8779 36.1388 13.7448V14.0791C36.1388 14.4839 36.1347 14.7558 36.1266 14.8948H34.5318V15.7842C34.5318 15.866 34.5369 15.9468 34.5471 16.0265C34.5574 16.1042 34.5799 16.1686 34.6146 16.2197C34.6514 16.2708 34.7097 16.2964 34.7894 16.2964C34.9039 16.2964 34.9755 16.2473 35.0041 16.1492C35.0327 16.049 35.047 15.9192 35.047 15.7597V15.3181H36.1388V15.5787C36.1388 15.9222 36.0959 16.2105 36.01 16.4436C35.9262 16.6746 35.7831 16.8494 35.5807 16.968C35.3803 17.0845 35.1063 17.1428 34.7588 17.1428ZM34.5257 14.3489H35.047V13.7294C35.047 13.5638 35.0266 13.4452 34.9857 13.3737C34.9448 13.3001 34.8835 13.2633 34.8017 13.2633C34.7138 13.2633 34.6453 13.298 34.5962 13.3676C34.5492 13.4371 34.5257 13.5577 34.5257 13.7294V14.3489ZM14.2666 24.0938V18.6961H15.7294C16.122 18.6961 16.4072 18.7922 16.5851 18.9844C16.765 19.1746 16.855 19.4894 16.855 19.929V20.1651C16.855 20.4187 16.809 20.6241 16.717 20.7816C16.627 20.939 16.489 21.0423 16.3029 21.0913C16.5462 21.1527 16.7088 21.2968 16.7906 21.5237C16.8744 21.7486 16.9163 22.0236 16.9163 22.3487C16.9163 22.6983 16.8836 23.004 16.8182 23.2657C16.7527 23.5274 16.6341 23.7308 16.4624 23.876C16.2907 24.0212 16.0463 24.0938 15.7294 24.0938H14.2666ZM15.3215 20.7294H15.5424C15.6425 20.7294 15.7069 20.6906 15.7356 20.6129C15.7642 20.5352 15.7785 20.4422 15.7785 20.3338V19.791C15.7785 19.6172 15.7018 19.5303 15.5485 19.5303H15.3215V20.7294ZM15.4289 23.143C15.709 23.143 15.849 23.0101 15.849 22.7443V22.0696C15.849 21.9163 15.8255 21.7957 15.7785 21.7078C15.7335 21.6178 15.6477 21.5728 15.5209 21.5728H15.3215V23.1369C15.3665 23.141 15.4023 23.143 15.4289 23.143ZM18.5593 24.1428C17.6433 24.1428 17.1854 23.6675 17.1854 22.7167V20.8705C17.1854 20.4371 17.307 20.0915 17.5503 19.8339C17.7936 19.5743 18.13 19.4444 18.5593 19.4444C18.9907 19.4444 19.3281 19.5743 19.5714 19.8339C19.8147 20.0915 19.9363 20.4371 19.9363 20.8705V22.7167C19.9363 23.6675 19.4773 24.1428 18.5593 24.1428ZM18.5593 23.2964C18.6513 23.2964 18.7167 23.2637 18.7556 23.1982C18.7965 23.1308 18.8169 23.0459 18.8169 22.9437V20.6957C18.8169 20.4279 18.731 20.294 18.5593 20.294C18.3876 20.294 18.3017 20.4279 18.3017 20.6957V22.9437C18.3017 23.0459 18.3211 23.1308 18.36 23.1982C18.4009 23.2637 18.4673 23.2964 18.5593 23.2964ZM21.6499 24.1428C20.7339 24.1428 20.2759 23.6675 20.2759 22.7167V20.8705C20.2759 20.4371 20.3976 20.0915 20.6409 19.8339C20.8842 19.5743 21.2205 19.4444 21.6499 19.4444C22.0813 19.4444 22.4186 19.5743 22.6619 19.8339C22.9052 20.0915 23.0269 20.4371 23.0269 20.8705V22.7167C23.0269 23.6675 22.5679 24.1428 21.6499 24.1428ZM21.6499 23.2964C21.7419 23.2964 21.8073 23.2637 21.8461 23.1982C21.887 23.1308 21.9075 23.0459 21.9075 22.9437V20.6957C21.9075 20.4279 21.8216 20.294 21.6499 20.294C21.4781 20.294 21.3922 20.4279 21.3922 20.6957V22.9437C21.3922 23.0459 21.4117 23.1308 21.4505 23.1982C21.4914 23.2637 21.5579 23.2964 21.6499 23.2964ZM23.4033 24.0938V18.6961H24.4889V21.0791L25.0164 19.4935H26.1542L25.4642 21.4931L26.3413 24.0938H25.1728L24.4889 21.9255V24.0938H23.4033Z" fill="#8596AD"/>
</g>
<path d="M6.94531 10.7396V9.21585C6.94531 7.64689 8.2172 6.375 9.78616 6.375V45.2C8.4219 45.2 7.25943 46.1903 7.0427 47.5373L6.94531 48.1425L6.94531 10.7396Z" fill="#C2CBD6"/>
<defs>
<clipPath id="clip0_6001_113648">
<path d="M9.78516 6.375L41.9815 6.375C42.5045 6.375 42.9284 6.79896 42.9284 7.32195V44.253C42.9284 44.776 42.5045 45.2 41.9815 45.2H9.78516L9.78516 6.375Z" fill="white"/>
</clipPath>
</defs>
</svg>
