<svg width="122" height="24" viewBox="0 0 122 24" fill="none" xmlns="http://www.w3.org/2000/svg">
<path d="M27.333 12.0028H10.0828L0 0.757812H17.2387L27.333 12.0028Z" fill="url(#paint0_linear_6001_113546)"/>
<path d="M0 23.2336H17.2387L27.333 12H10.0828L0 23.2336Z" fill="url(#paint1_linear_6001_113546)"/>
<path d="M76.6307 21.2678C77.2184 20.8102 77.783 20.3526 78.3362 19.9179C78.6703 20.2154 78.993 20.5128 79.3387 20.7873C80.3182 21.5995 81.4705 21.8169 82.7035 21.7254C83.3833 21.6796 84.0056 21.4966 84.5472 21.0619C85.1809 20.5585 85.5151 19.8836 85.6764 19.1172C85.8378 18.3622 85.8262 17.5843 85.8262 16.8178C85.8262 16.7949 85.8147 16.7835 85.8032 16.7606C85.5382 16.9322 85.2962 17.1267 85.0311 17.2754C83.7982 17.9847 82.473 18.1448 81.1017 17.8703C78.8662 17.4241 77.3567 16.0743 76.6192 13.9808C75.5706 11.0409 76.7229 7.87216 79.5 6.37359C80.6293 5.75586 81.8623 5.61859 83.1298 5.80162C84.1093 5.93889 84.9735 6.3164 85.7456 6.93413C85.7802 6.95701 85.8032 6.97989 85.8378 7.00276C85.8493 7.00276 85.8608 7.00276 85.8954 7.00276C85.8954 6.65958 85.8954 6.32784 85.8954 5.98465C86.6674 5.98465 87.428 5.98465 88.2 5.98465C88.2 6.04185 88.2115 6.08761 88.2115 6.1448C88.2115 10.0113 88.2116 13.8893 88.2 17.7559C88.2 18.7969 88.0502 19.8264 87.6239 20.7988C87.0938 22.0228 86.2065 22.9151 84.962 23.407C82.3693 24.4365 79.9494 24.0819 77.7254 22.4232C77.2991 22.1372 76.9419 21.7368 76.6307 21.2678ZM85.8262 11.8874C85.8262 11.2125 85.8262 10.5261 85.8262 9.85119C85.8262 9.74824 85.7802 9.63384 85.7225 9.56521C84.939 8.62717 83.9364 8.08951 82.6919 8.02088C81.747 7.96368 80.8597 8.18103 80.1223 8.78732C78.9584 9.75968 78.4975 11.0295 78.7049 12.5166C79.0045 14.5757 80.998 16.0399 83.1529 15.7082C84.2015 15.548 85.0542 15.0333 85.711 14.2096C85.7686 14.1296 85.8147 14.0152 85.8147 13.9236C85.8262 13.2373 85.8262 12.5623 85.8262 11.8874Z" fill="#001633"/>
<path d="M44.2856 0.015625C44.2856 5.92983 44.2856 11.8212 44.2856 17.7354C43.5251 17.7354 42.7645 17.7354 41.9809 17.7354C41.9809 17.3922 41.9809 17.0604 41.9809 16.6944C41.9233 16.7287 41.8888 16.7401 41.8657 16.763C40.3101 18.0099 38.547 18.2959 36.6803 17.7468C34.2719 17.0375 32.8546 15.3559 32.4397 12.9308C32.0595 10.7115 32.7048 8.78969 34.3756 7.24537C35.5164 6.19294 36.8762 5.71248 38.4318 5.75824C39.6763 5.79255 40.7825 6.19294 41.7735 6.9365C41.8081 6.95938 41.8311 6.98226 41.9003 7.01658C41.9003 4.67149 41.9003 2.34928 41.9003 0.015625C42.7069 0.015625 43.4905 0.015625 44.2856 0.015625ZM41.9003 11.8784C41.9003 11.2034 41.9003 10.5171 41.9003 9.84213C41.9003 9.75061 41.8772 9.64765 41.8196 9.57902C40.9784 8.57234 39.9068 8.02325 38.5701 8.00037C37.7058 7.98893 36.8877 8.20628 36.2193 8.75538C35.0209 9.75061 34.5485 11.0433 34.7905 12.5647C35.1131 14.5895 37.0951 16.0423 39.2499 15.6877C40.2755 15.5161 41.1052 15.0242 41.7735 14.2234C41.8657 14.1205 41.9003 14.0175 41.9003 13.8803C41.9003 13.2168 41.9003 12.5533 41.9003 11.8784Z" fill="#001633"/>
<path d="M58.0555 12.368C55.0134 12.368 51.9828 12.368 48.9291 12.368C48.9407 12.5052 48.9522 12.6196 48.9752 12.734C49.1711 13.7522 49.6321 14.6101 50.4963 15.2164C51.3145 15.7769 52.2133 15.9371 53.1927 15.8456C54.2644 15.7426 55.1286 15.2164 55.9353 14.5644C56.0159 14.4957 56.0966 14.4271 56.1772 14.3584C56.6497 14.8389 57.1106 15.3194 57.5831 15.8113C57.2604 16.1888 56.8917 16.5205 56.4884 16.8179C55.2669 17.6873 53.8956 18.0305 52.4207 18.0076C51.349 17.9962 50.335 17.7331 49.4131 17.184C48.1225 16.4175 47.3044 15.285 46.9126 13.8665C46.4401 12.1964 46.5208 10.5377 47.2813 8.97045C48.1571 7.16302 49.6321 6.11059 51.6371 5.83604C52.8009 5.67589 53.9302 5.81316 54.9904 6.36225C56.1427 6.94567 56.9378 7.86083 57.4794 9.00477C57.9403 9.97713 58.1016 11.0067 58.1016 12.0705C58.1016 12.1277 58.1016 12.1849 58.0901 12.2421C58.0786 12.265 58.067 12.2993 58.0555 12.368ZM49.1711 10.3546C51.3029 10.3546 53.4347 10.3546 55.5665 10.3546C55.4513 9.11917 53.9417 7.86083 52.5244 7.82651C50.8305 7.79219 49.4362 9.02765 49.1711 10.3546Z" fill="#001633"/>
<path d="M102.466 17.739C101.659 17.739 100.876 17.739 100.069 17.739C100.069 17.6589 100.069 17.5788 100.069 17.4987C100.069 15.4854 100.069 13.4721 100.057 11.4473C100.057 10.7838 99.9652 10.1203 99.6195 9.53688C99.0088 8.50732 98.0639 8.01543 96.8655 7.99255C95.5058 7.96967 94.4572 8.62172 93.5814 9.59407C93.5238 9.65127 93.5123 9.76566 93.5123 9.85718C93.5123 12.3967 93.5123 14.9249 93.5123 17.4644C93.5123 17.5445 93.5123 17.6246 93.5123 17.7275C92.7056 17.7275 91.9221 17.7275 91.127 17.7275C91.127 13.8152 91.127 9.91438 91.127 6.00208C91.8875 6.00208 92.6365 6.00208 93.4316 6.00208C93.4316 6.34526 93.4316 6.69989 93.4316 7.10027C93.6275 6.95156 93.7773 6.82572 93.9386 6.72277C95.7708 5.46442 97.6952 5.40723 99.6195 6.44822C101.313 7.35194 102.201 8.81619 102.374 10.7151C102.42 11.207 102.443 11.6989 102.443 12.1908C102.454 13.9525 102.443 15.7256 102.443 17.4873C102.466 17.5674 102.466 17.6475 102.466 17.739Z" fill="#001633"/>
<path d="M59.7266 16.3935C60.1644 15.8216 60.5678 15.2953 60.9711 14.7577C61.0402 14.8035 61.1094 14.8492 61.1785 14.895C62.1464 15.547 63.2181 15.9131 64.3935 15.9245C64.9351 15.936 65.4536 15.7987 65.9261 15.5127C66.652 15.078 66.8364 13.9684 65.9261 13.4765C65.5227 13.2591 65.0849 13.1104 64.6585 12.9731C63.8634 12.71 63.0452 12.5041 62.2617 12.2181C61.5818 11.9779 60.9941 11.5546 60.5793 10.9484C60.2451 10.4565 60.1299 9.90736 60.1184 9.32395C60.1068 8.32871 60.4641 7.49363 61.2131 6.83014C61.8353 6.28105 62.5843 5.98362 63.3909 5.84635C64.2898 5.6862 65.2001 5.70908 66.0874 5.92643C66.9401 6.13234 67.7121 6.50984 68.4266 7.04749C68.0463 7.58515 67.6661 8.1228 67.2858 8.64902C66.9747 8.48887 66.6866 8.31727 66.3755 8.18C65.4766 7.79106 64.5433 7.6881 63.5984 7.99697C63.149 8.14568 62.7456 8.38591 62.5843 8.87781C62.4115 9.38114 62.5267 9.79296 62.9876 10.0561C63.3333 10.2505 63.7021 10.4107 64.0823 10.5365C64.912 10.8111 65.7532 11.0399 66.5714 11.3144C67.1014 11.486 67.5623 11.7834 67.9657 12.1609C68.6571 12.7901 68.9451 13.5909 68.9221 14.506C68.876 15.9474 68.0809 16.874 66.8364 17.4803C65.8339 17.9722 64.7737 18.0637 63.679 17.9493C62.6996 17.8578 61.7547 17.6176 60.8904 17.1371C60.5101 16.9198 60.1414 16.6566 59.7266 16.3935Z" fill="#001633"/>
<path d="M114.324 6.00147C115.096 6.00147 115.845 6.00147 116.629 6.00147C116.629 6.44761 116.629 6.89375 116.629 7.39709C117.816 6.07011 119.302 5.73837 120.973 5.9214C120.973 6.66496 120.973 7.40853 120.973 8.14065C120.028 7.99194 119.129 8.10634 118.288 8.56391C117.654 8.9071 117.136 9.38756 116.756 10.0053C116.721 10.0739 116.71 10.1654 116.71 10.2455C116.71 12.6707 116.71 15.0844 116.71 17.5096C116.71 17.5897 116.71 17.6583 116.71 17.7498C115.914 17.7498 115.131 17.7498 114.324 17.7498C114.324 13.8375 114.324 9.92521 114.324 6.00147Z" fill="#001633"/>
<path d="M107.71 17.7498C106.903 17.7498 106.131 17.7498 105.336 17.7498C105.336 13.8375 105.336 9.9366 105.336 6.01286C106.096 6.01286 106.845 6.01286 107.629 6.01286C107.629 6.459 107.629 6.8937 107.629 7.40848C108.827 6.07006 110.302 5.73832 111.973 5.92135C111.973 6.66491 111.973 7.39704 111.973 8.1406C111.201 8.01477 110.452 8.07197 109.738 8.34651C108.885 8.67826 108.228 9.25023 107.744 10.0167C107.71 10.0853 107.71 10.1768 107.71 10.2569C107.71 12.6706 107.71 15.0844 107.71 17.4981C107.71 17.5782 107.71 17.6582 107.71 17.7498Z" fill="#001633"/>
<path d="M73.8779 17.7483C73.1174 17.7483 72.3683 17.7483 71.6193 17.7483C71.5848 17.7483 71.5617 17.7369 71.5156 17.7369C71.5156 13.8246 71.5156 9.9123 71.5156 6C72.3107 6 73.0943 6 73.8779 6C73.8779 9.9123 73.8779 13.8246 73.8779 17.7483Z" fill="#001633"/>
<path d="M71.123 1.83646C71.123 0.95562 71.7914 0.257812 72.6672 0.257812C73.5429 0.257812 74.2458 0.944181 74.2574 1.82502C74.2689 2.6601 73.5314 3.38079 72.6672 3.38079C71.8144 3.36935 71.123 2.69442 71.123 1.83646Z" fill="#001633"/>
<defs>
<linearGradient id="paint0_linear_6001_113546" x1="2.82549e-10" y1="6.37819" x2="27.3313" y2="6.37819" gradientUnits="userSpaceOnUse">
<stop stop-color="#00B3FF"/>
<stop offset="0.9868" stop-color="#72FFFB"/>
</linearGradient>
<linearGradient id="paint1_linear_6001_113546" x1="0.964562" y1="24.8974" x2="26.2738" y2="10.1782" gradientUnits="userSpaceOnUse">
<stop offset="0.00138476" stop-color="#00E8FF"/>
<stop offset="0.1501" stop-color="#00DDFF"/>
<stop offset="0.4126" stop-color="#00BFFF"/>
<stop offset="0.7557" stop-color="#008FFF"/>
<stop offset="0.9947" stop-color="#006AFF"/>
</linearGradient>
</defs>
</svg>
