<svg width="180" height="26" viewBox="0 0 180 26" fill="none" xmlns="http://www.w3.org/2000/svg">
<rect x="0.5" y="0.5" width="69" height="25" rx="12.5" stroke="url(#paint0_linear_6006_12476)"/>
<path d="M19 7.75L17.8847 11.1409C17.8276 11.3145 17.7305 11.4722 17.6014 11.6014C17.4722 11.7305 17.3145 11.8276 17.1409 11.8847L13.75 13L17.1409 14.1153C17.3145 14.1724 17.4722 14.2695 17.6014 14.3986C17.7305 14.5278 17.8276 14.6855 17.8847 14.8591L19 18.25L20.1153 14.8591C20.1724 14.6855 20.2695 14.5278 20.3986 14.3986C20.5278 14.2695 20.6855 14.1724 20.8591 14.1153L24.25 13L20.8591 11.8847C20.6855 11.8276 20.5278 11.7305 20.3986 11.6014C20.2695 11.4722 20.1724 11.3145 20.1153 11.1409L19 7.75Z" fill="url(#paint1_linear_6006_12476)" stroke="url(#paint2_linear_6006_12476)" stroke-linecap="round" stroke-linejoin="round"/>
<path d="M14.625 6.875L14.2532 8.00531C14.2342 8.06315 14.2018 8.11573 14.1588 8.15879C14.1157 8.20185 14.0632 8.2342 14.0053 8.25322L12.875 8.625L14.0053 8.99678C14.0632 9.0158 14.1157 9.04815 14.1588 9.09121C14.2018 9.13427 14.2342 9.18685 14.2532 9.24469L14.625 10.375L14.9968 9.24469C15.0158 9.18685 15.0482 9.13427 15.0912 9.09121C15.1343 9.04815 15.1868 9.0158 15.2447 8.99678L16.375 8.625L15.2447 8.25322C15.1868 8.2342 15.1343 8.20185 15.0912 8.15879C15.0482 8.11573 15.0158 8.06315 14.9968 8.00531L14.625 6.875Z" fill="url(#paint3_linear_6006_12476)" stroke="url(#paint4_linear_6006_12476)" stroke-width="0.375" stroke-linecap="round" stroke-linejoin="round"/>
<path d="M14.625 6.875L14.2532 8.00531C14.2342 8.06315 14.2018 8.11573 14.1588 8.15879C14.1157 8.20185 14.0632 8.2342 14.0053 8.25322L12.875 8.625L14.0053 8.99678C14.0632 9.0158 14.1157 9.04815 14.1588 9.09121C14.2018 9.13427 14.2342 9.18685 14.2532 9.24469L14.625 10.375L14.9968 9.24469C15.0158 9.18685 15.0482 9.13427 15.0912 9.09121C15.1343 9.04815 15.1868 9.0158 15.2447 8.99678L16.375 8.625L15.2447 8.25322C15.1868 8.2342 15.1343 8.20185 15.0912 8.15879C15.0482 8.11573 15.0158 8.06315 14.9968 8.00531L14.625 6.875Z" fill="url(#paint5_linear_6006_12476)" stroke="url(#paint6_linear_6006_12476)" stroke-width="0.375" stroke-linecap="round" stroke-linejoin="round"/>
<path d="M23.375 15.625L23.0032 16.7553C22.9842 16.8132 22.9518 16.8657 22.9088 16.9088C22.8657 16.9518 22.8132 16.9842 22.7553 17.0032L21.625 17.375L22.7553 17.7468C22.8132 17.7658 22.8657 17.7982 22.9088 17.8412C22.9518 17.8843 22.9842 17.9368 23.0032 17.9947L23.375 19.125L23.7468 17.9947C23.7658 17.9368 23.7982 17.8843 23.8412 17.8412C23.8843 17.7982 23.9368 17.7658 23.9947 17.7468L25.125 17.375L23.9947 17.0032C23.9368 16.9842 23.8843 16.9518 23.8412 16.9088C23.7982 16.8657 23.7658 16.8132 23.7468 16.7553L23.375 15.625Z" fill="url(#paint7_linear_6006_12476)" stroke="url(#paint8_linear_6006_12476)" stroke-width="0.375" stroke-linecap="round" stroke-linejoin="round"/>
<path d="M40.669 9.72727V17H39.6605L35.9638 11.6662H35.8963V17H34.799V9.72727H35.8146L39.5149 15.0682L39.5824 15.0682V9.72727H40.669ZM42.2697 17V9.72727H46.8294V10.6719H43.367V12.8878H46.5914V13.8288H43.367V16.0554H46.872V17H42.2697ZM49.7191 17L47.7021 9.72727H48.8562L50.2731 15.3594H50.3406L51.8143 9.72727H52.9577L54.4315 15.3629H54.4989L55.9123 9.72727H57.07L55.0494 17H53.945L52.4144 11.5526H52.3576L50.8271 17L49.7191 17Z" fill="url(#paint9_linear_6006_12476)"/>
<path d="M83.48 20L78.54 5.9H80.66L84.8 18.08H84.06L88.32 5.9H89.9L94.08 18.08H93.42L97.6 5.9H99.62L94.64 20H92.9L88.86 8.42H89.3L85.22 20H83.48ZM104.598 20.18C103.611 20.18 102.758 19.9733 102.038 19.56C101.331 19.1467 100.778 18.56 100.378 17.8C99.9775 17.04 99.7775 16.1467 99.7775 15.12C99.7775 14.08 99.9775 13.1867 100.378 12.44C100.778 11.68 101.331 11.0933 102.038 10.68C102.758 10.2667 103.611 10.06 104.598 10.06C105.571 10.06 106.411 10.2667 107.118 10.68C107.838 11.0933 108.398 11.68 108.798 12.44C109.198 13.2 109.398 14.0933 109.398 15.12C109.398 16.1467 109.198 17.04 108.798 17.8C108.398 18.56 107.838 19.1467 107.118 19.56C106.411 19.9733 105.571 20.18 104.598 20.18ZM104.578 18.62C105.418 18.62 106.091 18.32 106.598 17.72C107.104 17.12 107.358 16.2533 107.358 15.12C107.358 13.9733 107.104 13.1067 106.598 12.52C106.091 11.9333 105.418 11.64 104.578 11.64C103.751 11.64 103.084 11.9333 102.578 12.52C102.071 13.1067 101.818 13.9733 101.818 15.12C101.818 16.2533 102.071 17.12 102.578 17.72C103.084 18.32 103.751 18.62 104.578 18.62ZM111.666 20V10.24H113.626V12.58H113.426C113.639 11.78 114.019 11.1733 114.566 10.76C115.126 10.3467 115.866 10.1067 116.786 10.04L117.446 10L117.586 11.72L116.366 11.84C115.499 11.92 114.839 12.1933 114.386 12.66C113.933 13.1267 113.706 13.7667 113.706 14.58V20H111.666ZM122.71 20.18C121.857 20.18 121.104 19.98 120.45 19.58C119.81 19.1667 119.31 18.58 118.95 17.82C118.59 17.0467 118.41 16.1467 118.41 15.12C118.41 14.0667 118.59 13.1667 118.95 12.42C119.31 11.6733 119.81 11.0933 120.45 10.68C121.104 10.2667 121.857 10.06 122.71 10.06C123.564 10.06 124.297 10.2733 124.91 10.7C125.537 11.1133 125.957 11.6733 126.17 12.38H125.95V5.9H127.97V20H125.99V17.8H126.19C125.977 18.52 125.557 19.1 124.93 19.54C124.317 19.9667 123.577 20.18 122.71 20.18ZM123.23 18.62C124.057 18.62 124.724 18.32 125.23 17.72C125.737 17.12 125.99 16.2533 125.99 15.12C125.99 13.9733 125.737 13.1067 125.23 12.52C124.724 11.9333 124.057 11.64 123.23 11.64C122.39 11.64 121.717 11.9333 121.21 12.52C120.704 13.1067 120.45 13.9733 120.45 15.12C120.45 16.2533 120.704 17.12 121.21 17.72C121.717 18.32 122.39 18.62 123.23 18.62ZM135.227 23.78C134.347 23.78 133.527 23.6733 132.767 23.46C132.007 23.2467 131.333 22.9267 130.747 22.5L131.367 21.06C131.753 21.3133 132.147 21.5267 132.547 21.7C132.96 21.8867 133.373 22.02 133.787 22.1C134.213 22.18 134.647 22.22 135.087 22.22C136.02 22.22 136.72 21.98 137.187 21.5C137.653 21.0333 137.887 20.34 137.887 19.42V17.38H138.067C137.867 18.1133 137.447 18.6933 136.807 19.12C136.167 19.5467 135.427 19.76 134.587 19.76C133.707 19.76 132.94 19.56 132.287 19.16C131.633 18.7467 131.127 18.18 130.767 17.46C130.407 16.7267 130.227 15.8733 130.227 14.9C130.227 13.9267 130.407 13.08 130.767 12.36C131.127 11.64 131.633 11.08 132.287 10.68C132.94 10.2667 133.707 10.06 134.587 10.06C135.44 10.06 136.18 10.2733 136.807 10.7C137.447 11.1267 137.86 11.7067 138.047 12.44H137.887V10.24H139.847V19.18C139.847 20.1933 139.673 21.04 139.327 21.72C138.98 22.4133 138.46 22.9267 137.767 23.26C137.087 23.6067 136.24 23.78 135.227 23.78ZM135.067 18.18C135.933 18.18 136.613 17.8867 137.107 17.3C137.613 16.7133 137.867 15.9133 137.867 14.9C137.867 13.9 137.613 13.1067 137.107 12.52C136.613 11.9333 135.933 11.64 135.067 11.64C134.213 11.64 133.533 11.9333 133.027 12.52C132.52 13.1067 132.267 13.9 132.267 14.9C132.267 15.9133 132.52 16.7133 133.027 17.3C133.533 17.8867 134.213 18.18 135.067 18.18ZM147.262 20.18C146.195 20.18 145.275 19.98 144.502 19.58C143.742 19.1667 143.148 18.5867 142.722 17.84C142.308 17.08 142.102 16.18 142.102 15.14C142.102 14.1267 142.308 13.24 142.722 12.48C143.135 11.72 143.702 11.1267 144.422 10.7C145.142 10.2733 145.962 10.06 146.882 10.06C147.788 10.06 148.562 10.26 149.202 10.66C149.855 11.0467 150.355 11.6 150.702 12.32C151.048 13.04 151.222 13.9 151.222 14.9V15.58H143.702V14.34H149.862L149.522 14.62C149.522 13.62 149.302 12.8467 148.862 12.3C148.422 11.7533 147.788 11.48 146.962 11.48C146.335 11.48 145.802 11.6267 145.362 11.92C144.935 12.2133 144.608 12.62 144.382 13.14C144.155 13.66 144.042 14.2667 144.042 14.96V15.08C144.042 15.8533 144.162 16.5067 144.402 17.04C144.655 17.56 145.022 17.9533 145.502 18.22C145.982 18.4867 146.575 18.62 147.282 18.62C147.842 18.62 148.388 18.5333 148.922 18.36C149.468 18.1733 149.982 17.8867 150.462 17.5L151.062 18.9C150.622 19.3 150.055 19.6133 149.362 19.84C148.668 20.0667 147.968 20.18 147.262 20.18ZM153.424 20V10.24H155.384V12.32H155.164C155.457 11.5733 155.917 11.0133 156.544 10.64C157.171 10.2533 157.891 10.06 158.704 10.06C159.477 10.06 160.117 10.2067 160.624 10.5C161.144 10.78 161.531 11.2133 161.784 11.8C162.037 12.3733 162.164 13.1 162.164 13.98V20H160.144V14.1C160.144 13.54 160.071 13.0867 159.924 12.74C159.777 12.38 159.557 12.1133 159.264 11.94C158.971 11.7667 158.591 11.68 158.124 11.68C157.591 11.68 157.117 11.7933 156.704 12.02C156.304 12.2467 155.991 12.5733 155.764 13C155.551 13.4267 155.444 13.92 155.444 14.48V20H153.424ZM164.767 7.98V5.88H167.127V7.98H164.767ZM164.947 20V10.24H166.967V20H164.947ZM174.391 20.18C173.324 20.18 172.404 19.98 171.631 19.58C170.871 19.1667 170.277 18.5867 169.851 17.84C169.437 17.08 169.231 16.18 169.231 15.14C169.231 14.1267 169.437 13.24 169.851 12.48C170.264 11.72 170.831 11.1267 171.551 10.7C172.271 10.2733 173.091 10.06 174.011 10.06C174.917 10.06 175.691 10.26 176.331 10.66C176.984 11.0467 177.484 11.6 177.831 12.32C178.177 13.04 178.351 13.9 178.351 14.9V15.58H170.831V14.34H176.991L176.651 14.62C176.651 13.62 176.431 12.8467 175.991 12.3C175.551 11.7533 174.917 11.48 174.091 11.48C173.464 11.48 172.931 11.6267 172.491 11.92C172.064 12.2133 171.737 12.62 171.511 13.14C171.284 13.66 171.171 14.2667 171.171 14.96V15.08C171.171 15.8533 171.291 16.5067 171.531 17.04C171.784 17.56 172.151 17.9533 172.631 18.22C173.111 18.4867 173.704 18.62 174.411 18.62C174.971 18.62 175.517 18.5333 176.051 18.36C176.597 18.1733 177.111 17.8867 177.591 17.5L178.191 18.9C177.751 19.3 177.184 19.6133 176.491 19.84C175.797 20.0667 175.097 20.18 174.391 20.18Z" fill="url(#paint10_linear_6006_12476)"/>
<defs>
<linearGradient id="paint0_linear_6006_12476" x1="71.1269" y1="-1.31359" x2="1.82692" y2="34.6172" gradientUnits="userSpaceOnUse">
<stop stop-color="#006EFE"/>
<stop offset="1" stop-color="#5326BD"/>
</linearGradient>
<linearGradient id="paint1_linear_6006_12476" x1="24.419" y1="7.21951" x2="11.7013" y2="9.66868" gradientUnits="userSpaceOnUse">
<stop stop-color="#006EFE"/>
<stop offset="1" stop-color="#5326BD"/>
</linearGradient>
<linearGradient id="paint2_linear_6006_12476" x1="24.419" y1="7.21951" x2="11.7013" y2="9.66868" gradientUnits="userSpaceOnUse">
<stop stop-color="#006EFE"/>
<stop offset="1" stop-color="#5326BD"/>
</linearGradient>
<linearGradient id="paint3_linear_6006_12476" x1="16.4313" y1="6.69817" x2="12.1921" y2="7.51456" gradientUnits="userSpaceOnUse">
<stop stop-color="#006EFE"/>
<stop offset="1" stop-color="#5326BD"/>
</linearGradient>
<linearGradient id="paint4_linear_6006_12476" x1="16.4313" y1="6.69817" x2="12.1921" y2="7.51456" gradientUnits="userSpaceOnUse">
<stop stop-color="#006EFE"/>
<stop offset="1" stop-color="#5326BD"/>
</linearGradient>
<linearGradient id="paint5_linear_6006_12476" x1="16.4313" y1="6.69817" x2="12.1921" y2="7.51456" gradientUnits="userSpaceOnUse">
<stop stop-color="#006EFE"/>
<stop offset="1" stop-color="#5326BD"/>
</linearGradient>
<linearGradient id="paint6_linear_6006_12476" x1="16.4313" y1="6.69817" x2="12.1921" y2="7.51456" gradientUnits="userSpaceOnUse">
<stop stop-color="#006EFE"/>
<stop offset="1" stop-color="#5326BD"/>
</linearGradient>
<linearGradient id="paint7_linear_6006_12476" x1="25.1813" y1="15.4482" x2="20.9421" y2="16.2646" gradientUnits="userSpaceOnUse">
<stop stop-color="#006EFE"/>
<stop offset="1" stop-color="#5326BD"/>
</linearGradient>
<linearGradient id="paint8_linear_6006_12476" x1="25.1813" y1="15.4482" x2="20.9421" y2="16.2646" gradientUnits="userSpaceOnUse">
<stop stop-color="#006EFE"/>
<stop offset="1" stop-color="#5326BD"/>
</linearGradient>
<linearGradient id="paint9_linear_6006_12476" x1="58.3864" y1="5.29268" x2="31.2019" y2="14.2672" gradientUnits="userSpaceOnUse">
<stop stop-color="#006EFE"/>
<stop offset="1" stop-color="#5326BD"/>
</linearGradient>
<linearGradient id="paint10_linear_6006_12476" x1="181.642" y1="-0.212547" x2="104.914" y2="62.586" gradientUnits="userSpaceOnUse">
<stop stop-color="#006EFE"/>
<stop offset="1" stop-color="#5326BD"/>
</linearGradient>
</defs>
</svg>
